<?xml version="1.0" encoding="UTF-8" standalone="no"?>
<!DOCTYPE svg PUBLIC "-//W3C//DTD SVG 1.1//EN"
 "http://www.w3.org/Graphics/SVG/1.1/DTD/svg11.dtd">
<!-- Generated by graphviz version 2.43.0 (0)
 -->
<!-- Title: G Pages: 1 -->
<svg width="788pt" height="276pt"
 viewBox="0.00 0.00 788.00 276.00" xmlns="http://www.w3.org/2000/svg" xmlns:xlink="http://www.w3.org/1999/xlink">
<g id="graph0" class="graph" transform="scale(1 1) rotate(0) translate(4 272)">
<title>G</title>
<polygon fill="transparent" stroke="transparent" points="-4,4 -4,-272 784,-272 784,4 -4,4"/>
<g id="clust1" class="cluster">
<title>cluster_a42ddb32&#45;c57e&#45;465b&#45;8f43&#45;bd95e3163705</title>
<polygon fill="transparent" stroke="red" stroke-dasharray="5,2" points="8,-64 8,-260 772,-260 772,-64 8,-64"/>
</g>
<!-- 15577978&#45;71a9&#45;4c2d&#45;ac6f&#45;db50059b0663 -->
<g id="node1" class="node">
<title>15577978&#45;71a9&#45;4c2d&#45;ac6f&#45;db50059b0663</title>
<polygon fill="none" stroke="black" stroke-dasharray="5,2" points="417,-252 363,-252 363,-216 417,-216 417,-252"/>
<text text-anchor="middle" x="390" y="-230.3" font-family="Times,serif" font-size="14.00" fill="red">Race</text>
</g>
<!-- b79fe52c&#45;d35c&#45;4b49&#45;9690&#45;fa45b917f287 -->
<g id="node2" class="node">
<title>b79fe52c&#45;d35c&#45;4b49&#45;9690&#45;fa45b917f287</title>
<ellipse fill="none" stroke="black" cx="62" cy="-162" rx="46.4" ry="18"/>
<text text-anchor="middle" x="62" y="-158.3" font-family="Times,serif" font-size="14.00">AlwaysTrue</text>
</g>
<!-- 15577978&#45;71a9&#45;4c2d&#45;ac6f&#45;db50059b0663&#45;&gt;b79fe52c&#45;d35c&#45;4b49&#45;9690&#45;fa45b917f287 -->
<g id="edge1" class="edge">
<title>15577978&#45;71a9&#45;4c2d&#45;ac6f&#45;db50059b0663&#45;&gt;b79fe52c&#45;d35c&#45;4b49&#45;9690&#45;fa45b917f287</title>
<path fill="none" stroke="black" d="M362.88,-227.21C307.73,-215.44 181.79,-188.57 111.59,-173.58"/>
<polygon fill="black" stroke="black" points="112.16,-170.13 101.65,-171.46 110.7,-176.97 112.16,-170.13"/>
</g>
<!-- 0119102a&#45;4ba0&#45;433d&#45;b916&#45;01f7a642e278 -->
<g id="node3" class="node">
<title>0119102a&#45;4ba0&#45;433d&#45;b916&#45;01f7a642e278</title>
<ellipse fill="none" stroke="black" cx="226" cy="-162" rx="46.4" ry="18"/>
<text text-anchor="middle" x="226" y="-158.3" font-family="Times,serif" font-size="14.00">AlwaysTrue</text>
</g>
<!-- 15577978&#45;71a9&#45;4c2d&#45;ac6f&#45;db50059b0663&#45;&gt;0119102a&#45;4ba0&#45;433d&#45;b916&#45;01f7a642e278 -->
<g id="edge2" class="edge">
<title>15577978&#45;71a9&#45;4c2d&#45;ac6f&#45;db50059b0663&#45;&gt;0119102a&#45;4ba0&#45;433d&#45;b916&#45;01f7a642e278</title>
<path fill="none" stroke="black" d="M362.92,-221.44C336.32,-210.09 295.45,-192.65 265.29,-179.77"/>
<polygon fill="black" stroke="black" points="266.47,-176.47 255.9,-175.76 263.72,-182.91 266.47,-176.47"/>
</g>
<!-- 1df1486d&#45;64c8&#45;4e11&#45;ac7b&#45;0d3b0ce9e100 -->
<g id="node4" class="node">
<title>1df1486d&#45;64c8&#45;4e11&#45;ac7b&#45;0d3b0ce9e100</title>
<ellipse fill="none" stroke="black" cx="390" cy="-162" rx="46.4" ry="18"/>
<text text-anchor="middle" x="390" y="-158.3" font-family="Times,serif" font-size="14.00">AlwaysTrue</text>
</g>
<!-- 15577978&#45;71a9&#45;4c2d&#45;ac6f&#45;db50059b0663&#45;&gt;1df1486d&#45;64c8&#45;4e11&#45;ac7b&#45;0d3b0ce9e100 -->
<g id="edge3" class="edge">
<title>15577978&#45;71a9&#45;4c2d&#45;ac6f&#45;db50059b0663&#45;&gt;1df1486d&#45;64c8&#45;4e11&#45;ac7b&#45;0d3b0ce9e100</title>
<path fill="none" stroke="black" d="M390,-215.7C390,-207.98 390,-198.71 390,-190.11"/>
<polygon fill="black" stroke="black" points="393.5,-190.1 390,-180.1 386.5,-190.1 393.5,-190.1"/>
</g>
<!-- 62b1f8d1&#45;a045&#45;4c7d&#45;b854&#45;b023cc38959a -->
<g id="node5" class="node">
<title>62b1f8d1&#45;a045&#45;4c7d&#45;b854&#45;b023cc38959a</title>
<ellipse fill="none" stroke="black" cx="554" cy="-162" rx="46.4" ry="18"/>
<text text-anchor="middle" x="554" y="-158.3" font-family="Times,serif" font-size="14.00">AlwaysTrue</text>
</g>
<!-- 15577978&#45;71a9&#45;4c2d&#45;ac6f&#45;db50059b0663&#45;&gt;62b1f8d1&#45;a045&#45;4c7d&#45;b854&#45;b023cc38959a -->
<g id="edge4" class="edge">
<title>15577978&#45;71a9&#45;4c2d&#45;ac6f&#45;db50059b0663&#45;&gt;62b1f8d1&#45;a045&#45;4c7d&#45;b854&#45;b023cc38959a</title>
<path fill="none" stroke="black" d="M417.08,-221.44C443.68,-210.09 484.55,-192.65 514.71,-179.77"/>
<polygon fill="black" stroke="black" points="516.28,-182.91 524.1,-175.76 513.53,-176.47 516.28,-182.91"/>
</g>
<!-- c38bad26&#45;9a47&#45;4c5e&#45;8d3f&#45;51989fda42d1 -->
<g id="node6" class="node">
<title>c38bad26&#45;9a47&#45;4c5e&#45;8d3f&#45;51989fda42d1</title>
<ellipse fill="none" stroke="black" cx="718" cy="-162" rx="46.4" ry="18"/>
<text text-anchor="middle" x="718" y="-158.3" font-family="Times,serif" font-size="14.00">AlwaysTrue</text>
</g>
<!-- 15577978&#45;71a9&#45;4c2d&#45;ac6f&#45;db50059b0663&#45;&gt;c38bad26&#45;9a47&#45;4c5e&#45;8d3f&#45;51989fda42d1 -->
<g id="edge5" class="edge">
<title>15577978&#45;71a9&#45;4c2d&#45;ac6f&#45;db50059b0663&#45;&gt;c38bad26&#45;9a47&#45;4c5e&#45;8d3f&#45;51989fda42d1</title>
<path fill="none" stroke="black" d="M417.12,-227.21C472.27,-215.44 598.21,-188.57 668.41,-173.58"/>
<polygon fill="black" stroke="black" points="669.3,-176.97 678.35,-171.46 667.84,-170.13 669.3,-176.97"/>
</g>
<!-- 1e3d52fd&#45;4b8e&#45;4c49&#45;afe3&#45;e5329492daf4 -->
<g id="node7" class="node">
<title>1e3d52fd&#45;4b8e&#45;4c49&#45;afe3&#45;e5329492daf4</title>
<polygon fill="none" stroke="black" stroke-dasharray="5,2" points="426,-108 354,-108 354,-72 426,-72 426,-108"/>
<text text-anchor="middle" x="390" y="-86.3" font-family="Times,serif" font-size="14.00" fill="red">Resolve</text>
</g>
<!-- b79fe52c&#45;d35c&#45;4b49&#45;9690&#45;fa45b917f287&#45;&gt;1e3d52fd&#45;4b8e&#45;4c49&#45;afe3&#45;e5329492daf4 -->
<g id="edge6" class="edge">
<title>b79fe52c&#45;d35c&#45;4b49&#45;9690&#45;fa45b917f287&#45;&gt;1e3d52fd&#45;4b8e&#45;4c49&#45;afe3&#45;e5329492daf4</title>
<path fill="none" stroke="black" d="M101.56,-152.56C162.54,-139.54 279.18,-114.65 343.89,-100.84"/>
<polygon fill="black" stroke="black" points="344.76,-104.23 353.81,-98.72 343.3,-97.39 344.76,-104.23"/>
</g>
<!-- 0119102a&#45;4ba0&#45;433d&#45;b916&#45;01f7a642e278&#45;&gt;1e3d52fd&#45;4b8e&#45;4c49&#45;afe3&#45;e5329492daf4 -->
<g id="edge7" class="edge">
<title>0119102a&#45;4ba0&#45;433d&#45;b916&#45;01f7a642e278&#45;&gt;1e3d52fd&#45;4b8e&#45;4c49&#45;afe3&#45;e5329492daf4</title>
<path fill="none" stroke="black" d="M256.08,-148.16C280.84,-137.59 316.32,-122.45 344.55,-110.4"/>
<polygon fill="black" stroke="black" points="345.99,-113.59 353.81,-106.45 343.24,-107.15 345.99,-113.59"/>
</g>
<!-- 1df1486d&#45;64c8&#45;4e11&#45;ac7b&#45;0d3b0ce9e100&#45;&gt;1e3d52fd&#45;4b8e&#45;4c49&#45;afe3&#45;e5329492daf4 -->
<g id="edge8" class="edge">
<title>1df1486d&#45;64c8&#45;4e11&#45;ac7b&#45;0d3b0ce9e100&#45;&gt;1e3d52fd&#45;4b8e&#45;4c49&#45;afe3&#45;e5329492daf4</title>
<path fill="none" stroke="black" d="M390,-143.7C390,-135.98 390,-126.71 390,-118.11"/>
<polygon fill="black" stroke="black" points="393.5,-118.1 390,-108.1 386.5,-118.1 393.5,-118.1"/>
</g>
<!-- 62b1f8d1&#45;a045&#45;4c7d&#45;b854&#45;b023cc38959a&#45;&gt;1e3d52fd&#45;4b8e&#45;4c49&#45;afe3&#45;e5329492daf4 -->
<g id="edge9" class="edge">
<title>62b1f8d1&#45;a045&#45;4c7d&#45;b854&#45;b023cc38959a&#45;&gt;1e3d52fd&#45;4b8e&#45;4c49&#45;afe3&#45;e5329492daf4</title>
<path fill="none" stroke="black" d="M523.92,-148.16C499.16,-137.59 463.68,-122.45 435.45,-110.4"/>
<polygon fill="black" stroke="black" points="436.76,-107.15 426.19,-106.45 434.01,-113.59 436.76,-107.15"/>
</g>
<!-- c38bad26&#45;9a47&#45;4c5e&#45;8d3f&#45;51989fda42d1&#45;&gt;1e3d52fd&#45;4b8e&#45;4c49&#45;afe3&#45;e5329492daf4 -->
<g id="edge10" class="edge">
<title>c38bad26&#45;9a47&#45;4c5e&#45;8d3f&#45;51989fda42d1&#45;&gt;1e3d52fd&#45;4b8e&#45;4c49&#45;afe3&#45;e5329492daf4</title>
<path fill="none" stroke="black" d="M678.44,-152.56C617.46,-139.54 500.82,-114.65 436.11,-100.84"/>
<polygon fill="black" stroke="black" points="436.7,-97.39 426.19,-98.72 435.24,-104.23 436.7,-97.39"/>
</g>
<!-- b23573b7&#45;3f39&#45;43c9&#45;bd58&#45;59bde0945ad1 -->
<g id="node8" class="node">
<title>b23573b7&#45;3f39&#45;43c9&#45;bd58&#45;59bde0945ad1</title>
<ellipse fill="none" stroke="black" cx="390" cy="-18" rx="46.4" ry="18"/>
<text text-anchor="middle" x="390" y="-14.3" font-family="Times,serif" font-size="14.00">AlwaysTrue</text>
</g>
<!-- 1e3d52fd&#45;4b8e&#45;4c49&#45;afe3&#45;e5329492daf4&#45;&gt;b23573b7&#45;3f39&#45;43c9&#45;bd58&#45;59bde0945ad1 -->
<g id="edge11" class="edge">
<title>1e3d52fd&#45;4b8e&#45;4c49&#45;afe3&#45;e5329492daf4&#45;&gt;b23573b7&#45;3f39&#45;43c9&#45;bd58&#45;59bde0945ad1</title>
<path fill="none" stroke="black" d="M390,-71.7C390,-63.98 390,-54.71 390,-46.11"/>
<polygon fill="black" stroke="black" points="393.5,-46.1 390,-36.1 386.5,-46.1 393.5,-46.1"/>
</g>
</g>
</svg>
