<?xml version="1.0" encoding="UTF-8" standalone="no"?>
<!DOCTYPE svg PUBLIC "-//W3C//DTD SVG 1.1//EN"
 "http://www.w3.org/Graphics/SVG/1.1/DTD/svg11.dtd">
<!-- Generated by graphviz version 2.43.0 (0)
 -->
<!-- Title: G Pages: 1 -->
<svg width="408pt" height="293pt"
 viewBox="0.00 0.00 407.65 293.00" xmlns="http://www.w3.org/2000/svg" xmlns:xlink="http://www.w3.org/1999/xlink">
<g id="graph0" class="graph" transform="scale(1 1) rotate(0) translate(4 289)">
<title>G</title>
<polygon fill="transparent" stroke="transparent" points="-4,4 -4,-289 403.65,-289 403.65,4 -4,4"/>
<g id="clust1" class="cluster">
<title>cluster_090d4723&#45;7c65&#45;4d9a&#45;ad1e&#45;a3e16f514cab</title>
<polygon fill="transparent" stroke="red" stroke-dasharray="5,2" points="8,-8 8,-206 304,-206 304,-8 8,-8"/>
</g>
<!-- 2e3cec2f&#45;793a&#45;4b34&#45;9023&#45;c36d4423ac7b -->
<g id="node1" class="node">
<title>2e3cec2f&#45;793a&#45;4b34&#45;9023&#45;c36d4423ac7b</title>
<polygon fill="none" stroke="black" points="298,-285 232.82,-267 298,-249 363.18,-267 298,-285"/>
<text text-anchor="middle" x="298" y="-263.3" font-family="Times,serif" font-size="14.00">AlwaysTrue</text>
</g>
<!-- 42d3caab&#45;2fe7&#45;49d8&#45;a221&#45;ad085c99e16f -->
<g id="node2" class="node">
<title>42d3caab&#45;2fe7&#45;49d8&#45;a221&#45;ad085c99e16f</title>
<polygon fill="none" stroke="black" stroke-dasharray="5,2" points="258,-198 204,-198 204,-162 258,-162 258,-198"/>
<text text-anchor="middle" x="231" y="-176.3" font-family="Times,serif" font-size="14.00" fill="red">Race</text>
</g>
<!-- 2e3cec2f&#45;793a&#45;4b34&#45;9023&#45;c36d4423ac7b&#45;&gt;42d3caab&#45;2fe7&#45;49d8&#45;a221&#45;ad085c99e16f -->
<g id="edge6" class="edge">
<title>2e3cec2f&#45;793a&#45;4b34&#45;9023&#45;c36d4423ac7b&#45;&gt;42d3caab&#45;2fe7&#45;49d8&#45;a221&#45;ad085c99e16f</title>
<path fill="none" stroke="black" d="M286.94,-251.96C277.15,-239.55 262.64,-221.14 250.85,-206.19"/>
<polygon fill="black" stroke="black" points="253.57,-203.98 244.63,-198.29 248.07,-208.31 253.57,-203.98"/>
<text text-anchor="middle" x="287" y="-219.8" font-family="Times,serif" font-size="14.00">False</text>
</g>
<!-- cc274f4c&#45;ae50&#45;4b16&#45;8c1f&#45;7b55c0572cdc -->
<g id="node6" class="node">
<title>cc274f4c&#45;ae50&#45;4b16&#45;8c1f&#45;7b55c0572cdc</title>
<ellipse fill="none" stroke="black" cx="365" cy="-180" rx="34.8" ry="18"/>
<text text-anchor="middle" x="365" y="-176.3" font-family="Times,serif" font-size="14.00">WaitArm</text>
</g>
<!-- 2e3cec2f&#45;793a&#45;4b34&#45;9023&#45;c36d4423ac7b&#45;&gt;cc274f4c&#45;ae50&#45;4b16&#45;8c1f&#45;7b55c0572cdc -->
<g id="edge5" class="edge">
<title>2e3cec2f&#45;793a&#45;4b34&#45;9023&#45;c36d4423ac7b&#45;&gt;cc274f4c&#45;ae50&#45;4b16&#45;8c1f&#45;7b55c0572cdc</title>
<path fill="none" stroke="black" d="M309.06,-251.96C319.1,-239.23 334.11,-220.19 346.05,-205.04"/>
<polygon fill="black" stroke="black" points="348.88,-207.11 352.32,-197.09 343.38,-202.77 348.88,-207.11"/>
<text text-anchor="middle" x="352" y="-219.8" font-family="Times,serif" font-size="14.00">True</text>
</g>
<!-- e98ce13c&#45;2e35&#45;4977&#45;9f67&#45;91dd388065a2 -->
<g id="node3" class="node">
<title>e98ce13c&#45;2e35&#45;4977&#45;9f67&#45;91dd388065a2</title>
<ellipse fill="none" stroke="black" cx="73" cy="-107" rx="56.8" ry="18"/>
<text text-anchor="middle" x="73" y="-103.3" font-family="Times,serif" font-size="14.00">UnwrapAction</text>
</g>
<!-- 42d3caab&#45;2fe7&#45;49d8&#45;a221&#45;ad085c99e16f&#45;&gt;e98ce13c&#45;2e35&#45;4977&#45;9f67&#45;91dd388065a2 -->
<g id="edge1" class="edge">
<title>42d3caab&#45;2fe7&#45;49d8&#45;a221&#45;ad085c99e16f&#45;&gt;e98ce13c&#45;2e35&#45;4977&#45;9f67&#45;91dd388065a2</title>
<path fill="none" stroke="black" d="M203.84,-166.79C179.03,-155.65 142,-139.01 113.66,-126.27"/>
<polygon fill="black" stroke="black" points="114.97,-123.02 104.42,-122.12 112.1,-129.41 114.97,-123.02"/>
</g>
<!-- c0b014a6&#45;7cf7&#45;464e&#45;ade6&#45;26394a1ee6dc -->
<g id="node4" class="node">
<title>c0b014a6&#45;7cf7&#45;464e&#45;ade6&#45;26394a1ee6dc</title>
<ellipse fill="none" stroke="black" cx="249" cy="-107" rx="47.1" ry="18"/>
<text text-anchor="middle" x="249" y="-103.3" font-family="Times,serif" font-size="14.00">DelayAction</text>
</g>
<!-- 42d3caab&#45;2fe7&#45;49d8&#45;a221&#45;ad085c99e16f&#45;&gt;c0b014a6&#45;7cf7&#45;464e&#45;ade6&#45;26394a1ee6dc -->
<g id="edge2" class="edge">
<title>42d3caab&#45;2fe7&#45;49d8&#45;a221&#45;ad085c99e16f&#45;&gt;c0b014a6&#45;7cf7&#45;464e&#45;ade6&#45;26394a1ee6dc</title>
<path fill="none" stroke="black" d="M235.36,-161.81C237.41,-153.7 239.91,-143.84 242.21,-134.78"/>
<polygon fill="black" stroke="black" points="245.62,-135.58 244.68,-125.03 238.83,-133.86 245.62,-135.58"/>
</g>
<!-- 5ea7e740&#45;2577&#45;4546&#45;a08c&#45;c89161d99b4a -->
<g id="node5" class="node">
<title>5ea7e740&#45;2577&#45;4546&#45;a08c&#45;c89161d99b4a</title>
<polygon fill="none" stroke="black" stroke-dasharray="5,2" points="197,-52 125,-52 125,-16 197,-16 197,-52"/>
<text text-anchor="middle" x="161" y="-30.3" font-family="Times,serif" font-size="14.00" fill="red">Resolve</text>
</g>
<!-- e98ce13c&#45;2e35&#45;4977&#45;9f67&#45;91dd388065a2&#45;&gt;5ea7e740&#45;2577&#45;4546&#45;a08c&#45;c89161d99b4a -->
<g id="edge3" class="edge">
<title>e98ce13c&#45;2e35&#45;4977&#45;9f67&#45;91dd388065a2&#45;&gt;5ea7e740&#45;2577&#45;4546&#45;a08c&#45;c89161d99b4a</title>
<path fill="none" stroke="black" d="M92.97,-89.89C104.45,-80.63 119.08,-68.82 131.83,-58.54"/>
<polygon fill="black" stroke="black" points="134.3,-61.04 139.88,-52.04 129.9,-55.59 134.3,-61.04"/>
</g>
<!-- c0b014a6&#45;7cf7&#45;464e&#45;ade6&#45;26394a1ee6dc&#45;&gt;5ea7e740&#45;2577&#45;4546&#45;a08c&#45;c89161d99b4a -->
<g id="edge4" class="edge">
<title>c0b014a6&#45;7cf7&#45;464e&#45;ade6&#45;26394a1ee6dc&#45;&gt;5ea7e740&#45;2577&#45;4546&#45;a08c&#45;c89161d99b4a</title>
<path fill="none" stroke="black" d="M229.47,-90.24C218.01,-80.99 203.29,-69.12 190.44,-58.76"/>
<polygon fill="black" stroke="black" points="192.3,-55.76 182.32,-52.2 187.91,-61.21 192.3,-55.76"/>
</g>
</g>
</svg>
