<?xml version="1.0" encoding="UTF-8" standalone="no"?>
<!DOCTYPE svg PUBLIC "-//W3C//DTD SVG 1.1//EN"
 "http://www.w3.org/Graphics/SVG/1.1/DTD/svg11.dtd">
<!-- Generated by graphviz version 2.43.0 (0)
 -->
<!-- Title: G Pages: 1 -->
<svg width="788pt" height="276pt"
 viewBox="0.00 0.00 788.00 276.00" xmlns="http://www.w3.org/2000/svg" xmlns:xlink="http://www.w3.org/1999/xlink">
<g id="graph0" class="graph" transform="scale(1 1) rotate(0) translate(4 272)">
<title>G</title>
<polygon fill="transparent" stroke="transparent" points="-4,4 -4,-272 784,-272 784,4 -4,4"/>
<g id="clust1" class="cluster">
<title>cluster_6f660da9&#45;a166&#45;4db6&#45;b2b8&#45;1d9c4dd4f36a</title>
<polygon fill="transparent" stroke="red" stroke-dasharray="5,2" points="8,-64 8,-260 772,-260 772,-64 8,-64"/>
</g>
<!-- 55b080ac&#45;b389&#45;4182&#45;b7fb&#45;a4edaed1e225 -->
<g id="node1" class="node">
<title>55b080ac&#45;b389&#45;4182&#45;b7fb&#45;a4edaed1e225</title>
<polygon fill="none" stroke="black" stroke-dasharray="5,2" points="417,-252 363,-252 363,-216 417,-216 417,-252"/>
<text text-anchor="middle" x="390" y="-230.3" font-family="Times,serif" font-size="14.00" fill="red">Race</text>
</g>
<!-- ed6198cd&#45;60f6&#45;4c44&#45;8c64&#45;377732819a00 -->
<g id="node2" class="node">
<title>ed6198cd&#45;60f6&#45;4c44&#45;8c64&#45;377732819a00</title>
<ellipse fill="none" stroke="black" cx="62" cy="-162" rx="46.4" ry="18"/>
<text text-anchor="middle" x="62" y="-158.3" font-family="Times,serif" font-size="14.00">AlwaysTrue</text>
</g>
<!-- 55b080ac&#45;b389&#45;4182&#45;b7fb&#45;a4edaed1e225&#45;&gt;ed6198cd&#45;60f6&#45;4c44&#45;8c64&#45;377732819a00 -->
<g id="edge1" class="edge">
<title>55b080ac&#45;b389&#45;4182&#45;b7fb&#45;a4edaed1e225&#45;&gt;ed6198cd&#45;60f6&#45;4c44&#45;8c64&#45;377732819a00</title>
<path fill="none" stroke="black" d="M362.88,-227.21C307.73,-215.44 181.79,-188.57 111.59,-173.58"/>
<polygon fill="black" stroke="black" points="112.16,-170.13 101.65,-171.46 110.7,-176.97 112.16,-170.13"/>
</g>
<!-- 8386a657&#45;db54&#45;463e&#45;a02c&#45;3702e13a9bac -->
<g id="node3" class="node">
<title>8386a657&#45;db54&#45;463e&#45;a02c&#45;3702e13a9bac</title>
<ellipse fill="none" stroke="black" cx="226" cy="-162" rx="46.4" ry="18"/>
<text text-anchor="middle" x="226" y="-158.3" font-family="Times,serif" font-size="14.00">AlwaysTrue</text>
</g>
<!-- 55b080ac&#45;b389&#45;4182&#45;b7fb&#45;a4edaed1e225&#45;&gt;8386a657&#45;db54&#45;463e&#45;a02c&#45;3702e13a9bac -->
<g id="edge2" class="edge">
<title>55b080ac&#45;b389&#45;4182&#45;b7fb&#45;a4edaed1e225&#45;&gt;8386a657&#45;db54&#45;463e&#45;a02c&#45;3702e13a9bac</title>
<path fill="none" stroke="black" d="M362.92,-221.44C336.32,-210.09 295.45,-192.65 265.29,-179.77"/>
<polygon fill="black" stroke="black" points="266.47,-176.47 255.9,-175.76 263.72,-182.91 266.47,-176.47"/>
</g>
<!-- 1d6e7d72&#45;4529&#45;4c52&#45;8328&#45;ba57f90b864b -->
<g id="node4" class="node">
<title>1d6e7d72&#45;4529&#45;4c52&#45;8328&#45;ba57f90b864b</title>
<ellipse fill="none" stroke="black" cx="390" cy="-162" rx="46.4" ry="18"/>
<text text-anchor="middle" x="390" y="-158.3" font-family="Times,serif" font-size="14.00">AlwaysTrue</text>
</g>
<!-- 55b080ac&#45;b389&#45;4182&#45;b7fb&#45;a4edaed1e225&#45;&gt;1d6e7d72&#45;4529&#45;4c52&#45;8328&#45;ba57f90b864b -->
<g id="edge3" class="edge">
<title>55b080ac&#45;b389&#45;4182&#45;b7fb&#45;a4edaed1e225&#45;&gt;1d6e7d72&#45;4529&#45;4c52&#45;8328&#45;ba57f90b864b</title>
<path fill="none" stroke="black" d="M390,-215.7C390,-207.98 390,-198.71 390,-190.11"/>
<polygon fill="black" stroke="black" points="393.5,-190.1 390,-180.1 386.5,-190.1 393.5,-190.1"/>
</g>
<!-- 7c905455&#45;101a&#45;419b&#45;9b40&#45;b82d6a948597 -->
<g id="node5" class="node">
<title>7c905455&#45;101a&#45;419b&#45;9b40&#45;b82d6a948597</title>
<ellipse fill="none" stroke="black" cx="554" cy="-162" rx="46.4" ry="18"/>
<text text-anchor="middle" x="554" y="-158.3" font-family="Times,serif" font-size="14.00">AlwaysTrue</text>
</g>
<!-- 55b080ac&#45;b389&#45;4182&#45;b7fb&#45;a4edaed1e225&#45;&gt;7c905455&#45;101a&#45;419b&#45;9b40&#45;b82d6a948597 -->
<g id="edge4" class="edge">
<title>55b080ac&#45;b389&#45;4182&#45;b7fb&#45;a4edaed1e225&#45;&gt;7c905455&#45;101a&#45;419b&#45;9b40&#45;b82d6a948597</title>
<path fill="none" stroke="black" d="M417.08,-221.44C443.68,-210.09 484.55,-192.65 514.71,-179.77"/>
<polygon fill="black" stroke="black" points="516.28,-182.91 524.1,-175.76 513.53,-176.47 516.28,-182.91"/>
</g>
<!-- 7473261c&#45;f84a&#45;4ee9&#45;8c5d&#45;78dd02e28d9b -->
<g id="node6" class="node">
<title>7473261c&#45;f84a&#45;4ee9&#45;8c5d&#45;78dd02e28d9b</title>
<ellipse fill="none" stroke="black" cx="718" cy="-162" rx="46.4" ry="18"/>
<text text-anchor="middle" x="718" y="-158.3" font-family="Times,serif" font-size="14.00">AlwaysTrue</text>
</g>
<!-- 55b080ac&#45;b389&#45;4182&#45;b7fb&#45;a4edaed1e225&#45;&gt;7473261c&#45;f84a&#45;4ee9&#45;8c5d&#45;78dd02e28d9b -->
<g id="edge5" class="edge">
<title>55b080ac&#45;b389&#45;4182&#45;b7fb&#45;a4edaed1e225&#45;&gt;7473261c&#45;f84a&#45;4ee9&#45;8c5d&#45;78dd02e28d9b</title>
<path fill="none" stroke="black" d="M417.12,-227.21C472.27,-215.44 598.21,-188.57 668.41,-173.58"/>
<polygon fill="black" stroke="black" points="669.3,-176.97 678.35,-171.46 667.84,-170.13 669.3,-176.97"/>
</g>
<!-- bbcff269&#45;1428&#45;4504&#45;a92e&#45;7a641c729334 -->
<g id="node7" class="node">
<title>bbcff269&#45;1428&#45;4504&#45;a92e&#45;7a641c729334</title>
<polygon fill="none" stroke="black" stroke-dasharray="5,2" points="426,-108 354,-108 354,-72 426,-72 426,-108"/>
<text text-anchor="middle" x="390" y="-86.3" font-family="Times,serif" font-size="14.00" fill="red">Resolve</text>
</g>
<!-- ed6198cd&#45;60f6&#45;4c44&#45;8c64&#45;377732819a00&#45;&gt;bbcff269&#45;1428&#45;4504&#45;a92e&#45;7a641c729334 -->
<g id="edge6" class="edge">
<title>ed6198cd&#45;60f6&#45;4c44&#45;8c64&#45;377732819a00&#45;&gt;bbcff269&#45;1428&#45;4504&#45;a92e&#45;7a641c729334</title>
<path fill="none" stroke="black" d="M101.56,-152.56C162.54,-139.54 279.18,-114.65 343.89,-100.84"/>
<polygon fill="black" stroke="black" points="344.76,-104.23 353.81,-98.72 343.3,-97.39 344.76,-104.23"/>
</g>
<!-- 8386a657&#45;db54&#45;463e&#45;a02c&#45;3702e13a9bac&#45;&gt;bbcff269&#45;1428&#45;4504&#45;a92e&#45;7a641c729334 -->
<g id="edge7" class="edge">
<title>8386a657&#45;db54&#45;463e&#45;a02c&#45;3702e13a9bac&#45;&gt;bbcff269&#45;1428&#45;4504&#45;a92e&#45;7a641c729334</title>
<path fill="none" stroke="black" d="M256.08,-148.16C280.84,-137.59 316.32,-122.45 344.55,-110.4"/>
<polygon fill="black" stroke="black" points="345.99,-113.59 353.81,-106.45 343.24,-107.15 345.99,-113.59"/>
</g>
<!-- 1d6e7d72&#45;4529&#45;4c52&#45;8328&#45;ba57f90b864b&#45;&gt;bbcff269&#45;1428&#45;4504&#45;a92e&#45;7a641c729334 -->
<g id="edge8" class="edge">
<title>1d6e7d72&#45;4529&#45;4c52&#45;8328&#45;ba57f90b864b&#45;&gt;bbcff269&#45;1428&#45;4504&#45;a92e&#45;7a641c729334</title>
<path fill="none" stroke="black" d="M390,-143.7C390,-135.98 390,-126.71 390,-118.11"/>
<polygon fill="black" stroke="black" points="393.5,-118.1 390,-108.1 386.5,-118.1 393.5,-118.1"/>
</g>
<!-- 7c905455&#45;101a&#45;419b&#45;9b40&#45;b82d6a948597&#45;&gt;bbcff269&#45;1428&#45;4504&#45;a92e&#45;7a641c729334 -->
<g id="edge9" class="edge">
<title>7c905455&#45;101a&#45;419b&#45;9b40&#45;b82d6a948597&#45;&gt;bbcff269&#45;1428&#45;4504&#45;a92e&#45;7a641c729334</title>
<path fill="none" stroke="black" d="M523.92,-148.16C499.16,-137.59 463.68,-122.45 435.45,-110.4"/>
<polygon fill="black" stroke="black" points="436.76,-107.15 426.19,-106.45 434.01,-113.59 436.76,-107.15"/>
</g>
<!-- 7473261c&#45;f84a&#45;4ee9&#45;8c5d&#45;78dd02e28d9b&#45;&gt;bbcff269&#45;1428&#45;4504&#45;a92e&#45;7a641c729334 -->
<g id="edge10" class="edge">
<title>7473261c&#45;f84a&#45;4ee9&#45;8c5d&#45;78dd02e28d9b&#45;&gt;bbcff269&#45;1428&#45;4504&#45;a92e&#45;7a641c729334</title>
<path fill="none" stroke="black" d="M678.44,-152.56C617.46,-139.54 500.82,-114.65 436.11,-100.84"/>
<polygon fill="black" stroke="black" points="436.7,-97.39 426.19,-98.72 435.24,-104.23 436.7,-97.39"/>
</g>
<!-- 45e4f7da&#45;d4a4&#45;47a7&#45;b437&#45;8ded309ea940 -->
<g id="node8" class="node">
<title>45e4f7da&#45;d4a4&#45;47a7&#45;b437&#45;8ded309ea940</title>
<ellipse fill="none" stroke="black" cx="390" cy="-18" rx="46.4" ry="18"/>
<text text-anchor="middle" x="390" y="-14.3" font-family="Times,serif" font-size="14.00">AlwaysTrue</text>
</g>
<!-- bbcff269&#45;1428&#45;4504&#45;a92e&#45;7a641c729334&#45;&gt;45e4f7da&#45;d4a4&#45;47a7&#45;b437&#45;8ded309ea940 -->
<g id="edge11" class="edge">
<title>bbcff269&#45;1428&#45;4504&#45;a92e&#45;7a641c729334&#45;&gt;45e4f7da&#45;d4a4&#45;47a7&#45;b437&#45;8ded309ea940</title>
<path fill="none" stroke="black" d="M390,-71.7C390,-63.98 390,-54.71 390,-46.11"/>
<polygon fill="black" stroke="black" points="393.5,-46.1 390,-36.1 386.5,-46.1 393.5,-46.1"/>
</g>
</g>
</svg>
