<?xml version="1.0" encoding="UTF-8" standalone="no"?>
<!DOCTYPE svg PUBLIC "-//W3C//DTD SVG 1.1//EN"
 "http://www.w3.org/Graphics/SVG/1.1/DTD/svg11.dtd">
<!-- Generated by graphviz version 2.43.0 (0)
 -->
<!-- Title: G Pages: 1 -->
<svg width="158pt" height="404pt"
 viewBox="0.00 0.00 157.61 404.00" xmlns="http://www.w3.org/2000/svg" xmlns:xlink="http://www.w3.org/1999/xlink">
<g id="graph0" class="graph" transform="scale(1 1) rotate(0) translate(4 400)">
<title>G</title>
<polygon fill="transparent" stroke="transparent" points="-4,4 -4,-400 153.61,-400 153.61,4 -4,4"/>
<!-- dd876e57&#45;7f83&#45;4c8e&#45;a8e0&#45;52dc49aa04e2 -->
<g id="node1" class="node">
<title>dd876e57&#45;7f83&#45;4c8e&#45;a8e0&#45;52dc49aa04e2</title>
<ellipse fill="none" stroke="black" cx="74.8" cy="-306" rx="33.6" ry="18"/>
<text text-anchor="middle" x="74.8" y="-302.3" font-family="Times,serif" font-size="14.00">Descend</text>
</g>
<!-- bdb99861&#45;f336&#45;449f&#45;b71b&#45;d97ec715473b -->
<g id="node2" class="node">
<title>bdb99861&#45;f336&#45;449f&#45;b71b&#45;d97ec715473b</title>
<ellipse fill="none" stroke="black" cx="74.8" cy="-234" rx="47.1" ry="18"/>
<text text-anchor="middle" x="74.8" y="-230.3" font-family="Times,serif" font-size="14.00">DelayAction</text>
</g>
<!-- dd876e57&#45;7f83&#45;4c8e&#45;a8e0&#45;52dc49aa04e2&#45;&gt;bdb99861&#45;f336&#45;449f&#45;b71b&#45;d97ec715473b -->
<g id="edge1" class="edge">
<title>dd876e57&#45;7f83&#45;4c8e&#45;a8e0&#45;52dc49aa04e2&#45;&gt;bdb99861&#45;f336&#45;449f&#45;b71b&#45;d97ec715473b</title>
<path fill="none" stroke="black" d="M74.8,-287.7C74.8,-279.98 74.8,-270.71 74.8,-262.11"/>
<polygon fill="black" stroke="black" points="78.3,-262.1 74.8,-252.1 71.3,-262.1 78.3,-262.1"/>
</g>
<!-- 56f597fe&#45;31d9&#45;4de4&#45;ac1c&#45;8faf55b520b8 -->
<g id="node3" class="node">
<title>56f597fe&#45;31d9&#45;4de4&#45;ac1c&#45;8faf55b520b8</title>
<ellipse fill="none" stroke="black" cx="74.8" cy="-162" rx="74.61" ry="18"/>
<text text-anchor="middle" x="74.8" y="-158.3" font-family="Times,serif" font-size="14.00">StraightMovement</text>
</g>
<!-- bdb99861&#45;f336&#45;449f&#45;b71b&#45;d97ec715473b&#45;&gt;56f597fe&#45;31d9&#45;4de4&#45;ac1c&#45;8faf55b520b8 -->
<g id="edge4" class="edge">
<title>bdb99861&#45;f336&#45;449f&#45;b71b&#45;d97ec715473b&#45;&gt;56f597fe&#45;31d9&#45;4de4&#45;ac1c&#45;8faf55b520b8</title>
<path fill="none" stroke="black" d="M74.8,-215.7C74.8,-207.98 74.8,-198.71 74.8,-190.11"/>
<polygon fill="black" stroke="black" points="78.3,-190.1 74.8,-180.1 71.3,-190.1 78.3,-190.1"/>
</g>
<!-- b3cbf4aa&#45;9ca6&#45;41da&#45;bd7c&#45;15cec7476b16 -->
<g id="node4" class="node">
<title>b3cbf4aa&#45;9ca6&#45;41da&#45;bd7c&#45;15cec7476b16</title>
<ellipse fill="none" stroke="black" cx="74.8" cy="-90" rx="47.1" ry="18"/>
<text text-anchor="middle" x="74.8" y="-86.3" font-family="Times,serif" font-size="14.00">DelayAction</text>
</g>
<!-- 56f597fe&#45;31d9&#45;4de4&#45;ac1c&#45;8faf55b520b8&#45;&gt;b3cbf4aa&#45;9ca6&#45;41da&#45;bd7c&#45;15cec7476b16 -->
<g id="edge2" class="edge">
<title>56f597fe&#45;31d9&#45;4de4&#45;ac1c&#45;8faf55b520b8&#45;&gt;b3cbf4aa&#45;9ca6&#45;41da&#45;bd7c&#45;15cec7476b16</title>
<path fill="none" stroke="black" d="M74.8,-143.7C74.8,-135.98 74.8,-126.71 74.8,-118.11"/>
<polygon fill="black" stroke="black" points="78.3,-118.1 74.8,-108.1 71.3,-118.1 78.3,-118.1"/>
</g>
<!-- 7eb03d83&#45;f878&#45;43d3&#45;99fa&#45;9267a92083e4 -->
<g id="node5" class="node">
<title>7eb03d83&#45;f878&#45;43d3&#45;99fa&#45;9267a92083e4</title>
<ellipse fill="none" stroke="black" cx="74.8" cy="-18" rx="59.9" ry="18"/>
<text text-anchor="middle" x="74.8" y="-14.3" font-family="Times,serif" font-size="14.00">ZeroMovement</text>
</g>
<!-- b3cbf4aa&#45;9ca6&#45;41da&#45;bd7c&#45;15cec7476b16&#45;&gt;7eb03d83&#45;f878&#45;43d3&#45;99fa&#45;9267a92083e4 -->
<g id="edge3" class="edge">
<title>b3cbf4aa&#45;9ca6&#45;41da&#45;bd7c&#45;15cec7476b16&#45;&gt;7eb03d83&#45;f878&#45;43d3&#45;99fa&#45;9267a92083e4</title>
<path fill="none" stroke="black" d="M74.8,-71.7C74.8,-63.98 74.8,-54.71 74.8,-46.11"/>
<polygon fill="black" stroke="black" points="78.3,-46.1 74.8,-36.1 71.3,-46.1 78.3,-46.1"/>
</g>
<!-- fda4fd15&#45;a605&#45;41b2&#45;875f&#45;562524932438 -->
<g id="node6" class="node">
<title>fda4fd15&#45;a605&#45;41b2&#45;875f&#45;562524932438</title>
<ellipse fill="none" stroke="black" cx="74.8" cy="-378" rx="34.8" ry="18"/>
<text text-anchor="middle" x="74.8" y="-374.3" font-family="Times,serif" font-size="14.00">WaitArm</text>
</g>
<!-- fda4fd15&#45;a605&#45;41b2&#45;875f&#45;562524932438&#45;&gt;dd876e57&#45;7f83&#45;4c8e&#45;a8e0&#45;52dc49aa04e2 -->
<g id="edge5" class="edge">
<title>fda4fd15&#45;a605&#45;41b2&#45;875f&#45;562524932438&#45;&gt;dd876e57&#45;7f83&#45;4c8e&#45;a8e0&#45;52dc49aa04e2</title>
<path fill="none" stroke="black" d="M74.8,-359.7C74.8,-351.98 74.8,-342.71 74.8,-334.11"/>
<polygon fill="black" stroke="black" points="78.3,-334.1 74.8,-324.1 71.3,-334.1 78.3,-334.1"/>
</g>
</g>
</svg>
