<?xml version="1.0" encoding="UTF-8" standalone="no"?>
<!DOCTYPE svg PUBLIC "-//W3C//DTD SVG 1.1//EN"
 "http://www.w3.org/Graphics/SVG/1.1/DTD/svg11.dtd">
<!-- Generated by graphviz version 2.43.0 (0)
 -->
<!-- Title: G Pages: 1 -->
<svg width="158pt" height="404pt"
 viewBox="0.00 0.00 157.61 404.00" xmlns="http://www.w3.org/2000/svg" xmlns:xlink="http://www.w3.org/1999/xlink">
<g id="graph0" class="graph" transform="scale(1 1) rotate(0) translate(4 400)">
<title>G</title>
<polygon fill="transparent" stroke="transparent" points="-4,4 -4,-400 153.61,-400 153.61,4 -4,4"/>
<!-- dd4b19be&#45;d306&#45;4286&#45;b568&#45;c5f822d0a265 -->
<g id="node1" class="node">
<title>dd4b19be&#45;d306&#45;4286&#45;b568&#45;c5f822d0a265</title>
<ellipse fill="none" stroke="black" cx="74.8" cy="-306" rx="33.6" ry="18"/>
<text text-anchor="middle" x="74.8" y="-302.3" font-family="Times,serif" font-size="14.00">Descend</text>
</g>
<!-- 416cab4e&#45;e4ed&#45;46d2&#45;a082&#45;6c3f5be7cd26 -->
<g id="node2" class="node">
<title>416cab4e&#45;e4ed&#45;46d2&#45;a082&#45;6c3f5be7cd26</title>
<ellipse fill="none" stroke="black" cx="74.8" cy="-234" rx="47.1" ry="18"/>
<text text-anchor="middle" x="74.8" y="-230.3" font-family="Times,serif" font-size="14.00">DelayAction</text>
</g>
<!-- dd4b19be&#45;d306&#45;4286&#45;b568&#45;c5f822d0a265&#45;&gt;416cab4e&#45;e4ed&#45;46d2&#45;a082&#45;6c3f5be7cd26 -->
<g id="edge1" class="edge">
<title>dd4b19be&#45;d306&#45;4286&#45;b568&#45;c5f822d0a265&#45;&gt;416cab4e&#45;e4ed&#45;46d2&#45;a082&#45;6c3f5be7cd26</title>
<path fill="none" stroke="black" d="M74.8,-287.7C74.8,-279.98 74.8,-270.71 74.8,-262.11"/>
<polygon fill="black" stroke="black" points="78.3,-262.1 74.8,-252.1 71.3,-262.1 78.3,-262.1"/>
</g>
<!-- 2193dd2f&#45;d68a&#45;419a&#45;8418&#45;28b9d1b61006 -->
<g id="node3" class="node">
<title>2193dd2f&#45;d68a&#45;419a&#45;8418&#45;28b9d1b61006</title>
<ellipse fill="none" stroke="black" cx="74.8" cy="-162" rx="74.61" ry="18"/>
<text text-anchor="middle" x="74.8" y="-158.3" font-family="Times,serif" font-size="14.00">StraightMovement</text>
</g>
<!-- 416cab4e&#45;e4ed&#45;46d2&#45;a082&#45;6c3f5be7cd26&#45;&gt;2193dd2f&#45;d68a&#45;419a&#45;8418&#45;28b9d1b61006 -->
<g id="edge4" class="edge">
<title>416cab4e&#45;e4ed&#45;46d2&#45;a082&#45;6c3f5be7cd26&#45;&gt;2193dd2f&#45;d68a&#45;419a&#45;8418&#45;28b9d1b61006</title>
<path fill="none" stroke="black" d="M74.8,-215.7C74.8,-207.98 74.8,-198.71 74.8,-190.11"/>
<polygon fill="black" stroke="black" points="78.3,-190.1 74.8,-180.1 71.3,-190.1 78.3,-190.1"/>
</g>
<!-- 074f2223&#45;f9fe&#45;4d03&#45;9ee8&#45;2d4caae50636 -->
<g id="node4" class="node">
<title>074f2223&#45;f9fe&#45;4d03&#45;9ee8&#45;2d4caae50636</title>
<ellipse fill="none" stroke="black" cx="74.8" cy="-90" rx="47.1" ry="18"/>
<text text-anchor="middle" x="74.8" y="-86.3" font-family="Times,serif" font-size="14.00">DelayAction</text>
</g>
<!-- 2193dd2f&#45;d68a&#45;419a&#45;8418&#45;28b9d1b61006&#45;&gt;074f2223&#45;f9fe&#45;4d03&#45;9ee8&#45;2d4caae50636 -->
<g id="edge2" class="edge">
<title>2193dd2f&#45;d68a&#45;419a&#45;8418&#45;28b9d1b61006&#45;&gt;074f2223&#45;f9fe&#45;4d03&#45;9ee8&#45;2d4caae50636</title>
<path fill="none" stroke="black" d="M74.8,-143.7C74.8,-135.98 74.8,-126.71 74.8,-118.11"/>
<polygon fill="black" stroke="black" points="78.3,-118.1 74.8,-108.1 71.3,-118.1 78.3,-118.1"/>
</g>
<!-- acef3665&#45;f3a8&#45;400b&#45;8e9b&#45;732cf151b373 -->
<g id="node5" class="node">
<title>acef3665&#45;f3a8&#45;400b&#45;8e9b&#45;732cf151b373</title>
<ellipse fill="none" stroke="black" cx="74.8" cy="-18" rx="59.9" ry="18"/>
<text text-anchor="middle" x="74.8" y="-14.3" font-family="Times,serif" font-size="14.00">ZeroMovement</text>
</g>
<!-- 074f2223&#45;f9fe&#45;4d03&#45;9ee8&#45;2d4caae50636&#45;&gt;acef3665&#45;f3a8&#45;400b&#45;8e9b&#45;732cf151b373 -->
<g id="edge3" class="edge">
<title>074f2223&#45;f9fe&#45;4d03&#45;9ee8&#45;2d4caae50636&#45;&gt;acef3665&#45;f3a8&#45;400b&#45;8e9b&#45;732cf151b373</title>
<path fill="none" stroke="black" d="M74.8,-71.7C74.8,-63.98 74.8,-54.71 74.8,-46.11"/>
<polygon fill="black" stroke="black" points="78.3,-46.1 74.8,-36.1 71.3,-46.1 78.3,-46.1"/>
</g>
<!-- ee04f322&#45;51b4&#45;41a7&#45;b021&#45;41b7be48b240 -->
<g id="node6" class="node">
<title>ee04f322&#45;51b4&#45;41a7&#45;b021&#45;41b7be48b240</title>
<ellipse fill="none" stroke="black" cx="74.8" cy="-378" rx="34.8" ry="18"/>
<text text-anchor="middle" x="74.8" y="-374.3" font-family="Times,serif" font-size="14.00">WaitArm</text>
</g>
<!-- ee04f322&#45;51b4&#45;41a7&#45;b021&#45;41b7be48b240&#45;&gt;dd4b19be&#45;d306&#45;4286&#45;b568&#45;c5f822d0a265 -->
<g id="edge5" class="edge">
<title>ee04f322&#45;51b4&#45;41a7&#45;b021&#45;41b7be48b240&#45;&gt;dd4b19be&#45;d306&#45;4286&#45;b568&#45;c5f822d0a265</title>
<path fill="none" stroke="black" d="M74.8,-359.7C74.8,-351.98 74.8,-342.71 74.8,-334.11"/>
<polygon fill="black" stroke="black" points="78.3,-334.1 74.8,-324.1 71.3,-334.1 78.3,-334.1"/>
</g>
</g>
</svg>
