<?xml version="1.0" encoding="UTF-8" standalone="no"?>
<!DOCTYPE svg PUBLIC "-//W3C//DTD SVG 1.1//EN"
 "http://www.w3.org/Graphics/SVG/1.1/DTD/svg11.dtd">
<!-- Generated by graphviz version 2.43.0 (0)
 -->
<!-- Title: G Pages: 1 -->
<svg width="158pt" height="404pt"
 viewBox="0.00 0.00 157.61 404.00" xmlns="http://www.w3.org/2000/svg" xmlns:xlink="http://www.w3.org/1999/xlink">
<g id="graph0" class="graph" transform="scale(1 1) rotate(0) translate(4 400)">
<title>G</title>
<polygon fill="transparent" stroke="transparent" points="-4,4 -4,-400 153.61,-400 153.61,4 -4,4"/>
<!-- ed697974&#45;6226&#45;4afe&#45;b3a5&#45;f0cccc2315a6 -->
<g id="node1" class="node">
<title>ed697974&#45;6226&#45;4afe&#45;b3a5&#45;f0cccc2315a6</title>
<ellipse fill="none" stroke="black" cx="74.8" cy="-306" rx="33.6" ry="18"/>
<text text-anchor="middle" x="74.8" y="-302.3" font-family="Times,serif" font-size="14.00">Descend</text>
</g>
<!-- e5060323&#45;162d&#45;47c5&#45;900d&#45;c1c309af1d79 -->
<g id="node2" class="node">
<title>e5060323&#45;162d&#45;47c5&#45;900d&#45;c1c309af1d79</title>
<ellipse fill="none" stroke="black" cx="74.8" cy="-234" rx="47.1" ry="18"/>
<text text-anchor="middle" x="74.8" y="-230.3" font-family="Times,serif" font-size="14.00">DelayAction</text>
</g>
<!-- ed697974&#45;6226&#45;4afe&#45;b3a5&#45;f0cccc2315a6&#45;&gt;e5060323&#45;162d&#45;47c5&#45;900d&#45;c1c309af1d79 -->
<g id="edge1" class="edge">
<title>ed697974&#45;6226&#45;4afe&#45;b3a5&#45;f0cccc2315a6&#45;&gt;e5060323&#45;162d&#45;47c5&#45;900d&#45;c1c309af1d79</title>
<path fill="none" stroke="black" d="M74.8,-287.7C74.8,-279.98 74.8,-270.71 74.8,-262.11"/>
<polygon fill="black" stroke="black" points="78.3,-262.1 74.8,-252.1 71.3,-262.1 78.3,-262.1"/>
</g>
<!-- 67334dd1&#45;3ed2&#45;496d&#45;9a3e&#45;2ca504cb6f1b -->
<g id="node3" class="node">
<title>67334dd1&#45;3ed2&#45;496d&#45;9a3e&#45;2ca504cb6f1b</title>
<ellipse fill="none" stroke="black" cx="74.8" cy="-162" rx="74.61" ry="18"/>
<text text-anchor="middle" x="74.8" y="-158.3" font-family="Times,serif" font-size="14.00">StraightMovement</text>
</g>
<!-- e5060323&#45;162d&#45;47c5&#45;900d&#45;c1c309af1d79&#45;&gt;67334dd1&#45;3ed2&#45;496d&#45;9a3e&#45;2ca504cb6f1b -->
<g id="edge4" class="edge">
<title>e5060323&#45;162d&#45;47c5&#45;900d&#45;c1c309af1d79&#45;&gt;67334dd1&#45;3ed2&#45;496d&#45;9a3e&#45;2ca504cb6f1b</title>
<path fill="none" stroke="black" d="M74.8,-215.7C74.8,-207.98 74.8,-198.71 74.8,-190.11"/>
<polygon fill="black" stroke="black" points="78.3,-190.1 74.8,-180.1 71.3,-190.1 78.3,-190.1"/>
</g>
<!-- 0b2fb7a3&#45;7603&#45;43a9&#45;8df4&#45;1b9c93ddd759 -->
<g id="node4" class="node">
<title>0b2fb7a3&#45;7603&#45;43a9&#45;8df4&#45;1b9c93ddd759</title>
<ellipse fill="none" stroke="black" cx="74.8" cy="-90" rx="47.1" ry="18"/>
<text text-anchor="middle" x="74.8" y="-86.3" font-family="Times,serif" font-size="14.00">DelayAction</text>
</g>
<!-- 67334dd1&#45;3ed2&#45;496d&#45;9a3e&#45;2ca504cb6f1b&#45;&gt;0b2fb7a3&#45;7603&#45;43a9&#45;8df4&#45;1b9c93ddd759 -->
<g id="edge2" class="edge">
<title>67334dd1&#45;3ed2&#45;496d&#45;9a3e&#45;2ca504cb6f1b&#45;&gt;0b2fb7a3&#45;7603&#45;43a9&#45;8df4&#45;1b9c93ddd759</title>
<path fill="none" stroke="black" d="M74.8,-143.7C74.8,-135.98 74.8,-126.71 74.8,-118.11"/>
<polygon fill="black" stroke="black" points="78.3,-118.1 74.8,-108.1 71.3,-118.1 78.3,-118.1"/>
</g>
<!-- fb20ccd7&#45;ddf7&#45;4a70&#45;a193&#45;5ac32df09b90 -->
<g id="node5" class="node">
<title>fb20ccd7&#45;ddf7&#45;4a70&#45;a193&#45;5ac32df09b90</title>
<ellipse fill="none" stroke="black" cx="74.8" cy="-18" rx="59.9" ry="18"/>
<text text-anchor="middle" x="74.8" y="-14.3" font-family="Times,serif" font-size="14.00">ZeroMovement</text>
</g>
<!-- 0b2fb7a3&#45;7603&#45;43a9&#45;8df4&#45;1b9c93ddd759&#45;&gt;fb20ccd7&#45;ddf7&#45;4a70&#45;a193&#45;5ac32df09b90 -->
<g id="edge3" class="edge">
<title>0b2fb7a3&#45;7603&#45;43a9&#45;8df4&#45;1b9c93ddd759&#45;&gt;fb20ccd7&#45;ddf7&#45;4a70&#45;a193&#45;5ac32df09b90</title>
<path fill="none" stroke="black" d="M74.8,-71.7C74.8,-63.98 74.8,-54.71 74.8,-46.11"/>
<polygon fill="black" stroke="black" points="78.3,-46.1 74.8,-36.1 71.3,-46.1 78.3,-46.1"/>
</g>
<!-- ae3ded41&#45;d2d0&#45;4e23&#45;8312&#45;18f126bb3fd8 -->
<g id="node6" class="node">
<title>ae3ded41&#45;d2d0&#45;4e23&#45;8312&#45;18f126bb3fd8</title>
<ellipse fill="none" stroke="black" cx="74.8" cy="-378" rx="34.8" ry="18"/>
<text text-anchor="middle" x="74.8" y="-374.3" font-family="Times,serif" font-size="14.00">WaitArm</text>
</g>
<!-- ae3ded41&#45;d2d0&#45;4e23&#45;8312&#45;18f126bb3fd8&#45;&gt;ed697974&#45;6226&#45;4afe&#45;b3a5&#45;f0cccc2315a6 -->
<g id="edge5" class="edge">
<title>ae3ded41&#45;d2d0&#45;4e23&#45;8312&#45;18f126bb3fd8&#45;&gt;ed697974&#45;6226&#45;4afe&#45;b3a5&#45;f0cccc2315a6</title>
<path fill="none" stroke="black" d="M74.8,-359.7C74.8,-351.98 74.8,-342.71 74.8,-334.11"/>
<polygon fill="black" stroke="black" points="78.3,-334.1 74.8,-324.1 71.3,-334.1 78.3,-334.1"/>
</g>
</g>
</svg>
