<?xml version="1.0" encoding="UTF-8" standalone="no"?>
<!DOCTYPE svg PUBLIC "-//W3C//DTD SVG 1.1//EN"
 "http://www.w3.org/Graphics/SVG/1.1/DTD/svg11.dtd">
<!-- Generated by graphviz version 2.43.0 (0)
 -->
<!-- Title: G Pages: 1 -->
<svg width="158pt" height="404pt"
 viewBox="0.00 0.00 157.61 404.00" xmlns="http://www.w3.org/2000/svg" xmlns:xlink="http://www.w3.org/1999/xlink">
<g id="graph0" class="graph" transform="scale(1 1) rotate(0) translate(4 400)">
<title>G</title>
<polygon fill="transparent" stroke="transparent" points="-4,4 -4,-400 153.61,-400 153.61,4 -4,4"/>
<!-- 35f0ef15&#45;60c6&#45;4d77&#45;9ed9&#45;cf308dce60a3 -->
<g id="node1" class="node">
<title>35f0ef15&#45;60c6&#45;4d77&#45;9ed9&#45;cf308dce60a3</title>
<ellipse fill="none" stroke="black" cx="74.8" cy="-306" rx="33.6" ry="18"/>
<text text-anchor="middle" x="74.8" y="-302.3" font-family="Times,serif" font-size="14.00">Descend</text>
</g>
<!-- efdcb054&#45;58ae&#45;404f&#45;9699&#45;2fbc4cbfb8a1 -->
<g id="node2" class="node">
<title>efdcb054&#45;58ae&#45;404f&#45;9699&#45;2fbc4cbfb8a1</title>
<ellipse fill="none" stroke="black" cx="74.8" cy="-234" rx="47.1" ry="18"/>
<text text-anchor="middle" x="74.8" y="-230.3" font-family="Times,serif" font-size="14.00">DelayAction</text>
</g>
<!-- 35f0ef15&#45;60c6&#45;4d77&#45;9ed9&#45;cf308dce60a3&#45;&gt;efdcb054&#45;58ae&#45;404f&#45;9699&#45;2fbc4cbfb8a1 -->
<g id="edge1" class="edge">
<title>35f0ef15&#45;60c6&#45;4d77&#45;9ed9&#45;cf308dce60a3&#45;&gt;efdcb054&#45;58ae&#45;404f&#45;9699&#45;2fbc4cbfb8a1</title>
<path fill="none" stroke="black" d="M74.8,-287.7C74.8,-279.98 74.8,-270.71 74.8,-262.11"/>
<polygon fill="black" stroke="black" points="78.3,-262.1 74.8,-252.1 71.3,-262.1 78.3,-262.1"/>
</g>
<!-- d05be245&#45;d8bf&#45;4570&#45;b955&#45;baf61ba1bc9c -->
<g id="node3" class="node">
<title>d05be245&#45;d8bf&#45;4570&#45;b955&#45;baf61ba1bc9c</title>
<ellipse fill="none" stroke="black" cx="74.8" cy="-162" rx="74.61" ry="18"/>
<text text-anchor="middle" x="74.8" y="-158.3" font-family="Times,serif" font-size="14.00">StraightMovement</text>
</g>
<!-- efdcb054&#45;58ae&#45;404f&#45;9699&#45;2fbc4cbfb8a1&#45;&gt;d05be245&#45;d8bf&#45;4570&#45;b955&#45;baf61ba1bc9c -->
<g id="edge4" class="edge">
<title>efdcb054&#45;58ae&#45;404f&#45;9699&#45;2fbc4cbfb8a1&#45;&gt;d05be245&#45;d8bf&#45;4570&#45;b955&#45;baf61ba1bc9c</title>
<path fill="none" stroke="black" d="M74.8,-215.7C74.8,-207.98 74.8,-198.71 74.8,-190.11"/>
<polygon fill="black" stroke="black" points="78.3,-190.1 74.8,-180.1 71.3,-190.1 78.3,-190.1"/>
</g>
<!-- 097e5962&#45;143a&#45;4319&#45;a808&#45;172d7cac810a -->
<g id="node4" class="node">
<title>097e5962&#45;143a&#45;4319&#45;a808&#45;172d7cac810a</title>
<ellipse fill="none" stroke="black" cx="74.8" cy="-90" rx="47.1" ry="18"/>
<text text-anchor="middle" x="74.8" y="-86.3" font-family="Times,serif" font-size="14.00">DelayAction</text>
</g>
<!-- d05be245&#45;d8bf&#45;4570&#45;b955&#45;baf61ba1bc9c&#45;&gt;097e5962&#45;143a&#45;4319&#45;a808&#45;172d7cac810a -->
<g id="edge2" class="edge">
<title>d05be245&#45;d8bf&#45;4570&#45;b955&#45;baf61ba1bc9c&#45;&gt;097e5962&#45;143a&#45;4319&#45;a808&#45;172d7cac810a</title>
<path fill="none" stroke="black" d="M74.8,-143.7C74.8,-135.98 74.8,-126.71 74.8,-118.11"/>
<polygon fill="black" stroke="black" points="78.3,-118.1 74.8,-108.1 71.3,-118.1 78.3,-118.1"/>
</g>
<!-- 8e9cbd7e&#45;0f8f&#45;466f&#45;8997&#45;5b6f5c130fb1 -->
<g id="node5" class="node">
<title>8e9cbd7e&#45;0f8f&#45;466f&#45;8997&#45;5b6f5c130fb1</title>
<ellipse fill="none" stroke="black" cx="74.8" cy="-18" rx="59.9" ry="18"/>
<text text-anchor="middle" x="74.8" y="-14.3" font-family="Times,serif" font-size="14.00">ZeroMovement</text>
</g>
<!-- 097e5962&#45;143a&#45;4319&#45;a808&#45;172d7cac810a&#45;&gt;8e9cbd7e&#45;0f8f&#45;466f&#45;8997&#45;5b6f5c130fb1 -->
<g id="edge3" class="edge">
<title>097e5962&#45;143a&#45;4319&#45;a808&#45;172d7cac810a&#45;&gt;8e9cbd7e&#45;0f8f&#45;466f&#45;8997&#45;5b6f5c130fb1</title>
<path fill="none" stroke="black" d="M74.8,-71.7C74.8,-63.98 74.8,-54.71 74.8,-46.11"/>
<polygon fill="black" stroke="black" points="78.3,-46.1 74.8,-36.1 71.3,-46.1 78.3,-46.1"/>
</g>
<!-- 745be42e&#45;4ce0&#45;478e&#45;8f01&#45;9664e06ab65a -->
<g id="node6" class="node">
<title>745be42e&#45;4ce0&#45;478e&#45;8f01&#45;9664e06ab65a</title>
<ellipse fill="none" stroke="black" cx="74.8" cy="-378" rx="34.8" ry="18"/>
<text text-anchor="middle" x="74.8" y="-374.3" font-family="Times,serif" font-size="14.00">WaitArm</text>
</g>
<!-- 745be42e&#45;4ce0&#45;478e&#45;8f01&#45;9664e06ab65a&#45;&gt;35f0ef15&#45;60c6&#45;4d77&#45;9ed9&#45;cf308dce60a3 -->
<g id="edge5" class="edge">
<title>745be42e&#45;4ce0&#45;478e&#45;8f01&#45;9664e06ab65a&#45;&gt;35f0ef15&#45;60c6&#45;4d77&#45;9ed9&#45;cf308dce60a3</title>
<path fill="none" stroke="black" d="M74.8,-359.7C74.8,-351.98 74.8,-342.71 74.8,-334.11"/>
<polygon fill="black" stroke="black" points="78.3,-334.1 74.8,-324.1 71.3,-334.1 78.3,-334.1"/>
</g>
</g>
</svg>
