<?xml version="1.0" encoding="UTF-8" standalone="no"?>
<!DOCTYPE svg PUBLIC "-//W3C//DTD SVG 1.1//EN"
 "http://www.w3.org/Graphics/SVG/1.1/DTD/svg11.dtd">
<!-- Generated by graphviz version 2.43.0 (0)
 -->
<!-- Title: G Pages: 1 -->
<svg width="158pt" height="404pt"
 viewBox="0.00 0.00 157.61 404.00" xmlns="http://www.w3.org/2000/svg" xmlns:xlink="http://www.w3.org/1999/xlink">
<g id="graph0" class="graph" transform="scale(1 1) rotate(0) translate(4 400)">
<title>G</title>
<polygon fill="transparent" stroke="transparent" points="-4,4 -4,-400 153.61,-400 153.61,4 -4,4"/>
<!-- 02e1c1ad&#45;e175&#45;42f4&#45;9dd0&#45;cbd7c93e82c6 -->
<g id="node1" class="node">
<title>02e1c1ad&#45;e175&#45;42f4&#45;9dd0&#45;cbd7c93e82c6</title>
<ellipse fill="none" stroke="black" cx="74.8" cy="-306" rx="33.6" ry="18"/>
<text text-anchor="middle" x="74.8" y="-302.3" font-family="Times,serif" font-size="14.00">Descend</text>
</g>
<!-- 857774e1&#45;bb01&#45;43f5&#45;afcd&#45;97ce4b535510 -->
<g id="node2" class="node">
<title>857774e1&#45;bb01&#45;43f5&#45;afcd&#45;97ce4b535510</title>
<ellipse fill="none" stroke="black" cx="74.8" cy="-234" rx="47.1" ry="18"/>
<text text-anchor="middle" x="74.8" y="-230.3" font-family="Times,serif" font-size="14.00">DelayAction</text>
</g>
<!-- 02e1c1ad&#45;e175&#45;42f4&#45;9dd0&#45;cbd7c93e82c6&#45;&gt;857774e1&#45;bb01&#45;43f5&#45;afcd&#45;97ce4b535510 -->
<g id="edge1" class="edge">
<title>02e1c1ad&#45;e175&#45;42f4&#45;9dd0&#45;cbd7c93e82c6&#45;&gt;857774e1&#45;bb01&#45;43f5&#45;afcd&#45;97ce4b535510</title>
<path fill="none" stroke="black" d="M74.8,-287.7C74.8,-279.98 74.8,-270.71 74.8,-262.11"/>
<polygon fill="black" stroke="black" points="78.3,-262.1 74.8,-252.1 71.3,-262.1 78.3,-262.1"/>
</g>
<!-- afaedafa&#45;761f&#45;4093&#45;9e98&#45;18972a04f339 -->
<g id="node3" class="node">
<title>afaedafa&#45;761f&#45;4093&#45;9e98&#45;18972a04f339</title>
<ellipse fill="none" stroke="black" cx="74.8" cy="-162" rx="74.61" ry="18"/>
<text text-anchor="middle" x="74.8" y="-158.3" font-family="Times,serif" font-size="14.00">StraightMovement</text>
</g>
<!-- 857774e1&#45;bb01&#45;43f5&#45;afcd&#45;97ce4b535510&#45;&gt;afaedafa&#45;761f&#45;4093&#45;9e98&#45;18972a04f339 -->
<g id="edge4" class="edge">
<title>857774e1&#45;bb01&#45;43f5&#45;afcd&#45;97ce4b535510&#45;&gt;afaedafa&#45;761f&#45;4093&#45;9e98&#45;18972a04f339</title>
<path fill="none" stroke="black" d="M74.8,-215.7C74.8,-207.98 74.8,-198.71 74.8,-190.11"/>
<polygon fill="black" stroke="black" points="78.3,-190.1 74.8,-180.1 71.3,-190.1 78.3,-190.1"/>
</g>
<!-- 809bd492&#45;d7b0&#45;429d&#45;aacc&#45;aebc25add6c1 -->
<g id="node4" class="node">
<title>809bd492&#45;d7b0&#45;429d&#45;aacc&#45;aebc25add6c1</title>
<ellipse fill="none" stroke="black" cx="74.8" cy="-90" rx="47.1" ry="18"/>
<text text-anchor="middle" x="74.8" y="-86.3" font-family="Times,serif" font-size="14.00">DelayAction</text>
</g>
<!-- afaedafa&#45;761f&#45;4093&#45;9e98&#45;18972a04f339&#45;&gt;809bd492&#45;d7b0&#45;429d&#45;aacc&#45;aebc25add6c1 -->
<g id="edge2" class="edge">
<title>afaedafa&#45;761f&#45;4093&#45;9e98&#45;18972a04f339&#45;&gt;809bd492&#45;d7b0&#45;429d&#45;aacc&#45;aebc25add6c1</title>
<path fill="none" stroke="black" d="M74.8,-143.7C74.8,-135.98 74.8,-126.71 74.8,-118.11"/>
<polygon fill="black" stroke="black" points="78.3,-118.1 74.8,-108.1 71.3,-118.1 78.3,-118.1"/>
</g>
<!-- 69010378&#45;b8e9&#45;41e6&#45;97b9&#45;fa6e656c12c9 -->
<g id="node5" class="node">
<title>69010378&#45;b8e9&#45;41e6&#45;97b9&#45;fa6e656c12c9</title>
<ellipse fill="none" stroke="black" cx="74.8" cy="-18" rx="59.9" ry="18"/>
<text text-anchor="middle" x="74.8" y="-14.3" font-family="Times,serif" font-size="14.00">ZeroMovement</text>
</g>
<!-- 809bd492&#45;d7b0&#45;429d&#45;aacc&#45;aebc25add6c1&#45;&gt;69010378&#45;b8e9&#45;41e6&#45;97b9&#45;fa6e656c12c9 -->
<g id="edge3" class="edge">
<title>809bd492&#45;d7b0&#45;429d&#45;aacc&#45;aebc25add6c1&#45;&gt;69010378&#45;b8e9&#45;41e6&#45;97b9&#45;fa6e656c12c9</title>
<path fill="none" stroke="black" d="M74.8,-71.7C74.8,-63.98 74.8,-54.71 74.8,-46.11"/>
<polygon fill="black" stroke="black" points="78.3,-46.1 74.8,-36.1 71.3,-46.1 78.3,-46.1"/>
</g>
<!-- 3c03df7d&#45;6917&#45;4091&#45;b8fb&#45;7ff98b08892b -->
<g id="node6" class="node">
<title>3c03df7d&#45;6917&#45;4091&#45;b8fb&#45;7ff98b08892b</title>
<ellipse fill="none" stroke="black" cx="74.8" cy="-378" rx="34.8" ry="18"/>
<text text-anchor="middle" x="74.8" y="-374.3" font-family="Times,serif" font-size="14.00">WaitArm</text>
</g>
<!-- 3c03df7d&#45;6917&#45;4091&#45;b8fb&#45;7ff98b08892b&#45;&gt;02e1c1ad&#45;e175&#45;42f4&#45;9dd0&#45;cbd7c93e82c6 -->
<g id="edge5" class="edge">
<title>3c03df7d&#45;6917&#45;4091&#45;b8fb&#45;7ff98b08892b&#45;&gt;02e1c1ad&#45;e175&#45;42f4&#45;9dd0&#45;cbd7c93e82c6</title>
<path fill="none" stroke="black" d="M74.8,-359.7C74.8,-351.98 74.8,-342.71 74.8,-334.11"/>
<polygon fill="black" stroke="black" points="78.3,-334.1 74.8,-324.1 71.3,-334.1 78.3,-334.1"/>
</g>
</g>
</svg>
