<?xml version="1.0" encoding="UTF-8" standalone="no"?>
<!DOCTYPE svg PUBLIC "-//W3C//DTD SVG 1.1//EN"
 "http://www.w3.org/Graphics/SVG/1.1/DTD/svg11.dtd">
<!-- Generated by graphviz version 2.43.0 (0)
 -->
<!-- Title: G Pages: 1 -->
<svg width="336pt" height="728pt"
 viewBox="0.00 0.00 336.00 728.00" xmlns="http://www.w3.org/2000/svg" xmlns:xlink="http://www.w3.org/1999/xlink">
<g id="graph0" class="graph" transform="scale(1 1) rotate(0) translate(4 724)">
<title>G</title>
<polygon fill="transparent" stroke="transparent" points="-4,4 -4,-724 332,-724 332,4 -4,4"/>
<g id="clust1" class="cluster">
<title>cluster_e0091985&#45;ea5e&#45;41c5&#45;aa57&#45;dbda583c6c46</title>
<polygon fill="transparent" stroke="blue" stroke-dasharray="5,2" points="8,-8 8,-568 320,-568 320,-8 8,-8"/>
</g>
<!-- d944b532&#45;dff6&#45;4ad0&#45;8282&#45;315233c41201 -->
<g id="node1" class="node">
<title>d944b532&#45;dff6&#45;4ad0&#45;8282&#45;315233c41201</title>
<ellipse fill="none" stroke="black" cx="95" cy="-121" rx="67.81" ry="18"/>
<text text-anchor="middle" x="95" y="-117.3" font-family="Times,serif" font-size="14.00">LinearYawFromX</text>
</g>
<!-- 34d1661e&#45;8bd4&#45;40dd&#45;9ea8&#45;9f4da6bff7a0 -->
<g id="node2" class="node">
<title>34d1661e&#45;8bd4&#45;40dd&#45;9ea8&#45;9f4da6bff7a0</title>
<ellipse fill="none" stroke="black" cx="96" cy="-34" rx="80.11" ry="18"/>
<text text-anchor="middle" x="96" y="-30.3" font-family="Times,serif" font-size="14.00">Stability2Movement</text>
</g>
<!-- d944b532&#45;dff6&#45;4ad0&#45;8282&#45;315233c41201&#45;&gt;34d1661e&#45;8bd4&#45;40dd&#45;9ea8&#45;9f4da6bff7a0 -->
<g id="edge1" class="edge">
<title>d944b532&#45;dff6&#45;4ad0&#45;8282&#45;315233c41201&#45;&gt;34d1661e&#45;8bd4&#45;40dd&#45;9ea8&#45;9f4da6bff7a0</title>
<path fill="none" stroke="purple" d="M95.2,-102.8C95.34,-91.16 95.52,-75.55 95.68,-62.24"/>
<polygon fill="purple" stroke="purple" points="99.18,-62.22 95.8,-52.18 92.18,-62.13 99.18,-62.22"/>
<text text-anchor="middle" x="130.5" y="-73.8" font-family="Times,serif" font-size="14.00" fill="purple">Pass Data</text>
</g>
<!-- f3c4257b&#45;36db&#45;4622&#45;ab44&#45;77d026a1b2b8 -->
<g id="node3" class="node">
<title>f3c4257b&#45;36db&#45;4622&#45;ab44&#45;77d026a1b2b8</title>
<ellipse fill="none" stroke="black" cx="95" cy="-208" rx="51.3" ry="18"/>
<text text-anchor="middle" x="95" y="-204.3" font-family="Times,serif" font-size="14.00">OffsetToPose</text>
</g>
<!-- f3c4257b&#45;36db&#45;4622&#45;ab44&#45;77d026a1b2b8&#45;&gt;d944b532&#45;dff6&#45;4ad0&#45;8282&#45;315233c41201 -->
<g id="edge2" class="edge">
<title>f3c4257b&#45;36db&#45;4622&#45;ab44&#45;77d026a1b2b8&#45;&gt;d944b532&#45;dff6&#45;4ad0&#45;8282&#45;315233c41201</title>
<path fill="none" stroke="purple" d="M95,-189.8C95,-178.16 95,-162.55 95,-149.24"/>
<polygon fill="purple" stroke="purple" points="98.5,-149.18 95,-139.18 91.5,-149.18 98.5,-149.18"/>
<text text-anchor="middle" x="130.5" y="-160.8" font-family="Times,serif" font-size="14.00" fill="purple">Pass Data</text>
</g>
<!-- 63b7c0a1&#45;7fa3&#45;4557&#45;b6bf&#45;1e86e0fff148 -->
<g id="node4" class="node">
<title>63b7c0a1&#45;7fa3&#45;4557&#45;b6bf&#45;1e86e0fff148</title>
<ellipse fill="none" stroke="black" cx="94" cy="-295" rx="35.5" ry="18"/>
<text text-anchor="middle" x="94" y="-291.3" font-family="Times,serif" font-size="14.00">MidPoint</text>
</g>
<!-- 63b7c0a1&#45;7fa3&#45;4557&#45;b6bf&#45;1e86e0fff148&#45;&gt;f3c4257b&#45;36db&#45;4622&#45;ab44&#45;77d026a1b2b8 -->
<g id="edge3" class="edge">
<title>63b7c0a1&#45;7fa3&#45;4557&#45;b6bf&#45;1e86e0fff148&#45;&gt;f3c4257b&#45;36db&#45;4622&#45;ab44&#45;77d026a1b2b8</title>
<path fill="none" stroke="purple" d="M94.2,-276.8C94.34,-265.16 94.52,-249.55 94.68,-236.24"/>
<polygon fill="purple" stroke="purple" points="98.18,-236.22 94.8,-226.18 91.18,-236.13 98.18,-236.22"/>
<text text-anchor="middle" x="129.5" y="-247.8" font-family="Times,serif" font-size="14.00" fill="purple">Pass Data</text>
</g>
<!-- 58eac1b8&#45;0e4b&#45;46af&#45;9a6b&#45;5e5e0b1cc690 -->
<g id="node5" class="node">
<title>58eac1b8&#45;0e4b&#45;46af&#45;9a6b&#45;5e5e0b1cc690</title>
<ellipse fill="none" stroke="black" cx="92" cy="-382" rx="61.1" ry="18"/>
<text text-anchor="middle" x="92" y="-378.3" font-family="Times,serif" font-size="14.00">ExtractPosition</text>
</g>
<!-- 58eac1b8&#45;0e4b&#45;46af&#45;9a6b&#45;5e5e0b1cc690&#45;&gt;63b7c0a1&#45;7fa3&#45;4557&#45;b6bf&#45;1e86e0fff148 -->
<g id="edge4" class="edge">
<title>58eac1b8&#45;0e4b&#45;46af&#45;9a6b&#45;5e5e0b1cc690&#45;&gt;63b7c0a1&#45;7fa3&#45;4557&#45;b6bf&#45;1e86e0fff148</title>
<path fill="none" stroke="purple" d="M92.4,-363.8C92.68,-352.16 93.05,-336.55 93.36,-323.24"/>
<polygon fill="purple" stroke="purple" points="96.86,-323.26 93.6,-313.18 89.86,-323.09 96.86,-323.26"/>
<text text-anchor="middle" x="128.5" y="-334.8" font-family="Times,serif" font-size="14.00" fill="purple">Pass Data</text>
</g>
<!-- 1f89911d&#45;5fc7&#45;4640&#45;911c&#45;8ee748e1ea1e -->
<g id="node6" class="node">
<title>1f89911d&#45;5fc7&#45;4640&#45;911c&#45;8ee748e1ea1e</title>
<ellipse fill="none" stroke="black" cx="43" cy="-469" rx="27" ry="18"/>
<text text-anchor="middle" x="43" y="-465.3" font-family="Times,serif" font-size="14.00">ToVec</text>
</g>
<!-- 1f89911d&#45;5fc7&#45;4640&#45;911c&#45;8ee748e1ea1e&#45;&gt;58eac1b8&#45;0e4b&#45;46af&#45;9a6b&#45;5e5e0b1cc690 -->
<g id="edge5" class="edge">
<title>1f89911d&#45;5fc7&#45;4640&#45;911c&#45;8ee748e1ea1e&#45;&gt;58eac1b8&#45;0e4b&#45;46af&#45;9a6b&#45;5e5e0b1cc690</title>
<path fill="none" stroke="purple" d="M52.22,-452.01C59.27,-439.78 69.13,-422.68 77.27,-408.56"/>
<polygon fill="purple" stroke="purple" points="80.36,-410.2 82.32,-399.79 74.3,-406.7 80.36,-410.2"/>
<text text-anchor="middle" x="105.5" y="-421.8" font-family="Times,serif" font-size="14.00" fill="purple">Pass Data</text>
</g>
<!-- e62fb111&#45;26aa&#45;465c&#45;959a&#45;fd2e2cba5c41 -->
<g id="node7" class="node">
<title>e62fb111&#45;26aa&#45;465c&#45;959a&#45;fd2e2cba5c41</title>
<polygon fill="none" stroke="black" stroke-dasharray="5,2" points="195,-560 97,-560 97,-524 195,-524 195,-560"/>
<text text-anchor="middle" x="146" y="-538.3" font-family="Times,serif" font-size="14.00" fill="blue">Concurrent</text>
</g>
<!-- e62fb111&#45;26aa&#45;465c&#45;959a&#45;fd2e2cba5c41&#45;&gt;1f89911d&#45;5fc7&#45;4640&#45;911c&#45;8ee748e1ea1e -->
<g id="edge6" class="edge">
<title>e62fb111&#45;26aa&#45;465c&#45;959a&#45;fd2e2cba5c41&#45;&gt;1f89911d&#45;5fc7&#45;4640&#45;911c&#45;8ee748e1ea1e</title>
<path fill="none" stroke="black" d="M121.33,-523.99C105.66,-513.19 85.4,-499.23 69.41,-488.2"/>
<polygon fill="black" stroke="black" points="71.24,-485.21 61.02,-482.42 67.27,-490.98 71.24,-485.21"/>
</g>
<!-- 49eb919c&#45;ecbb&#45;42e6&#45;8065&#45;fdd47d3a0089 -->
<g id="node8" class="node">
<title>49eb919c&#45;ecbb&#45;42e6&#45;8065&#45;fdd47d3a0089</title>
<ellipse fill="none" stroke="black" cx="227" cy="-469" rx="85.01" ry="18"/>
<text text-anchor="middle" x="227" y="-465.3" font-family="Times,serif" font-size="14.00">Consecutive True &lt; 3</text>
</g>
<!-- e62fb111&#45;26aa&#45;465c&#45;959a&#45;fd2e2cba5c41&#45;&gt;49eb919c&#45;ecbb&#45;42e6&#45;8065&#45;fdd47d3a0089 -->
<g id="edge7" class="edge">
<title>e62fb111&#45;26aa&#45;465c&#45;959a&#45;fd2e2cba5c41&#45;&gt;49eb919c&#45;ecbb&#45;42e6&#45;8065&#45;fdd47d3a0089</title>
<path fill="none" stroke="black" d="M165.61,-523.81C176.03,-514.68 189,-503.31 200.32,-493.38"/>
<polygon fill="black" stroke="black" points="202.64,-496.01 207.85,-486.78 198.03,-490.74 202.64,-496.01"/>
</g>
<!-- 9386bdce&#45;46de&#45;4201&#45;96c4&#45;d7b674b243c3 -->
<g id="node9" class="node">
<title>9386bdce&#45;46de&#45;4201&#45;96c4&#45;d7b674b243c3</title>
<ellipse fill="none" stroke="black" cx="146" cy="-629" rx="75.21" ry="18"/>
<text text-anchor="middle" x="146" y="-625.3" font-family="Times,serif" font-size="14.00">VisionNormBottom</text>
</g>
<!-- 9386bdce&#45;46de&#45;4201&#45;96c4&#45;d7b674b243c3&#45;&gt;e62fb111&#45;26aa&#45;465c&#45;959a&#45;fd2e2cba5c41 -->
<g id="edge8" class="edge">
<title>9386bdce&#45;46de&#45;4201&#45;96c4&#45;d7b674b243c3&#45;&gt;e62fb111&#45;26aa&#45;465c&#45;959a&#45;fd2e2cba5c41</title>
<path fill="none" stroke="purple" d="M146,-610.8C146,-599.16 146,-583.55 146,-570.24"/>
<polygon fill="purple" stroke="purple" points="149.5,-570.18 146,-560.18 142.5,-570.18 149.5,-570.18"/>
<text text-anchor="middle" x="181.5" y="-581.8" font-family="Times,serif" font-size="14.00" fill="purple">Pass Data</text>
</g>
<!-- bd3c4e26&#45;9670&#45;4461&#45;a71a&#45;45faf5ede00a -->
<g id="node10" class="node">
<title>bd3c4e26&#45;9670&#45;4461&#45;a71a&#45;45faf5ede00a</title>
<ellipse fill="none" stroke="black" cx="146" cy="-702" rx="59.9" ry="18"/>
<text text-anchor="middle" x="146" y="-698.3" font-family="Times,serif" font-size="14.00">ZeroMovement</text>
</g>
<!-- bd3c4e26&#45;9670&#45;4461&#45;a71a&#45;45faf5ede00a&#45;&gt;9386bdce&#45;46de&#45;4201&#45;96c4&#45;d7b674b243c3 -->
<g id="edge9" class="edge">
<title>bd3c4e26&#45;9670&#45;4461&#45;a71a&#45;45faf5ede00a&#45;&gt;9386bdce&#45;46de&#45;4201&#45;96c4&#45;d7b674b243c3</title>
<path fill="none" stroke="black" d="M146,-683.81C146,-675.79 146,-666.05 146,-657.07"/>
<polygon fill="black" stroke="black" points="149.5,-657.03 146,-647.03 142.5,-657.03 149.5,-657.03"/>
</g>
</g>
</svg>
