<?xml version="1.0" encoding="UTF-8" standalone="no"?>
<!DOCTYPE svg PUBLIC "-//W3C//DTD SVG 1.1//EN"
 "http://www.w3.org/Graphics/SVG/1.1/DTD/svg11.dtd">
<!-- Generated by graphviz version 2.43.0 (0)
 -->
<!-- Title: G Pages: 1 -->
<svg width="336pt" height="728pt"
 viewBox="0.00 0.00 336.00 728.00" xmlns="http://www.w3.org/2000/svg" xmlns:xlink="http://www.w3.org/1999/xlink">
<g id="graph0" class="graph" transform="scale(1 1) rotate(0) translate(4 724)">
<title>G</title>
<polygon fill="transparent" stroke="transparent" points="-4,4 -4,-724 332,-724 332,4 -4,4"/>
<g id="clust1" class="cluster">
<title>cluster_83f4711e&#45;9ba5&#45;4e62&#45;9c8e&#45;3b80f9ee3ccd</title>
<polygon fill="transparent" stroke="blue" stroke-dasharray="5,2" points="8,-8 8,-568 320,-568 320,-8 8,-8"/>
</g>
<!-- ae23360c&#45;03a6&#45;4a66&#45;9aa9&#45;b4bab16f7930 -->
<g id="node1" class="node">
<title>ae23360c&#45;03a6&#45;4a66&#45;9aa9&#45;b4bab16f7930</title>
<ellipse fill="none" stroke="black" cx="95" cy="-121" rx="67.81" ry="18"/>
<text text-anchor="middle" x="95" y="-117.3" font-family="Times,serif" font-size="14.00">LinearYawFromX</text>
</g>
<!-- 6b299f08&#45;4fc1&#45;4f85&#45;96e6&#45;bfc2f1a10c15 -->
<g id="node2" class="node">
<title>6b299f08&#45;4fc1&#45;4f85&#45;96e6&#45;bfc2f1a10c15</title>
<ellipse fill="none" stroke="black" cx="96" cy="-34" rx="80.11" ry="18"/>
<text text-anchor="middle" x="96" y="-30.3" font-family="Times,serif" font-size="14.00">Stability2Movement</text>
</g>
<!-- ae23360c&#45;03a6&#45;4a66&#45;9aa9&#45;b4bab16f7930&#45;&gt;6b299f08&#45;4fc1&#45;4f85&#45;96e6&#45;bfc2f1a10c15 -->
<g id="edge1" class="edge">
<title>ae23360c&#45;03a6&#45;4a66&#45;9aa9&#45;b4bab16f7930&#45;&gt;6b299f08&#45;4fc1&#45;4f85&#45;96e6&#45;bfc2f1a10c15</title>
<path fill="none" stroke="purple" d="M95.2,-102.8C95.34,-91.16 95.52,-75.55 95.68,-62.24"/>
<polygon fill="purple" stroke="purple" points="99.18,-62.22 95.8,-52.18 92.18,-62.13 99.18,-62.22"/>
<text text-anchor="middle" x="130.5" y="-73.8" font-family="Times,serif" font-size="14.00" fill="purple">Pass Data</text>
</g>
<!-- 505e3648&#45;d4b6&#45;4cb6&#45;b358&#45;bca1ce188237 -->
<g id="node3" class="node">
<title>505e3648&#45;d4b6&#45;4cb6&#45;b358&#45;bca1ce188237</title>
<ellipse fill="none" stroke="black" cx="95" cy="-208" rx="51.3" ry="18"/>
<text text-anchor="middle" x="95" y="-204.3" font-family="Times,serif" font-size="14.00">OffsetToPose</text>
</g>
<!-- 505e3648&#45;d4b6&#45;4cb6&#45;b358&#45;bca1ce188237&#45;&gt;ae23360c&#45;03a6&#45;4a66&#45;9aa9&#45;b4bab16f7930 -->
<g id="edge2" class="edge">
<title>505e3648&#45;d4b6&#45;4cb6&#45;b358&#45;bca1ce188237&#45;&gt;ae23360c&#45;03a6&#45;4a66&#45;9aa9&#45;b4bab16f7930</title>
<path fill="none" stroke="purple" d="M95,-189.8C95,-178.16 95,-162.55 95,-149.24"/>
<polygon fill="purple" stroke="purple" points="98.5,-149.18 95,-139.18 91.5,-149.18 98.5,-149.18"/>
<text text-anchor="middle" x="130.5" y="-160.8" font-family="Times,serif" font-size="14.00" fill="purple">Pass Data</text>
</g>
<!-- dc227f04&#45;bb38&#45;409d&#45;9061&#45;99c86a4e3d11 -->
<g id="node4" class="node">
<title>dc227f04&#45;bb38&#45;409d&#45;9061&#45;99c86a4e3d11</title>
<ellipse fill="none" stroke="black" cx="94" cy="-295" rx="35.5" ry="18"/>
<text text-anchor="middle" x="94" y="-291.3" font-family="Times,serif" font-size="14.00">MidPoint</text>
</g>
<!-- dc227f04&#45;bb38&#45;409d&#45;9061&#45;99c86a4e3d11&#45;&gt;505e3648&#45;d4b6&#45;4cb6&#45;b358&#45;bca1ce188237 -->
<g id="edge3" class="edge">
<title>dc227f04&#45;bb38&#45;409d&#45;9061&#45;99c86a4e3d11&#45;&gt;505e3648&#45;d4b6&#45;4cb6&#45;b358&#45;bca1ce188237</title>
<path fill="none" stroke="purple" d="M94.2,-276.8C94.34,-265.16 94.52,-249.55 94.68,-236.24"/>
<polygon fill="purple" stroke="purple" points="98.18,-236.22 94.8,-226.18 91.18,-236.13 98.18,-236.22"/>
<text text-anchor="middle" x="129.5" y="-247.8" font-family="Times,serif" font-size="14.00" fill="purple">Pass Data</text>
</g>
<!-- 1b5337fb&#45;b2d2&#45;45fa&#45;acaf&#45;56e5edb052fe -->
<g id="node5" class="node">
<title>1b5337fb&#45;b2d2&#45;45fa&#45;acaf&#45;56e5edb052fe</title>
<ellipse fill="none" stroke="black" cx="92" cy="-382" rx="61.1" ry="18"/>
<text text-anchor="middle" x="92" y="-378.3" font-family="Times,serif" font-size="14.00">ExtractPosition</text>
</g>
<!-- 1b5337fb&#45;b2d2&#45;45fa&#45;acaf&#45;56e5edb052fe&#45;&gt;dc227f04&#45;bb38&#45;409d&#45;9061&#45;99c86a4e3d11 -->
<g id="edge4" class="edge">
<title>1b5337fb&#45;b2d2&#45;45fa&#45;acaf&#45;56e5edb052fe&#45;&gt;dc227f04&#45;bb38&#45;409d&#45;9061&#45;99c86a4e3d11</title>
<path fill="none" stroke="purple" d="M92.4,-363.8C92.68,-352.16 93.05,-336.55 93.36,-323.24"/>
<polygon fill="purple" stroke="purple" points="96.86,-323.26 93.6,-313.18 89.86,-323.09 96.86,-323.26"/>
<text text-anchor="middle" x="128.5" y="-334.8" font-family="Times,serif" font-size="14.00" fill="purple">Pass Data</text>
</g>
<!-- e525c5bc&#45;d361&#45;47b9&#45;86a8&#45;169c795ad28b -->
<g id="node6" class="node">
<title>e525c5bc&#45;d361&#45;47b9&#45;86a8&#45;169c795ad28b</title>
<ellipse fill="none" stroke="black" cx="43" cy="-469" rx="27" ry="18"/>
<text text-anchor="middle" x="43" y="-465.3" font-family="Times,serif" font-size="14.00">ToVec</text>
</g>
<!-- e525c5bc&#45;d361&#45;47b9&#45;86a8&#45;169c795ad28b&#45;&gt;1b5337fb&#45;b2d2&#45;45fa&#45;acaf&#45;56e5edb052fe -->
<g id="edge5" class="edge">
<title>e525c5bc&#45;d361&#45;47b9&#45;86a8&#45;169c795ad28b&#45;&gt;1b5337fb&#45;b2d2&#45;45fa&#45;acaf&#45;56e5edb052fe</title>
<path fill="none" stroke="purple" d="M52.22,-452.01C59.27,-439.78 69.13,-422.68 77.27,-408.56"/>
<polygon fill="purple" stroke="purple" points="80.36,-410.2 82.32,-399.79 74.3,-406.7 80.36,-410.2"/>
<text text-anchor="middle" x="105.5" y="-421.8" font-family="Times,serif" font-size="14.00" fill="purple">Pass Data</text>
</g>
<!-- 3fe30013&#45;b601&#45;41a7&#45;be14&#45;17166418a8d8 -->
<g id="node7" class="node">
<title>3fe30013&#45;b601&#45;41a7&#45;be14&#45;17166418a8d8</title>
<polygon fill="none" stroke="black" stroke-dasharray="5,2" points="195,-560 97,-560 97,-524 195,-524 195,-560"/>
<text text-anchor="middle" x="146" y="-538.3" font-family="Times,serif" font-size="14.00" fill="blue">Concurrent</text>
</g>
<!-- 3fe30013&#45;b601&#45;41a7&#45;be14&#45;17166418a8d8&#45;&gt;e525c5bc&#45;d361&#45;47b9&#45;86a8&#45;169c795ad28b -->
<g id="edge6" class="edge">
<title>3fe30013&#45;b601&#45;41a7&#45;be14&#45;17166418a8d8&#45;&gt;e525c5bc&#45;d361&#45;47b9&#45;86a8&#45;169c795ad28b</title>
<path fill="none" stroke="black" d="M121.33,-523.99C105.66,-513.19 85.4,-499.23 69.41,-488.2"/>
<polygon fill="black" stroke="black" points="71.24,-485.21 61.02,-482.42 67.27,-490.98 71.24,-485.21"/>
</g>
<!-- ca8abc48&#45;1d19&#45;47fa&#45;a5cd&#45;83e5c8fb012a -->
<g id="node8" class="node">
<title>ca8abc48&#45;1d19&#45;47fa&#45;a5cd&#45;83e5c8fb012a</title>
<ellipse fill="none" stroke="black" cx="227" cy="-469" rx="85.01" ry="18"/>
<text text-anchor="middle" x="227" y="-465.3" font-family="Times,serif" font-size="14.00">Consecutive True &lt; 3</text>
</g>
<!-- 3fe30013&#45;b601&#45;41a7&#45;be14&#45;17166418a8d8&#45;&gt;ca8abc48&#45;1d19&#45;47fa&#45;a5cd&#45;83e5c8fb012a -->
<g id="edge7" class="edge">
<title>3fe30013&#45;b601&#45;41a7&#45;be14&#45;17166418a8d8&#45;&gt;ca8abc48&#45;1d19&#45;47fa&#45;a5cd&#45;83e5c8fb012a</title>
<path fill="none" stroke="black" d="M165.61,-523.81C176.03,-514.68 189,-503.31 200.32,-493.38"/>
<polygon fill="black" stroke="black" points="202.64,-496.01 207.85,-486.78 198.03,-490.74 202.64,-496.01"/>
</g>
<!-- aacc0cb8&#45;813f&#45;4132&#45;b644&#45;c64a2a5959d7 -->
<g id="node9" class="node">
<title>aacc0cb8&#45;813f&#45;4132&#45;b644&#45;c64a2a5959d7</title>
<ellipse fill="none" stroke="black" cx="146" cy="-629" rx="75.21" ry="18"/>
<text text-anchor="middle" x="146" y="-625.3" font-family="Times,serif" font-size="14.00">VisionNormBottom</text>
</g>
<!-- aacc0cb8&#45;813f&#45;4132&#45;b644&#45;c64a2a5959d7&#45;&gt;3fe30013&#45;b601&#45;41a7&#45;be14&#45;17166418a8d8 -->
<g id="edge8" class="edge">
<title>aacc0cb8&#45;813f&#45;4132&#45;b644&#45;c64a2a5959d7&#45;&gt;3fe30013&#45;b601&#45;41a7&#45;be14&#45;17166418a8d8</title>
<path fill="none" stroke="purple" d="M146,-610.8C146,-599.16 146,-583.55 146,-570.24"/>
<polygon fill="purple" stroke="purple" points="149.5,-570.18 146,-560.18 142.5,-570.18 149.5,-570.18"/>
<text text-anchor="middle" x="181.5" y="-581.8" font-family="Times,serif" font-size="14.00" fill="purple">Pass Data</text>
</g>
<!-- 7ed12d20&#45;f71f&#45;43ea&#45;8188&#45;3f39fd9c3b48 -->
<g id="node10" class="node">
<title>7ed12d20&#45;f71f&#45;43ea&#45;8188&#45;3f39fd9c3b48</title>
<ellipse fill="none" stroke="black" cx="146" cy="-702" rx="59.9" ry="18"/>
<text text-anchor="middle" x="146" y="-698.3" font-family="Times,serif" font-size="14.00">ZeroMovement</text>
</g>
<!-- 7ed12d20&#45;f71f&#45;43ea&#45;8188&#45;3f39fd9c3b48&#45;&gt;aacc0cb8&#45;813f&#45;4132&#45;b644&#45;c64a2a5959d7 -->
<g id="edge9" class="edge">
<title>7ed12d20&#45;f71f&#45;43ea&#45;8188&#45;3f39fd9c3b48&#45;&gt;aacc0cb8&#45;813f&#45;4132&#45;b644&#45;c64a2a5959d7</title>
<path fill="none" stroke="black" d="M146,-683.81C146,-675.79 146,-666.05 146,-657.07"/>
<polygon fill="black" stroke="black" points="149.5,-657.03 146,-647.03 142.5,-657.03 149.5,-657.03"/>
</g>
</g>
</svg>
