<?xml version="1.0" encoding="UTF-8" standalone="no"?>
<!DOCTYPE svg PUBLIC "-//W3C//DTD SVG 1.1//EN"
 "http://www.w3.org/Graphics/SVG/1.1/DTD/svg11.dtd">
<!-- Generated by graphviz version 2.43.0 (0)
 -->
<!-- Title: G Pages: 1 -->
<svg width="318pt" height="987pt"
 viewBox="0.00 0.00 318.29 987.00" xmlns="http://www.w3.org/2000/svg" xmlns:xlink="http://www.w3.org/1999/xlink">
<g id="graph0" class="graph" transform="scale(1 1) rotate(0) translate(4 983)">
<title>G</title>
<polygon fill="transparent" stroke="transparent" points="-4,4 -4,-983 314.29,-983 314.29,4 -4,4"/>
<!-- 5dcd6b9e&#45;ebdd&#45;43e3&#45;9365&#45;b0653e11b445 -->
<g id="node1" class="node">
<title>5dcd6b9e&#45;ebdd&#45;43e3&#45;9365&#45;b0653e11b445</title>
<polygon fill="none" stroke="black" points="65.34,-906 0.16,-888 65.34,-870 130.52,-888 65.34,-906"/>
<text text-anchor="middle" x="65.34" y="-884.3" font-family="Times,serif" font-size="14.00">AlwaysTrue</text>
</g>
<!-- bd9872c7&#45;7151&#45;4d78&#45;8357&#45;0eb29a2e86dc -->
<g id="node11" class="node">
<title>bd9872c7&#45;7151&#45;4d78&#45;8357&#45;0eb29a2e86dc</title>
<ellipse fill="none" stroke="black" cx="103.34" cy="-801" rx="46.5" ry="18"/>
<text text-anchor="middle" x="103.34" y="-797.3" font-family="Times,serif" font-size="14.00">VisionNorm</text>
</g>
<!-- 5dcd6b9e&#45;ebdd&#45;43e3&#45;9365&#45;b0653e11b445&#45;&gt;bd9872c7&#45;7151&#45;4d78&#45;8357&#45;0eb29a2e86dc -->
<g id="edge10" class="edge">
<title>5dcd6b9e&#45;ebdd&#45;43e3&#45;9365&#45;b0653e11b445&#45;&gt;bd9872c7&#45;7151&#45;4d78&#45;8357&#45;0eb29a2e86dc</title>
<path fill="none" stroke="black" d="M72.13,-871.8C77.54,-859.7 85.25,-842.47 91.65,-828.16"/>
<polygon fill="black" stroke="black" points="94.94,-829.37 95.82,-818.81 88.55,-826.51 94.94,-829.37"/>
<text text-anchor="middle" x="104.34" y="-840.8" font-family="Times,serif" font-size="14.00">True</text>
</g>
<!-- 9668e900&#45;1aff&#45;44b2&#45;8c76&#45;ffbc67b0b1a9 -->
<g id="node2" class="node">
<title>9668e900&#45;1aff&#45;44b2&#45;8c76&#45;ffbc67b0b1a9</title>
<ellipse fill="none" stroke="black" cx="103.34" cy="-105" rx="27" ry="18"/>
<text text-anchor="middle" x="103.34" y="-101.3" font-family="Times,serif" font-size="14.00">FlatX</text>
</g>
<!-- 22a7fa99&#45;22bb&#45;432f&#45;822b&#45;9d609c1a091e -->
<g id="node3" class="node">
<title>22a7fa99&#45;22bb&#45;432f&#45;822b&#45;9d609c1a091e</title>
<ellipse fill="none" stroke="black" cx="103.34" cy="-18" rx="80.11" ry="18"/>
<text text-anchor="middle" x="103.34" y="-14.3" font-family="Times,serif" font-size="14.00">Stability2Movement</text>
</g>
<!-- 9668e900&#45;1aff&#45;44b2&#45;8c76&#45;ffbc67b0b1a9&#45;&gt;22a7fa99&#45;22bb&#45;432f&#45;822b&#45;9d609c1a091e -->
<g id="edge1" class="edge">
<title>9668e900&#45;1aff&#45;44b2&#45;8c76&#45;ffbc67b0b1a9&#45;&gt;22a7fa99&#45;22bb&#45;432f&#45;822b&#45;9d609c1a091e</title>
<path fill="none" stroke="purple" d="M103.34,-86.8C103.34,-75.16 103.34,-59.55 103.34,-46.24"/>
<polygon fill="purple" stroke="purple" points="106.84,-46.18 103.34,-36.18 99.84,-46.18 106.84,-46.18"/>
<text text-anchor="middle" x="138.84" y="-57.8" font-family="Times,serif" font-size="14.00" fill="purple">Pass Data</text>
</g>
<!-- 559fd967&#45;91db&#45;4e26&#45;b5fb&#45;840c862733b8 -->
<g id="node4" class="node">
<title>559fd967&#45;91db&#45;4e26&#45;b5fb&#45;840c862733b8</title>
<ellipse fill="none" stroke="black" cx="103.34" cy="-192" rx="27" ry="18"/>
<text text-anchor="middle" x="103.34" y="-188.3" font-family="Times,serif" font-size="14.00">StripY</text>
</g>
<!-- 559fd967&#45;91db&#45;4e26&#45;b5fb&#45;840c862733b8&#45;&gt;9668e900&#45;1aff&#45;44b2&#45;8c76&#45;ffbc67b0b1a9 -->
<g id="edge2" class="edge">
<title>559fd967&#45;91db&#45;4e26&#45;b5fb&#45;840c862733b8&#45;&gt;9668e900&#45;1aff&#45;44b2&#45;8c76&#45;ffbc67b0b1a9</title>
<path fill="none" stroke="purple" d="M103.34,-173.8C103.34,-162.16 103.34,-146.55 103.34,-133.24"/>
<polygon fill="purple" stroke="purple" points="106.84,-133.18 103.34,-123.18 99.84,-133.18 106.84,-133.18"/>
<text text-anchor="middle" x="138.84" y="-144.8" font-family="Times,serif" font-size="14.00" fill="purple">Pass Data</text>
</g>
<!-- d332ca69&#45;2223&#45;4d22&#45;ac2b&#45;4752b3df8d11 -->
<g id="node5" class="node">
<title>d332ca69&#45;2223&#45;4d22&#45;ac2b&#45;4752b3df8d11</title>
<ellipse fill="none" stroke="black" cx="103.34" cy="-279" rx="52.6" ry="18"/>
<text text-anchor="middle" x="103.34" y="-275.3" font-family="Times,serif" font-size="14.00">Anon Closure</text>
</g>
<!-- d332ca69&#45;2223&#45;4d22&#45;ac2b&#45;4752b3df8d11&#45;&gt;559fd967&#45;91db&#45;4e26&#45;b5fb&#45;840c862733b8 -->
<g id="edge3" class="edge">
<title>d332ca69&#45;2223&#45;4d22&#45;ac2b&#45;4752b3df8d11&#45;&gt;559fd967&#45;91db&#45;4e26&#45;b5fb&#45;840c862733b8</title>
<path fill="none" stroke="purple" d="M103.34,-260.8C103.34,-249.16 103.34,-233.55 103.34,-220.24"/>
<polygon fill="purple" stroke="purple" points="106.84,-220.18 103.34,-210.18 99.84,-220.18 106.84,-220.18"/>
<text text-anchor="middle" x="138.84" y="-231.8" font-family="Times,serif" font-size="14.00" fill="purple">Pass Data</text>
</g>
<!-- 7b75fbb5&#45;0f97&#45;4605&#45;9faa&#45;a0597c972114 -->
<g id="node6" class="node">
<title>7b75fbb5&#45;0f97&#45;4605&#45;9faa&#45;a0597c972114</title>
<ellipse fill="none" stroke="black" cx="103.34" cy="-366" rx="51.3" ry="18"/>
<text text-anchor="middle" x="103.34" y="-362.3" font-family="Times,serif" font-size="14.00">OffsetToPose</text>
</g>
<!-- 7b75fbb5&#45;0f97&#45;4605&#45;9faa&#45;a0597c972114&#45;&gt;d332ca69&#45;2223&#45;4d22&#45;ac2b&#45;4752b3df8d11 -->
<g id="edge4" class="edge">
<title>7b75fbb5&#45;0f97&#45;4605&#45;9faa&#45;a0597c972114&#45;&gt;d332ca69&#45;2223&#45;4d22&#45;ac2b&#45;4752b3df8d11</title>
<path fill="none" stroke="purple" d="M103.34,-347.8C103.34,-336.16 103.34,-320.55 103.34,-307.24"/>
<polygon fill="purple" stroke="purple" points="106.84,-307.18 103.34,-297.18 99.84,-307.18 106.84,-307.18"/>
<text text-anchor="middle" x="138.84" y="-318.8" font-family="Times,serif" font-size="14.00" fill="purple">Pass Data</text>
</g>
<!-- d5f3650d&#45;5f03&#45;4797&#45;86af&#45;bf40720d1823 -->
<g id="node7" class="node">
<title>d5f3650d&#45;5f03&#45;4797&#45;86af&#45;bf40720d1823</title>
<ellipse fill="none" stroke="black" cx="103.34" cy="-453" rx="32.4" ry="18"/>
<text text-anchor="middle" x="103.34" y="-449.3" font-family="Times,serif" font-size="14.00">Average</text>
</g>
<!-- d5f3650d&#45;5f03&#45;4797&#45;86af&#45;bf40720d1823&#45;&gt;7b75fbb5&#45;0f97&#45;4605&#45;9faa&#45;a0597c972114 -->
<g id="edge5" class="edge">
<title>d5f3650d&#45;5f03&#45;4797&#45;86af&#45;bf40720d1823&#45;&gt;7b75fbb5&#45;0f97&#45;4605&#45;9faa&#45;a0597c972114</title>
<path fill="none" stroke="purple" d="M103.34,-434.8C103.34,-423.16 103.34,-407.55 103.34,-394.24"/>
<polygon fill="purple" stroke="purple" points="106.84,-394.18 103.34,-384.18 99.84,-394.18 106.84,-394.18"/>
<text text-anchor="middle" x="138.84" y="-405.8" font-family="Times,serif" font-size="14.00" fill="purple">Pass Data</text>
</g>
<!-- 60264861&#45;7ebf&#45;4c18&#45;b559&#45;8134da2ee16c -->
<g id="node8" class="node">
<title>60264861&#45;7ebf&#45;4c18&#45;b559&#45;8134da2ee16c</title>
<ellipse fill="none" stroke="black" cx="103.34" cy="-540" rx="61.1" ry="18"/>
<text text-anchor="middle" x="103.34" y="-536.3" font-family="Times,serif" font-size="14.00">ExtractPosition</text>
</g>
<!-- 60264861&#45;7ebf&#45;4c18&#45;b559&#45;8134da2ee16c&#45;&gt;d5f3650d&#45;5f03&#45;4797&#45;86af&#45;bf40720d1823 -->
<g id="edge6" class="edge">
<title>60264861&#45;7ebf&#45;4c18&#45;b559&#45;8134da2ee16c&#45;&gt;d5f3650d&#45;5f03&#45;4797&#45;86af&#45;bf40720d1823</title>
<path fill="none" stroke="purple" d="M103.34,-521.8C103.34,-510.16 103.34,-494.55 103.34,-481.24"/>
<polygon fill="purple" stroke="purple" points="106.84,-481.18 103.34,-471.18 99.84,-481.18 106.84,-481.18"/>
<text text-anchor="middle" x="138.84" y="-492.8" font-family="Times,serif" font-size="14.00" fill="purple">Pass Data</text>
</g>
<!-- d0a6cdc5&#45;3f3c&#45;411c&#45;bcec&#45;2162b50009df -->
<g id="node9" class="node">
<title>d0a6cdc5&#45;3f3c&#45;411c&#45;bcec&#45;2162b50009df</title>
<ellipse fill="none" stroke="black" cx="103.34" cy="-627" rx="27" ry="18"/>
<text text-anchor="middle" x="103.34" y="-623.3" font-family="Times,serif" font-size="14.00">ToVec</text>
</g>
<!-- d0a6cdc5&#45;3f3c&#45;411c&#45;bcec&#45;2162b50009df&#45;&gt;60264861&#45;7ebf&#45;4c18&#45;b559&#45;8134da2ee16c -->
<g id="edge7" class="edge">
<title>d0a6cdc5&#45;3f3c&#45;411c&#45;bcec&#45;2162b50009df&#45;&gt;60264861&#45;7ebf&#45;4c18&#45;b559&#45;8134da2ee16c</title>
<path fill="none" stroke="purple" d="M103.34,-608.8C103.34,-597.16 103.34,-581.55 103.34,-568.24"/>
<polygon fill="purple" stroke="purple" points="106.84,-568.18 103.34,-558.18 99.84,-568.18 106.84,-568.18"/>
<text text-anchor="middle" x="138.84" y="-579.8" font-family="Times,serif" font-size="14.00" fill="purple">Pass Data</text>
</g>
<!-- e82bc26a&#45;3f50&#45;406f&#45;9078&#45;7049d7866eac -->
<g id="node10" class="node">
<title>e82bc26a&#45;3f50&#45;406f&#45;9078&#45;7049d7866eac</title>
<ellipse fill="none" stroke="black" cx="103.34" cy="-714" rx="45.2" ry="18"/>
<text text-anchor="middle" x="103.34" y="-710.3" font-family="Times,serif" font-size="14.00">Detect true</text>
</g>
<!-- e82bc26a&#45;3f50&#45;406f&#45;9078&#45;7049d7866eac&#45;&gt;d0a6cdc5&#45;3f3c&#45;411c&#45;bcec&#45;2162b50009df -->
<g id="edge8" class="edge">
<title>e82bc26a&#45;3f50&#45;406f&#45;9078&#45;7049d7866eac&#45;&gt;d0a6cdc5&#45;3f3c&#45;411c&#45;bcec&#45;2162b50009df</title>
<path fill="none" stroke="purple" d="M103.34,-695.8C103.34,-684.16 103.34,-668.55 103.34,-655.24"/>
<polygon fill="purple" stroke="purple" points="106.84,-655.18 103.34,-645.18 99.84,-655.18 106.84,-655.18"/>
<text text-anchor="middle" x="138.84" y="-666.8" font-family="Times,serif" font-size="14.00" fill="purple">Pass Data</text>
</g>
<!-- bd9872c7&#45;7151&#45;4d78&#45;8357&#45;0eb29a2e86dc&#45;&gt;e82bc26a&#45;3f50&#45;406f&#45;9078&#45;7049d7866eac -->
<g id="edge9" class="edge">
<title>bd9872c7&#45;7151&#45;4d78&#45;8357&#45;0eb29a2e86dc&#45;&gt;e82bc26a&#45;3f50&#45;406f&#45;9078&#45;7049d7866eac</title>
<path fill="none" stroke="purple" d="M103.34,-782.8C103.34,-771.16 103.34,-755.55 103.34,-742.24"/>
<polygon fill="purple" stroke="purple" points="106.84,-742.18 103.34,-732.18 99.84,-742.18 106.84,-742.18"/>
<text text-anchor="middle" x="138.84" y="-753.8" font-family="Times,serif" font-size="14.00" fill="purple">Pass Data</text>
</g>
<!-- 175a2a9f&#45;5ee0&#45;4f20&#45;8b10&#45;d997b87f76a6 -->
<g id="node12" class="node">
<title>175a2a9f&#45;5ee0&#45;4f20&#45;8b10&#45;d997b87f76a6</title>
<ellipse fill="none" stroke="black" cx="250.34" cy="-888" rx="47.1" ry="18"/>
<text text-anchor="middle" x="250.34" y="-884.3" font-family="Times,serif" font-size="14.00">DelayAction</text>
</g>
<!-- 175a2a9f&#45;5ee0&#45;4f20&#45;8b10&#45;d997b87f76a6&#45;&gt;bd9872c7&#45;7151&#45;4d78&#45;8357&#45;0eb29a2e86dc -->
<g id="edge11" class="edge">
<title>175a2a9f&#45;5ee0&#45;4f20&#45;8b10&#45;d997b87f76a6&#45;&gt;bd9872c7&#45;7151&#45;4d78&#45;8357&#45;0eb29a2e86dc</title>
<path fill="none" stroke="black" d="M225.4,-872.58C201.12,-858.54 164.03,-837.09 137.1,-821.52"/>
<polygon fill="black" stroke="black" points="138.81,-818.47 128.4,-816.49 135.3,-824.53 138.81,-818.47"/>
</g>
<!-- e8cfc4c7&#45;3c81&#45;4c06&#45;8db0&#45;a49982cb5da8 -->
<g id="node13" class="node">
<title>e8cfc4c7&#45;3c81&#45;4c06&#45;8db0&#45;a49982cb5da8</title>
<ellipse fill="none" stroke="black" cx="250.34" cy="-961" rx="59.9" ry="18"/>
<text text-anchor="middle" x="250.34" y="-957.3" font-family="Times,serif" font-size="14.00">ZeroMovement</text>
</g>
<!-- e8cfc4c7&#45;3c81&#45;4c06&#45;8db0&#45;a49982cb5da8&#45;&gt;175a2a9f&#45;5ee0&#45;4f20&#45;8b10&#45;d997b87f76a6 -->
<g id="edge12" class="edge">
<title>e8cfc4c7&#45;3c81&#45;4c06&#45;8db0&#45;a49982cb5da8&#45;&gt;175a2a9f&#45;5ee0&#45;4f20&#45;8b10&#45;d997b87f76a6</title>
<path fill="none" stroke="black" d="M250.34,-942.81C250.34,-934.79 250.34,-925.05 250.34,-916.07"/>
<polygon fill="black" stroke="black" points="253.84,-916.03 250.34,-906.03 246.84,-916.03 253.84,-916.03"/>
</g>
</g>
</svg>
