<?xml version="1.0" encoding="UTF-8" standalone="no"?>
<!DOCTYPE svg PUBLIC "-//W3C//DTD SVG 1.1//EN"
 "http://www.w3.org/Graphics/SVG/1.1/DTD/svg11.dtd">
<!-- Generated by graphviz version 2.43.0 (0)
 -->
<!-- Title: G Pages: 1 -->
<svg width="583pt" height="552pt"
 viewBox="0.00 0.00 582.60 552.00" xmlns="http://www.w3.org/2000/svg" xmlns:xlink="http://www.w3.org/1999/xlink">
<g id="graph0" class="graph" transform="scale(1 1) rotate(0) translate(4 548)">
<title>G</title>
<polygon fill="transparent" stroke="transparent" points="-4,4 -4,-548 578.6,-548 578.6,4 -4,4"/>
<!-- 349440d4&#45;8afb&#45;4d38&#45;9ee5&#45;323740da4f0d -->
<g id="node1" class="node">
<title>349440d4&#45;8afb&#45;4d38&#45;9ee5&#45;323740da4f0d</title>
<polygon fill="none" stroke="black" points="294.3,-384 166.67,-366 294.3,-348 421.93,-366 294.3,-384"/>
<text text-anchor="middle" x="294.3" y="-362.3" font-family="Times,serif" font-size="14.00">Consecutive True &lt; 34</text>
</g>
<!-- bf0e37cd&#45;1fb4&#45;4f32&#45;8df4&#45;68add3614dc4 -->
<g id="node5" class="node">
<title>bf0e37cd&#45;1fb4&#45;4f32&#45;8df4&#45;68add3614dc4</title>
<ellipse fill="none" stroke="black" cx="86.3" cy="-279" rx="38.5" ry="18"/>
<text text-anchor="middle" x="86.3" y="-275.3" font-family="Times,serif" font-size="14.00">ConstYaw</text>
</g>
<!-- 349440d4&#45;8afb&#45;4d38&#45;9ee5&#45;323740da4f0d&#45;&gt;bf0e37cd&#45;1fb4&#45;4f32&#45;8df4&#45;68add3614dc4 -->
<g id="edge6" class="edge">
<title>349440d4&#45;8afb&#45;4d38&#45;9ee5&#45;323740da4f0d&#45;&gt;bf0e37cd&#45;1fb4&#45;4f32&#45;8df4&#45;68add3614dc4</title>
<path fill="none" stroke="black" d="M263.16,-352.27C225.89,-337.04 163.53,-311.56 123.69,-295.28"/>
<polygon fill="black" stroke="black" points="124.9,-291.99 114.32,-291.45 122.25,-298.47 124.9,-291.99"/>
<text text-anchor="middle" x="220.3" y="-318.8" font-family="Times,serif" font-size="14.00">True</text>
</g>
<!-- 7d52cc8d&#45;9323&#45;4c52&#45;8f2f&#45;6b95e7aa550e -->
<g id="node8" class="node">
<title>7d52cc8d&#45;9323&#45;4c52&#45;8f2f&#45;6b95e7aa550e</title>
<ellipse fill="none" stroke="black" cx="294.3" cy="-279" rx="59.9" ry="18"/>
<text text-anchor="middle" x="294.3" y="-275.3" font-family="Times,serif" font-size="14.00">ZeroMovement</text>
</g>
<!-- 349440d4&#45;8afb&#45;4d38&#45;9ee5&#45;323740da4f0d&#45;&gt;7d52cc8d&#45;9323&#45;4c52&#45;8f2f&#45;6b95e7aa550e -->
<g id="edge7" class="edge">
<title>349440d4&#45;8afb&#45;4d38&#45;9ee5&#45;323740da4f0d&#45;&gt;7d52cc8d&#45;9323&#45;4c52&#45;8f2f&#45;6b95e7aa550e</title>
<path fill="none" stroke="black" d="M294.3,-347.8C294.3,-336.16 294.3,-320.55 294.3,-307.24"/>
<polygon fill="black" stroke="black" points="297.8,-307.18 294.3,-297.18 290.8,-307.18 297.8,-307.18"/>
<text text-anchor="middle" x="313.3" y="-318.8" font-family="Times,serif" font-size="14.00">False</text>
</g>
<!-- 64f9b3de&#45;4748&#45;4899&#45;8eb8&#45;13f8f2e05e29 -->
<g id="node2" class="node">
<title>64f9b3de&#45;4748&#45;4899&#45;8eb8&#45;13f8f2e05e29</title>
<ellipse fill="none" stroke="black" cx="86.3" cy="-105" rx="36.1" ry="18"/>
<text text-anchor="middle" x="86.3" y="-101.3" font-family="Times,serif" font-size="14.00">SideMult</text>
</g>
<!-- 65dbc6e3&#45;15c1&#45;4350&#45;92fe&#45;783d11c87777 -->
<g id="node3" class="node">
<title>65dbc6e3&#45;15c1&#45;4350&#45;92fe&#45;783d11c87777</title>
<ellipse fill="none" stroke="black" cx="86.3" cy="-18" rx="80.11" ry="18"/>
<text text-anchor="middle" x="86.3" y="-14.3" font-family="Times,serif" font-size="14.00">Stability2Movement</text>
</g>
<!-- 64f9b3de&#45;4748&#45;4899&#45;8eb8&#45;13f8f2e05e29&#45;&gt;65dbc6e3&#45;15c1&#45;4350&#45;92fe&#45;783d11c87777 -->
<g id="edge1" class="edge">
<title>64f9b3de&#45;4748&#45;4899&#45;8eb8&#45;13f8f2e05e29&#45;&gt;65dbc6e3&#45;15c1&#45;4350&#45;92fe&#45;783d11c87777</title>
<path fill="none" stroke="purple" d="M86.3,-86.8C86.3,-75.16 86.3,-59.55 86.3,-46.24"/>
<polygon fill="purple" stroke="purple" points="89.8,-46.18 86.3,-36.18 82.8,-46.18 89.8,-46.18"/>
<text text-anchor="middle" x="121.8" y="-57.8" font-family="Times,serif" font-size="14.00" fill="purple">Pass Data</text>
</g>
<!-- b317101e&#45;ad6b&#45;42f7&#45;86a8&#45;ea00aa7fe3ed -->
<g id="node4" class="node">
<title>b317101e&#45;ad6b&#45;42f7&#45;86a8&#45;ea00aa7fe3ed</title>
<ellipse fill="none" stroke="black" cx="86.3" cy="-192" rx="27" ry="18"/>
<text text-anchor="middle" x="86.3" y="-188.3" font-family="Times,serif" font-size="14.00">SetX</text>
</g>
<!-- b317101e&#45;ad6b&#45;42f7&#45;86a8&#45;ea00aa7fe3ed&#45;&gt;64f9b3de&#45;4748&#45;4899&#45;8eb8&#45;13f8f2e05e29 -->
<g id="edge2" class="edge">
<title>b317101e&#45;ad6b&#45;42f7&#45;86a8&#45;ea00aa7fe3ed&#45;&gt;64f9b3de&#45;4748&#45;4899&#45;8eb8&#45;13f8f2e05e29</title>
<path fill="none" stroke="purple" d="M86.3,-173.8C86.3,-162.16 86.3,-146.55 86.3,-133.24"/>
<polygon fill="purple" stroke="purple" points="89.8,-133.18 86.3,-123.18 82.8,-133.18 89.8,-133.18"/>
<text text-anchor="middle" x="121.8" y="-144.8" font-family="Times,serif" font-size="14.00" fill="purple">Pass Data</text>
</g>
<!-- bf0e37cd&#45;1fb4&#45;4f32&#45;8df4&#45;68add3614dc4&#45;&gt;b317101e&#45;ad6b&#45;42f7&#45;86a8&#45;ea00aa7fe3ed -->
<g id="edge3" class="edge">
<title>bf0e37cd&#45;1fb4&#45;4f32&#45;8df4&#45;68add3614dc4&#45;&gt;b317101e&#45;ad6b&#45;42f7&#45;86a8&#45;ea00aa7fe3ed</title>
<path fill="none" stroke="purple" d="M86.3,-260.8C86.3,-249.16 86.3,-233.55 86.3,-220.24"/>
<polygon fill="purple" stroke="purple" points="89.8,-220.18 86.3,-210.18 82.8,-220.18 89.8,-220.18"/>
<text text-anchor="middle" x="121.8" y="-231.8" font-family="Times,serif" font-size="14.00" fill="purple">Pass Data</text>
</g>
<!-- 69223fb8&#45;d701&#45;4a8f&#45;b77e&#45;04440fb1ca2c -->
<g id="node6" class="node">
<title>69223fb8&#45;d701&#45;4a8f&#45;b77e&#45;04440fb1ca2c</title>
<ellipse fill="none" stroke="black" cx="294.3" cy="-453" rx="46.4" ry="18"/>
<text text-anchor="middle" x="294.3" y="-449.3" font-family="Times,serif" font-size="14.00">AlwaysTrue</text>
</g>
<!-- 69223fb8&#45;d701&#45;4a8f&#45;b77e&#45;04440fb1ca2c&#45;&gt;349440d4&#45;8afb&#45;4d38&#45;9ee5&#45;323740da4f0d -->
<g id="edge4" class="edge">
<title>69223fb8&#45;d701&#45;4a8f&#45;b77e&#45;04440fb1ca2c&#45;&gt;349440d4&#45;8afb&#45;4d38&#45;9ee5&#45;323740da4f0d</title>
<path fill="none" stroke="purple" d="M294.3,-434.8C294.3,-423.16 294.3,-407.55 294.3,-394.24"/>
<polygon fill="purple" stroke="purple" points="297.8,-394.18 294.3,-384.18 290.8,-394.18 297.8,-394.18"/>
<text text-anchor="middle" x="329.8" y="-405.8" font-family="Times,serif" font-size="14.00" fill="purple">Pass Data</text>
</g>
<!-- f351b8e9&#45;6e99&#45;4c21&#45;b8a4&#45;b4f747bec561 -->
<g id="node7" class="node">
<title>f351b8e9&#45;6e99&#45;4c21&#45;b8a4&#45;b4f747bec561</title>
<ellipse fill="none" stroke="black" cx="294.3" cy="-526" rx="47.1" ry="18"/>
<text text-anchor="middle" x="294.3" y="-522.3" font-family="Times,serif" font-size="14.00">DelayAction</text>
</g>
<!-- f351b8e9&#45;6e99&#45;4c21&#45;b8a4&#45;b4f747bec561&#45;&gt;69223fb8&#45;d701&#45;4a8f&#45;b77e&#45;04440fb1ca2c -->
<g id="edge5" class="edge">
<title>f351b8e9&#45;6e99&#45;4c21&#45;b8a4&#45;b4f747bec561&#45;&gt;69223fb8&#45;d701&#45;4a8f&#45;b77e&#45;04440fb1ca2c</title>
<path fill="none" stroke="black" d="M294.3,-507.81C294.3,-499.79 294.3,-490.05 294.3,-481.07"/>
<polygon fill="black" stroke="black" points="297.8,-481.03 294.3,-471.03 290.8,-481.03 297.8,-481.03"/>
</g>
<!-- 4c5001af&#45;d47a&#45;4442&#45;b6af&#45;d7edcdb16c2c -->
<g id="node9" class="node">
<title>4c5001af&#45;d47a&#45;4442&#45;b6af&#45;d7edcdb16c2c</title>
<ellipse fill="none" stroke="black" cx="47.3" cy="-366" rx="47.1" ry="18"/>
<text text-anchor="middle" x="47.3" y="-362.3" font-family="Times,serif" font-size="14.00">DelayAction</text>
</g>
<!-- 4c5001af&#45;d47a&#45;4442&#45;b6af&#45;d7edcdb16c2c&#45;&gt;bf0e37cd&#45;1fb4&#45;4f32&#45;8df4&#45;68add3614dc4 -->
<g id="edge8" class="edge">
<title>4c5001af&#45;d47a&#45;4442&#45;b6af&#45;d7edcdb16c2c&#45;&gt;bf0e37cd&#45;1fb4&#45;4f32&#45;8df4&#45;68add3614dc4</title>
<path fill="none" stroke="black" d="M55.01,-348.21C60.51,-336.22 68.02,-319.85 74.3,-306.16"/>
<polygon fill="black" stroke="black" points="77.62,-307.31 78.61,-296.76 71.26,-304.39 77.62,-307.31"/>
</g>
<!-- aac5eca9&#45;ae5b&#45;479f&#45;aa8a&#45;ed7bd75c8ea1 -->
<g id="node10" class="node">
<title>aac5eca9&#45;ae5b&#45;479f&#45;aa8a&#45;ed7bd75c8ea1</title>
<ellipse fill="none" stroke="black" cx="494.3" cy="-526" rx="80.11" ry="18"/>
<text text-anchor="middle" x="494.3" y="-522.3" font-family="Times,serif" font-size="14.00">Stability2Movement</text>
</g>
</g>
</svg>
