<?xml version="1.0" encoding="UTF-8" standalone="no"?>
<!DOCTYPE svg PUBLIC "-//W3C//DTD SVG 1.1//EN"
 "http://www.w3.org/Graphics/SVG/1.1/DTD/svg11.dtd">
<!-- Generated by graphviz version 2.43.0 (0)
 -->
<!-- Title: G Pages: 1 -->
<svg width="318pt" height="987pt"
 viewBox="0.00 0.00 318.29 987.00" xmlns="http://www.w3.org/2000/svg" xmlns:xlink="http://www.w3.org/1999/xlink">
<g id="graph0" class="graph" transform="scale(1 1) rotate(0) translate(4 983)">
<title>G</title>
<polygon fill="transparent" stroke="transparent" points="-4,4 -4,-983 314.29,-983 314.29,4 -4,4"/>
<!-- 246e6691&#45;163e&#45;4797&#45;aaf1&#45;1eba43322164 -->
<g id="node1" class="node">
<title>246e6691&#45;163e&#45;4797&#45;aaf1&#45;1eba43322164</title>
<polygon fill="none" stroke="black" points="65.34,-906 0.16,-888 65.34,-870 130.52,-888 65.34,-906"/>
<text text-anchor="middle" x="65.34" y="-884.3" font-family="Times,serif" font-size="14.00">AlwaysTrue</text>
</g>
<!-- 28375ce1&#45;0ac1&#45;470d&#45;a3f2&#45;38c560ea4e5e -->
<g id="node11" class="node">
<title>28375ce1&#45;0ac1&#45;470d&#45;a3f2&#45;38c560ea4e5e</title>
<ellipse fill="none" stroke="black" cx="103.34" cy="-801" rx="46.5" ry="18"/>
<text text-anchor="middle" x="103.34" y="-797.3" font-family="Times,serif" font-size="14.00">VisionNorm</text>
</g>
<!-- 246e6691&#45;163e&#45;4797&#45;aaf1&#45;1eba43322164&#45;&gt;28375ce1&#45;0ac1&#45;470d&#45;a3f2&#45;38c560ea4e5e -->
<g id="edge10" class="edge">
<title>246e6691&#45;163e&#45;4797&#45;aaf1&#45;1eba43322164&#45;&gt;28375ce1&#45;0ac1&#45;470d&#45;a3f2&#45;38c560ea4e5e</title>
<path fill="none" stroke="black" d="M72.13,-871.8C77.54,-859.7 85.25,-842.47 91.65,-828.16"/>
<polygon fill="black" stroke="black" points="94.94,-829.37 95.82,-818.81 88.55,-826.51 94.94,-829.37"/>
<text text-anchor="middle" x="104.34" y="-840.8" font-family="Times,serif" font-size="14.00">True</text>
</g>
<!-- 48c56bd8&#45;fce3&#45;4b99&#45;b413&#45;d76525286486 -->
<g id="node2" class="node">
<title>48c56bd8&#45;fce3&#45;4b99&#45;b413&#45;d76525286486</title>
<ellipse fill="none" stroke="black" cx="103.34" cy="-105" rx="27" ry="18"/>
<text text-anchor="middle" x="103.34" y="-101.3" font-family="Times,serif" font-size="14.00">FlatX</text>
</g>
<!-- 7cedbfa4&#45;8f86&#45;4668&#45;837d&#45;285063cb40f8 -->
<g id="node3" class="node">
<title>7cedbfa4&#45;8f86&#45;4668&#45;837d&#45;285063cb40f8</title>
<ellipse fill="none" stroke="black" cx="103.34" cy="-18" rx="80.11" ry="18"/>
<text text-anchor="middle" x="103.34" y="-14.3" font-family="Times,serif" font-size="14.00">Stability2Movement</text>
</g>
<!-- 48c56bd8&#45;fce3&#45;4b99&#45;b413&#45;d76525286486&#45;&gt;7cedbfa4&#45;8f86&#45;4668&#45;837d&#45;285063cb40f8 -->
<g id="edge1" class="edge">
<title>48c56bd8&#45;fce3&#45;4b99&#45;b413&#45;d76525286486&#45;&gt;7cedbfa4&#45;8f86&#45;4668&#45;837d&#45;285063cb40f8</title>
<path fill="none" stroke="purple" d="M103.34,-86.8C103.34,-75.16 103.34,-59.55 103.34,-46.24"/>
<polygon fill="purple" stroke="purple" points="106.84,-46.18 103.34,-36.18 99.84,-46.18 106.84,-46.18"/>
<text text-anchor="middle" x="138.84" y="-57.8" font-family="Times,serif" font-size="14.00" fill="purple">Pass Data</text>
</g>
<!-- c9895267&#45;c88b&#45;4043&#45;ad85&#45;783430a22371 -->
<g id="node4" class="node">
<title>c9895267&#45;c88b&#45;4043&#45;ad85&#45;783430a22371</title>
<ellipse fill="none" stroke="black" cx="103.34" cy="-192" rx="27" ry="18"/>
<text text-anchor="middle" x="103.34" y="-188.3" font-family="Times,serif" font-size="14.00">StripY</text>
</g>
<!-- c9895267&#45;c88b&#45;4043&#45;ad85&#45;783430a22371&#45;&gt;48c56bd8&#45;fce3&#45;4b99&#45;b413&#45;d76525286486 -->
<g id="edge2" class="edge">
<title>c9895267&#45;c88b&#45;4043&#45;ad85&#45;783430a22371&#45;&gt;48c56bd8&#45;fce3&#45;4b99&#45;b413&#45;d76525286486</title>
<path fill="none" stroke="purple" d="M103.34,-173.8C103.34,-162.16 103.34,-146.55 103.34,-133.24"/>
<polygon fill="purple" stroke="purple" points="106.84,-133.18 103.34,-123.18 99.84,-133.18 106.84,-133.18"/>
<text text-anchor="middle" x="138.84" y="-144.8" font-family="Times,serif" font-size="14.00" fill="purple">Pass Data</text>
</g>
<!-- 607d6b53&#45;fc11&#45;43cd&#45;885b&#45;47d10ad63d11 -->
<g id="node5" class="node">
<title>607d6b53&#45;fc11&#45;43cd&#45;885b&#45;47d10ad63d11</title>
<ellipse fill="none" stroke="black" cx="103.34" cy="-279" rx="52.6" ry="18"/>
<text text-anchor="middle" x="103.34" y="-275.3" font-family="Times,serif" font-size="14.00">Anon Closure</text>
</g>
<!-- 607d6b53&#45;fc11&#45;43cd&#45;885b&#45;47d10ad63d11&#45;&gt;c9895267&#45;c88b&#45;4043&#45;ad85&#45;783430a22371 -->
<g id="edge3" class="edge">
<title>607d6b53&#45;fc11&#45;43cd&#45;885b&#45;47d10ad63d11&#45;&gt;c9895267&#45;c88b&#45;4043&#45;ad85&#45;783430a22371</title>
<path fill="none" stroke="purple" d="M103.34,-260.8C103.34,-249.16 103.34,-233.55 103.34,-220.24"/>
<polygon fill="purple" stroke="purple" points="106.84,-220.18 103.34,-210.18 99.84,-220.18 106.84,-220.18"/>
<text text-anchor="middle" x="138.84" y="-231.8" font-family="Times,serif" font-size="14.00" fill="purple">Pass Data</text>
</g>
<!-- ef25ad45&#45;e9bf&#45;4d67&#45;b4ee&#45;f8b34713458a -->
<g id="node6" class="node">
<title>ef25ad45&#45;e9bf&#45;4d67&#45;b4ee&#45;f8b34713458a</title>
<ellipse fill="none" stroke="black" cx="103.34" cy="-366" rx="51.3" ry="18"/>
<text text-anchor="middle" x="103.34" y="-362.3" font-family="Times,serif" font-size="14.00">OffsetToPose</text>
</g>
<!-- ef25ad45&#45;e9bf&#45;4d67&#45;b4ee&#45;f8b34713458a&#45;&gt;607d6b53&#45;fc11&#45;43cd&#45;885b&#45;47d10ad63d11 -->
<g id="edge4" class="edge">
<title>ef25ad45&#45;e9bf&#45;4d67&#45;b4ee&#45;f8b34713458a&#45;&gt;607d6b53&#45;fc11&#45;43cd&#45;885b&#45;47d10ad63d11</title>
<path fill="none" stroke="purple" d="M103.34,-347.8C103.34,-336.16 103.34,-320.55 103.34,-307.24"/>
<polygon fill="purple" stroke="purple" points="106.84,-307.18 103.34,-297.18 99.84,-307.18 106.84,-307.18"/>
<text text-anchor="middle" x="138.84" y="-318.8" font-family="Times,serif" font-size="14.00" fill="purple">Pass Data</text>
</g>
<!-- fdf691ca&#45;3133&#45;4615&#45;8068&#45;267ea4c5dade -->
<g id="node7" class="node">
<title>fdf691ca&#45;3133&#45;4615&#45;8068&#45;267ea4c5dade</title>
<ellipse fill="none" stroke="black" cx="103.34" cy="-453" rx="32.4" ry="18"/>
<text text-anchor="middle" x="103.34" y="-449.3" font-family="Times,serif" font-size="14.00">Average</text>
</g>
<!-- fdf691ca&#45;3133&#45;4615&#45;8068&#45;267ea4c5dade&#45;&gt;ef25ad45&#45;e9bf&#45;4d67&#45;b4ee&#45;f8b34713458a -->
<g id="edge5" class="edge">
<title>fdf691ca&#45;3133&#45;4615&#45;8068&#45;267ea4c5dade&#45;&gt;ef25ad45&#45;e9bf&#45;4d67&#45;b4ee&#45;f8b34713458a</title>
<path fill="none" stroke="purple" d="M103.34,-434.8C103.34,-423.16 103.34,-407.55 103.34,-394.24"/>
<polygon fill="purple" stroke="purple" points="106.84,-394.18 103.34,-384.18 99.84,-394.18 106.84,-394.18"/>
<text text-anchor="middle" x="138.84" y="-405.8" font-family="Times,serif" font-size="14.00" fill="purple">Pass Data</text>
</g>
<!-- b1a5d113&#45;89ea&#45;4a79&#45;9ca8&#45;0ad4b91391f9 -->
<g id="node8" class="node">
<title>b1a5d113&#45;89ea&#45;4a79&#45;9ca8&#45;0ad4b91391f9</title>
<ellipse fill="none" stroke="black" cx="103.34" cy="-540" rx="61.1" ry="18"/>
<text text-anchor="middle" x="103.34" y="-536.3" font-family="Times,serif" font-size="14.00">ExtractPosition</text>
</g>
<!-- b1a5d113&#45;89ea&#45;4a79&#45;9ca8&#45;0ad4b91391f9&#45;&gt;fdf691ca&#45;3133&#45;4615&#45;8068&#45;267ea4c5dade -->
<g id="edge6" class="edge">
<title>b1a5d113&#45;89ea&#45;4a79&#45;9ca8&#45;0ad4b91391f9&#45;&gt;fdf691ca&#45;3133&#45;4615&#45;8068&#45;267ea4c5dade</title>
<path fill="none" stroke="purple" d="M103.34,-521.8C103.34,-510.16 103.34,-494.55 103.34,-481.24"/>
<polygon fill="purple" stroke="purple" points="106.84,-481.18 103.34,-471.18 99.84,-481.18 106.84,-481.18"/>
<text text-anchor="middle" x="138.84" y="-492.8" font-family="Times,serif" font-size="14.00" fill="purple">Pass Data</text>
</g>
<!-- 0f5f2894&#45;4d63&#45;4818&#45;80c0&#45;aaa2d6363b67 -->
<g id="node9" class="node">
<title>0f5f2894&#45;4d63&#45;4818&#45;80c0&#45;aaa2d6363b67</title>
<ellipse fill="none" stroke="black" cx="103.34" cy="-627" rx="27" ry="18"/>
<text text-anchor="middle" x="103.34" y="-623.3" font-family="Times,serif" font-size="14.00">ToVec</text>
</g>
<!-- 0f5f2894&#45;4d63&#45;4818&#45;80c0&#45;aaa2d6363b67&#45;&gt;b1a5d113&#45;89ea&#45;4a79&#45;9ca8&#45;0ad4b91391f9 -->
<g id="edge7" class="edge">
<title>0f5f2894&#45;4d63&#45;4818&#45;80c0&#45;aaa2d6363b67&#45;&gt;b1a5d113&#45;89ea&#45;4a79&#45;9ca8&#45;0ad4b91391f9</title>
<path fill="none" stroke="purple" d="M103.34,-608.8C103.34,-597.16 103.34,-581.55 103.34,-568.24"/>
<polygon fill="purple" stroke="purple" points="106.84,-568.18 103.34,-558.18 99.84,-568.18 106.84,-568.18"/>
<text text-anchor="middle" x="138.84" y="-579.8" font-family="Times,serif" font-size="14.00" fill="purple">Pass Data</text>
</g>
<!-- 0b6f5d5e&#45;a4b4&#45;4b93&#45;b73b&#45;792a91295f7a -->
<g id="node10" class="node">
<title>0b6f5d5e&#45;a4b4&#45;4b93&#45;b73b&#45;792a91295f7a</title>
<ellipse fill="none" stroke="black" cx="103.34" cy="-714" rx="45.2" ry="18"/>
<text text-anchor="middle" x="103.34" y="-710.3" font-family="Times,serif" font-size="14.00">Detect true</text>
</g>
<!-- 0b6f5d5e&#45;a4b4&#45;4b93&#45;b73b&#45;792a91295f7a&#45;&gt;0f5f2894&#45;4d63&#45;4818&#45;80c0&#45;aaa2d6363b67 -->
<g id="edge8" class="edge">
<title>0b6f5d5e&#45;a4b4&#45;4b93&#45;b73b&#45;792a91295f7a&#45;&gt;0f5f2894&#45;4d63&#45;4818&#45;80c0&#45;aaa2d6363b67</title>
<path fill="none" stroke="purple" d="M103.34,-695.8C103.34,-684.16 103.34,-668.55 103.34,-655.24"/>
<polygon fill="purple" stroke="purple" points="106.84,-655.18 103.34,-645.18 99.84,-655.18 106.84,-655.18"/>
<text text-anchor="middle" x="138.84" y="-666.8" font-family="Times,serif" font-size="14.00" fill="purple">Pass Data</text>
</g>
<!-- 28375ce1&#45;0ac1&#45;470d&#45;a3f2&#45;38c560ea4e5e&#45;&gt;0b6f5d5e&#45;a4b4&#45;4b93&#45;b73b&#45;792a91295f7a -->
<g id="edge9" class="edge">
<title>28375ce1&#45;0ac1&#45;470d&#45;a3f2&#45;38c560ea4e5e&#45;&gt;0b6f5d5e&#45;a4b4&#45;4b93&#45;b73b&#45;792a91295f7a</title>
<path fill="none" stroke="purple" d="M103.34,-782.8C103.34,-771.16 103.34,-755.55 103.34,-742.24"/>
<polygon fill="purple" stroke="purple" points="106.84,-742.18 103.34,-732.18 99.84,-742.18 106.84,-742.18"/>
<text text-anchor="middle" x="138.84" y="-753.8" font-family="Times,serif" font-size="14.00" fill="purple">Pass Data</text>
</g>
<!-- 47951c76&#45;7902&#45;416a&#45;99bb&#45;1236c741e10a -->
<g id="node12" class="node">
<title>47951c76&#45;7902&#45;416a&#45;99bb&#45;1236c741e10a</title>
<ellipse fill="none" stroke="black" cx="250.34" cy="-888" rx="47.1" ry="18"/>
<text text-anchor="middle" x="250.34" y="-884.3" font-family="Times,serif" font-size="14.00">DelayAction</text>
</g>
<!-- 47951c76&#45;7902&#45;416a&#45;99bb&#45;1236c741e10a&#45;&gt;28375ce1&#45;0ac1&#45;470d&#45;a3f2&#45;38c560ea4e5e -->
<g id="edge11" class="edge">
<title>47951c76&#45;7902&#45;416a&#45;99bb&#45;1236c741e10a&#45;&gt;28375ce1&#45;0ac1&#45;470d&#45;a3f2&#45;38c560ea4e5e</title>
<path fill="none" stroke="black" d="M225.4,-872.58C201.12,-858.54 164.03,-837.09 137.1,-821.52"/>
<polygon fill="black" stroke="black" points="138.81,-818.47 128.4,-816.49 135.3,-824.53 138.81,-818.47"/>
</g>
<!-- 0d70215e&#45;8a8d&#45;446c&#45;91bc&#45;c970bb6a234d -->
<g id="node13" class="node">
<title>0d70215e&#45;8a8d&#45;446c&#45;91bc&#45;c970bb6a234d</title>
<ellipse fill="none" stroke="black" cx="250.34" cy="-961" rx="59.9" ry="18"/>
<text text-anchor="middle" x="250.34" y="-957.3" font-family="Times,serif" font-size="14.00">ZeroMovement</text>
</g>
<!-- 0d70215e&#45;8a8d&#45;446c&#45;91bc&#45;c970bb6a234d&#45;&gt;47951c76&#45;7902&#45;416a&#45;99bb&#45;1236c741e10a -->
<g id="edge12" class="edge">
<title>0d70215e&#45;8a8d&#45;446c&#45;91bc&#45;c970bb6a234d&#45;&gt;47951c76&#45;7902&#45;416a&#45;99bb&#45;1236c741e10a</title>
<path fill="none" stroke="black" d="M250.34,-942.81C250.34,-934.79 250.34,-925.05 250.34,-916.07"/>
<polygon fill="black" stroke="black" points="253.84,-916.03 250.34,-906.03 246.84,-916.03 253.84,-916.03"/>
</g>
</g>
</svg>
