<?xml version="1.0" encoding="UTF-8" standalone="no"?>
<!DOCTYPE svg PUBLIC "-//W3C//DTD SVG 1.1//EN"
 "http://www.w3.org/Graphics/SVG/1.1/DTD/svg11.dtd">
<!-- Generated by graphviz version 2.43.0 (0)
 -->
<!-- Title: G Pages: 1 -->
<svg width="583pt" height="552pt"
 viewBox="0.00 0.00 582.60 552.00" xmlns="http://www.w3.org/2000/svg" xmlns:xlink="http://www.w3.org/1999/xlink">
<g id="graph0" class="graph" transform="scale(1 1) rotate(0) translate(4 548)">
<title>G</title>
<polygon fill="transparent" stroke="transparent" points="-4,4 -4,-548 578.6,-548 578.6,4 -4,4"/>
<!-- 27acf3a7&#45;b2fe&#45;4b02&#45;8e7e&#45;a94bfb303eea -->
<g id="node1" class="node">
<title>27acf3a7&#45;b2fe&#45;4b02&#45;8e7e&#45;a94bfb303eea</title>
<polygon fill="none" stroke="black" points="294.3,-384 166.67,-366 294.3,-348 421.93,-366 294.3,-384"/>
<text text-anchor="middle" x="294.3" y="-362.3" font-family="Times,serif" font-size="14.00">Consecutive True &lt; 34</text>
</g>
<!-- d9b0235b&#45;56b9&#45;4323&#45;9452&#45;2645b8712f12 -->
<g id="node5" class="node">
<title>d9b0235b&#45;56b9&#45;4323&#45;9452&#45;2645b8712f12</title>
<ellipse fill="none" stroke="black" cx="86.3" cy="-279" rx="38.5" ry="18"/>
<text text-anchor="middle" x="86.3" y="-275.3" font-family="Times,serif" font-size="14.00">ConstYaw</text>
</g>
<!-- 27acf3a7&#45;b2fe&#45;4b02&#45;8e7e&#45;a94bfb303eea&#45;&gt;d9b0235b&#45;56b9&#45;4323&#45;9452&#45;2645b8712f12 -->
<g id="edge6" class="edge">
<title>27acf3a7&#45;b2fe&#45;4b02&#45;8e7e&#45;a94bfb303eea&#45;&gt;d9b0235b&#45;56b9&#45;4323&#45;9452&#45;2645b8712f12</title>
<path fill="none" stroke="black" d="M263.16,-352.27C225.89,-337.04 163.53,-311.56 123.69,-295.28"/>
<polygon fill="black" stroke="black" points="124.9,-291.99 114.32,-291.45 122.25,-298.47 124.9,-291.99"/>
<text text-anchor="middle" x="220.3" y="-318.8" font-family="Times,serif" font-size="14.00">True</text>
</g>
<!-- 6270c2e0&#45;32c6&#45;4688&#45;aea4&#45;8c2b1de510ce -->
<g id="node8" class="node">
<title>6270c2e0&#45;32c6&#45;4688&#45;aea4&#45;8c2b1de510ce</title>
<ellipse fill="none" stroke="black" cx="294.3" cy="-279" rx="59.9" ry="18"/>
<text text-anchor="middle" x="294.3" y="-275.3" font-family="Times,serif" font-size="14.00">ZeroMovement</text>
</g>
<!-- 27acf3a7&#45;b2fe&#45;4b02&#45;8e7e&#45;a94bfb303eea&#45;&gt;6270c2e0&#45;32c6&#45;4688&#45;aea4&#45;8c2b1de510ce -->
<g id="edge7" class="edge">
<title>27acf3a7&#45;b2fe&#45;4b02&#45;8e7e&#45;a94bfb303eea&#45;&gt;6270c2e0&#45;32c6&#45;4688&#45;aea4&#45;8c2b1de510ce</title>
<path fill="none" stroke="black" d="M294.3,-347.8C294.3,-336.16 294.3,-320.55 294.3,-307.24"/>
<polygon fill="black" stroke="black" points="297.8,-307.18 294.3,-297.18 290.8,-307.18 297.8,-307.18"/>
<text text-anchor="middle" x="313.3" y="-318.8" font-family="Times,serif" font-size="14.00">False</text>
</g>
<!-- 58ce19f6&#45;082f&#45;42e0&#45;a38d&#45;594bffef36d2 -->
<g id="node2" class="node">
<title>58ce19f6&#45;082f&#45;42e0&#45;a38d&#45;594bffef36d2</title>
<ellipse fill="none" stroke="black" cx="86.3" cy="-105" rx="36.1" ry="18"/>
<text text-anchor="middle" x="86.3" y="-101.3" font-family="Times,serif" font-size="14.00">SideMult</text>
</g>
<!-- a6cb44da&#45;efcc&#45;406b&#45;a13b&#45;cb303716b64a -->
<g id="node3" class="node">
<title>a6cb44da&#45;efcc&#45;406b&#45;a13b&#45;cb303716b64a</title>
<ellipse fill="none" stroke="black" cx="86.3" cy="-18" rx="80.11" ry="18"/>
<text text-anchor="middle" x="86.3" y="-14.3" font-family="Times,serif" font-size="14.00">Stability2Movement</text>
</g>
<!-- 58ce19f6&#45;082f&#45;42e0&#45;a38d&#45;594bffef36d2&#45;&gt;a6cb44da&#45;efcc&#45;406b&#45;a13b&#45;cb303716b64a -->
<g id="edge1" class="edge">
<title>58ce19f6&#45;082f&#45;42e0&#45;a38d&#45;594bffef36d2&#45;&gt;a6cb44da&#45;efcc&#45;406b&#45;a13b&#45;cb303716b64a</title>
<path fill="none" stroke="purple" d="M86.3,-86.8C86.3,-75.16 86.3,-59.55 86.3,-46.24"/>
<polygon fill="purple" stroke="purple" points="89.8,-46.18 86.3,-36.18 82.8,-46.18 89.8,-46.18"/>
<text text-anchor="middle" x="121.8" y="-57.8" font-family="Times,serif" font-size="14.00" fill="purple">Pass Data</text>
</g>
<!-- a22f38ed&#45;11cf&#45;4582&#45;b377&#45;5612dd4dc67d -->
<g id="node4" class="node">
<title>a22f38ed&#45;11cf&#45;4582&#45;b377&#45;5612dd4dc67d</title>
<ellipse fill="none" stroke="black" cx="86.3" cy="-192" rx="27" ry="18"/>
<text text-anchor="middle" x="86.3" y="-188.3" font-family="Times,serif" font-size="14.00">SetX</text>
</g>
<!-- a22f38ed&#45;11cf&#45;4582&#45;b377&#45;5612dd4dc67d&#45;&gt;58ce19f6&#45;082f&#45;42e0&#45;a38d&#45;594bffef36d2 -->
<g id="edge2" class="edge">
<title>a22f38ed&#45;11cf&#45;4582&#45;b377&#45;5612dd4dc67d&#45;&gt;58ce19f6&#45;082f&#45;42e0&#45;a38d&#45;594bffef36d2</title>
<path fill="none" stroke="purple" d="M86.3,-173.8C86.3,-162.16 86.3,-146.55 86.3,-133.24"/>
<polygon fill="purple" stroke="purple" points="89.8,-133.18 86.3,-123.18 82.8,-133.18 89.8,-133.18"/>
<text text-anchor="middle" x="121.8" y="-144.8" font-family="Times,serif" font-size="14.00" fill="purple">Pass Data</text>
</g>
<!-- d9b0235b&#45;56b9&#45;4323&#45;9452&#45;2645b8712f12&#45;&gt;a22f38ed&#45;11cf&#45;4582&#45;b377&#45;5612dd4dc67d -->
<g id="edge3" class="edge">
<title>d9b0235b&#45;56b9&#45;4323&#45;9452&#45;2645b8712f12&#45;&gt;a22f38ed&#45;11cf&#45;4582&#45;b377&#45;5612dd4dc67d</title>
<path fill="none" stroke="purple" d="M86.3,-260.8C86.3,-249.16 86.3,-233.55 86.3,-220.24"/>
<polygon fill="purple" stroke="purple" points="89.8,-220.18 86.3,-210.18 82.8,-220.18 89.8,-220.18"/>
<text text-anchor="middle" x="121.8" y="-231.8" font-family="Times,serif" font-size="14.00" fill="purple">Pass Data</text>
</g>
<!-- e53b2230&#45;0233&#45;4732&#45;a439&#45;eb92ad8626b2 -->
<g id="node6" class="node">
<title>e53b2230&#45;0233&#45;4732&#45;a439&#45;eb92ad8626b2</title>
<ellipse fill="none" stroke="black" cx="294.3" cy="-453" rx="46.4" ry="18"/>
<text text-anchor="middle" x="294.3" y="-449.3" font-family="Times,serif" font-size="14.00">AlwaysTrue</text>
</g>
<!-- e53b2230&#45;0233&#45;4732&#45;a439&#45;eb92ad8626b2&#45;&gt;27acf3a7&#45;b2fe&#45;4b02&#45;8e7e&#45;a94bfb303eea -->
<g id="edge4" class="edge">
<title>e53b2230&#45;0233&#45;4732&#45;a439&#45;eb92ad8626b2&#45;&gt;27acf3a7&#45;b2fe&#45;4b02&#45;8e7e&#45;a94bfb303eea</title>
<path fill="none" stroke="purple" d="M294.3,-434.8C294.3,-423.16 294.3,-407.55 294.3,-394.24"/>
<polygon fill="purple" stroke="purple" points="297.8,-394.18 294.3,-384.18 290.8,-394.18 297.8,-394.18"/>
<text text-anchor="middle" x="329.8" y="-405.8" font-family="Times,serif" font-size="14.00" fill="purple">Pass Data</text>
</g>
<!-- 2fdc11ba&#45;6354&#45;41fc&#45;ab1e&#45;53cc2a38fe95 -->
<g id="node7" class="node">
<title>2fdc11ba&#45;6354&#45;41fc&#45;ab1e&#45;53cc2a38fe95</title>
<ellipse fill="none" stroke="black" cx="294.3" cy="-526" rx="47.1" ry="18"/>
<text text-anchor="middle" x="294.3" y="-522.3" font-family="Times,serif" font-size="14.00">DelayAction</text>
</g>
<!-- 2fdc11ba&#45;6354&#45;41fc&#45;ab1e&#45;53cc2a38fe95&#45;&gt;e53b2230&#45;0233&#45;4732&#45;a439&#45;eb92ad8626b2 -->
<g id="edge5" class="edge">
<title>2fdc11ba&#45;6354&#45;41fc&#45;ab1e&#45;53cc2a38fe95&#45;&gt;e53b2230&#45;0233&#45;4732&#45;a439&#45;eb92ad8626b2</title>
<path fill="none" stroke="black" d="M294.3,-507.81C294.3,-499.79 294.3,-490.05 294.3,-481.07"/>
<polygon fill="black" stroke="black" points="297.8,-481.03 294.3,-471.03 290.8,-481.03 297.8,-481.03"/>
</g>
<!-- c12c590f&#45;00c3&#45;4c72&#45;ad58&#45;09cbc96029f3 -->
<g id="node9" class="node">
<title>c12c590f&#45;00c3&#45;4c72&#45;ad58&#45;09cbc96029f3</title>
<ellipse fill="none" stroke="black" cx="47.3" cy="-366" rx="47.1" ry="18"/>
<text text-anchor="middle" x="47.3" y="-362.3" font-family="Times,serif" font-size="14.00">DelayAction</text>
</g>
<!-- c12c590f&#45;00c3&#45;4c72&#45;ad58&#45;09cbc96029f3&#45;&gt;d9b0235b&#45;56b9&#45;4323&#45;9452&#45;2645b8712f12 -->
<g id="edge8" class="edge">
<title>c12c590f&#45;00c3&#45;4c72&#45;ad58&#45;09cbc96029f3&#45;&gt;d9b0235b&#45;56b9&#45;4323&#45;9452&#45;2645b8712f12</title>
<path fill="none" stroke="black" d="M55.01,-348.21C60.51,-336.22 68.02,-319.85 74.3,-306.16"/>
<polygon fill="black" stroke="black" points="77.62,-307.31 78.61,-296.76 71.26,-304.39 77.62,-307.31"/>
</g>
<!-- e62b03ba&#45;d79e&#45;4dc6&#45;ab2e&#45;d7de902d70d8 -->
<g id="node10" class="node">
<title>e62b03ba&#45;d79e&#45;4dc6&#45;ab2e&#45;d7de902d70d8</title>
<ellipse fill="none" stroke="black" cx="494.3" cy="-526" rx="80.11" ry="18"/>
<text text-anchor="middle" x="494.3" y="-522.3" font-family="Times,serif" font-size="14.00">Stability2Movement</text>
</g>
</g>
</svg>
