<?xml version="1.0" encoding="UTF-8" standalone="no"?>
<!DOCTYPE svg PUBLIC "-//W3C//DTD SVG 1.1//EN"
 "http://www.w3.org/Graphics/SVG/1.1/DTD/svg11.dtd">
<!-- Generated by graphviz version 2.43.0 (0)
 -->
<!-- Title: G Pages: 1 -->
<svg width="743pt" height="1121pt"
 viewBox="0.00 0.00 742.80 1121.00" xmlns="http://www.w3.org/2000/svg" xmlns:xlink="http://www.w3.org/1999/xlink">
<g id="graph0" class="graph" transform="scale(1 1) rotate(0) translate(4 1117)">
<title>G</title>
<polygon fill="transparent" stroke="transparent" points="-4,4 -4,-1117 738.8,-1117 738.8,4 -4,4"/>
<g id="clust1" class="cluster">
<title>cluster_b31ed826&#45;576e&#45;4dde&#45;ab64&#45;470e41f9444c</title>
<polygon fill="transparent" stroke="blue" stroke-dasharray="5,2" points="8,-8 8,-829 280,-829 280,-8 8,-8"/>
</g>
<!-- dc0898ad&#45;805b&#45;4811&#45;9577&#45;0c2d72002b41 -->
<g id="node1" class="node">
<title>dc0898ad&#45;805b&#45;4811&#45;9577&#45;0c2d72002b41</title>
<polygon fill="none" stroke="black" points="207,-748 141.82,-730 207,-712 272.18,-730 207,-748"/>
<text text-anchor="middle" x="207" y="-726.3" font-family="Times,serif" font-size="14.00">AlwaysTrue</text>
</g>
<!-- 170d6073&#45;7c41&#45;46b3&#45;a4ff&#45;ba136a51813c -->
<g id="node19" class="node">
<title>170d6073&#45;7c41&#45;46b3&#45;a4ff&#45;ba136a51813c</title>
<ellipse fill="none" stroke="black" cx="335" cy="-643" rx="46.5" ry="18"/>
<text text-anchor="middle" x="335" y="-639.3" font-family="Times,serif" font-size="14.00">VisionNorm</text>
</g>
<!-- dc0898ad&#45;805b&#45;4811&#45;9577&#45;0c2d72002b41&#45;&gt;170d6073&#45;7c41&#45;46b3&#45;a4ff&#45;ba136a51813c -->
<g id="edge18" class="edge">
<title>dc0898ad&#45;805b&#45;4811&#45;9577&#45;0c2d72002b41&#45;&gt;170d6073&#45;7c41&#45;46b3&#45;a4ff&#45;ba136a51813c</title>
<path fill="none" stroke="black" d="M225.34,-716.82C245.78,-703.25 279.18,-681.06 303.76,-664.74"/>
<polygon fill="black" stroke="black" points="305.98,-667.47 312.38,-659.02 302.11,-661.64 305.98,-667.47"/>
<text text-anchor="middle" x="296" y="-682.8" font-family="Times,serif" font-size="14.00">True</text>
</g>
<!-- 94b18542&#45;a771&#45;4174&#45;94b1&#45;4937f39294f4 -->
<g id="node2" class="node">
<title>94b18542&#45;a771&#45;4174&#45;94b1&#45;4937f39294f4</title>
<ellipse fill="none" stroke="black" cx="95" cy="-121" rx="31.2" ry="18"/>
<text text-anchor="middle" x="95" y="-117.3" font-family="Times,serif" font-size="14.00">MinYaw</text>
</g>
<!-- 6bfdd623&#45;332b&#45;497b&#45;898a&#45;744b8916241d -->
<g id="node3" class="node">
<title>6bfdd623&#45;332b&#45;497b&#45;898a&#45;744b8916241d</title>
<ellipse fill="none" stroke="black" cx="96" cy="-34" rx="80.11" ry="18"/>
<text text-anchor="middle" x="96" y="-30.3" font-family="Times,serif" font-size="14.00">Stability1Movement</text>
</g>
<!-- 94b18542&#45;a771&#45;4174&#45;94b1&#45;4937f39294f4&#45;&gt;6bfdd623&#45;332b&#45;497b&#45;898a&#45;744b8916241d -->
<g id="edge1" class="edge">
<title>94b18542&#45;a771&#45;4174&#45;94b1&#45;4937f39294f4&#45;&gt;6bfdd623&#45;332b&#45;497b&#45;898a&#45;744b8916241d</title>
<path fill="none" stroke="purple" d="M95.2,-102.8C95.34,-91.16 95.52,-75.55 95.68,-62.24"/>
<polygon fill="purple" stroke="purple" points="99.18,-62.22 95.8,-52.18 92.18,-62.13 99.18,-62.22"/>
<text text-anchor="middle" x="131.5" y="-73.8" font-family="Times,serif" font-size="14.00" fill="purple">Pass Data</text>
</g>
<!-- c43316bb&#45;4a27&#45;4d5b&#45;bc30&#45;3e8cc4bc6e39 -->
<g id="node4" class="node">
<title>c43316bb&#45;4a27&#45;4d5b&#45;bc30&#45;3e8cc4bc6e39</title>
<ellipse fill="none" stroke="black" cx="94" cy="-208" rx="27" ry="18"/>
<text text-anchor="middle" x="94" y="-204.3" font-family="Times,serif" font-size="14.00">StripY</text>
</g>
<!-- c43316bb&#45;4a27&#45;4d5b&#45;bc30&#45;3e8cc4bc6e39&#45;&gt;94b18542&#45;a771&#45;4174&#45;94b1&#45;4937f39294f4 -->
<g id="edge2" class="edge">
<title>c43316bb&#45;4a27&#45;4d5b&#45;bc30&#45;3e8cc4bc6e39&#45;&gt;94b18542&#45;a771&#45;4174&#45;94b1&#45;4937f39294f4</title>
<path fill="none" stroke="purple" d="M94.2,-189.8C94.34,-178.16 94.52,-162.55 94.68,-149.24"/>
<polygon fill="purple" stroke="purple" points="98.18,-149.22 94.8,-139.18 91.18,-149.13 98.18,-149.22"/>
<text text-anchor="middle" x="130.5" y="-160.8" font-family="Times,serif" font-size="14.00" fill="purple">Pass Data</text>
</g>
<!-- 3c6799f5&#45;e8d5&#45;4cce&#45;bc5a&#45;79e3df55b68c -->
<g id="node5" class="node">
<title>3c6799f5&#45;e8d5&#45;4cce&#45;bc5a&#45;79e3df55b68c</title>
<ellipse fill="none" stroke="black" cx="94" cy="-295" rx="75.81" ry="18"/>
<text text-anchor="middle" x="94" y="-291.3" font-family="Times,serif" font-size="14.00">CautiousConstantX</text>
</g>
<!-- 3c6799f5&#45;e8d5&#45;4cce&#45;bc5a&#45;79e3df55b68c&#45;&gt;c43316bb&#45;4a27&#45;4d5b&#45;bc30&#45;3e8cc4bc6e39 -->
<g id="edge3" class="edge">
<title>3c6799f5&#45;e8d5&#45;4cce&#45;bc5a&#45;79e3df55b68c&#45;&gt;c43316bb&#45;4a27&#45;4d5b&#45;bc30&#45;3e8cc4bc6e39</title>
<path fill="none" stroke="purple" d="M94,-276.8C94,-265.16 94,-249.55 94,-236.24"/>
<polygon fill="purple" stroke="purple" points="97.5,-236.18 94,-226.18 90.5,-236.18 97.5,-236.18"/>
<text text-anchor="middle" x="129.5" y="-247.8" font-family="Times,serif" font-size="14.00" fill="purple">Pass Data</text>
</g>
<!-- 56b6d4d8&#45;ff01&#45;4142&#45;af58&#45;55190d590f35 -->
<g id="node6" class="node">
<title>56b6d4d8&#45;ff01&#45;4142&#45;af58&#45;55190d590f35</title>
<ellipse fill="none" stroke="black" cx="93" cy="-382" rx="67.81" ry="18"/>
<text text-anchor="middle" x="93" y="-378.3" font-family="Times,serif" font-size="14.00">LinearYawFromX</text>
</g>
<!-- 56b6d4d8&#45;ff01&#45;4142&#45;af58&#45;55190d590f35&#45;&gt;3c6799f5&#45;e8d5&#45;4cce&#45;bc5a&#45;79e3df55b68c -->
<g id="edge4" class="edge">
<title>56b6d4d8&#45;ff01&#45;4142&#45;af58&#45;55190d590f35&#45;&gt;3c6799f5&#45;e8d5&#45;4cce&#45;bc5a&#45;79e3df55b68c</title>
<path fill="none" stroke="purple" d="M93.2,-363.8C93.34,-352.16 93.52,-336.55 93.68,-323.24"/>
<polygon fill="purple" stroke="purple" points="97.18,-323.22 93.8,-313.18 90.18,-323.13 97.18,-323.22"/>
<text text-anchor="middle" x="129.5" y="-334.8" font-family="Times,serif" font-size="14.00" fill="purple">Pass Data</text>
</g>
<!-- 80dafd6a&#45;3617&#45;4172&#45;87a0&#45;938a42add34a -->
<g id="node7" class="node">
<title>80dafd6a&#45;3617&#45;4172&#45;87a0&#45;938a42add34a</title>
<ellipse fill="none" stroke="black" cx="92" cy="-469" rx="51.3" ry="18"/>
<text text-anchor="middle" x="92" y="-465.3" font-family="Times,serif" font-size="14.00">OffsetToPose</text>
</g>
<!-- 80dafd6a&#45;3617&#45;4172&#45;87a0&#45;938a42add34a&#45;&gt;56b6d4d8&#45;ff01&#45;4142&#45;af58&#45;55190d590f35 -->
<g id="edge5" class="edge">
<title>80dafd6a&#45;3617&#45;4172&#45;87a0&#45;938a42add34a&#45;&gt;56b6d4d8&#45;ff01&#45;4142&#45;af58&#45;55190d590f35</title>
<path fill="none" stroke="purple" d="M92.2,-450.8C92.34,-439.16 92.52,-423.55 92.68,-410.24"/>
<polygon fill="purple" stroke="purple" points="96.18,-410.22 92.8,-400.18 89.18,-410.13 96.18,-410.22"/>
<text text-anchor="middle" x="128.5" y="-421.8" font-family="Times,serif" font-size="14.00" fill="purple">Pass Data</text>
</g>
<!-- 531d1019&#45;d732&#45;4331&#45;b6d6&#45;73e27d77b5a4 -->
<g id="node8" class="node">
<title>531d1019&#45;d732&#45;4331&#45;b6d6&#45;73e27d77b5a4</title>
<ellipse fill="none" stroke="black" cx="91" cy="-556" rx="32.4" ry="18"/>
<text text-anchor="middle" x="91" y="-552.3" font-family="Times,serif" font-size="14.00">Average</text>
</g>
<!-- 531d1019&#45;d732&#45;4331&#45;b6d6&#45;73e27d77b5a4&#45;&gt;80dafd6a&#45;3617&#45;4172&#45;87a0&#45;938a42add34a -->
<g id="edge6" class="edge">
<title>531d1019&#45;d732&#45;4331&#45;b6d6&#45;73e27d77b5a4&#45;&gt;80dafd6a&#45;3617&#45;4172&#45;87a0&#45;938a42add34a</title>
<path fill="none" stroke="purple" d="M91.2,-537.8C91.34,-526.16 91.52,-510.55 91.68,-497.24"/>
<polygon fill="purple" stroke="purple" points="95.18,-497.22 91.8,-487.18 88.18,-497.13 95.18,-497.22"/>
<text text-anchor="middle" x="127.5" y="-508.8" font-family="Times,serif" font-size="14.00" fill="purple">Pass Data</text>
</g>
<!-- a60d61ca&#45;43ed&#45;4680&#45;914f&#45;fa3f4e31f9c6 -->
<g id="node9" class="node">
<title>a60d61ca&#45;43ed&#45;4680&#45;914f&#45;fa3f4e31f9c6</title>
<ellipse fill="none" stroke="black" cx="90" cy="-643" rx="61.1" ry="18"/>
<text text-anchor="middle" x="90" y="-639.3" font-family="Times,serif" font-size="14.00">ExtractPosition</text>
</g>
<!-- a60d61ca&#45;43ed&#45;4680&#45;914f&#45;fa3f4e31f9c6&#45;&gt;531d1019&#45;d732&#45;4331&#45;b6d6&#45;73e27d77b5a4 -->
<g id="edge7" class="edge">
<title>a60d61ca&#45;43ed&#45;4680&#45;914f&#45;fa3f4e31f9c6&#45;&gt;531d1019&#45;d732&#45;4331&#45;b6d6&#45;73e27d77b5a4</title>
<path fill="none" stroke="purple" d="M90.2,-624.8C90.34,-613.16 90.52,-597.55 90.68,-584.24"/>
<polygon fill="purple" stroke="purple" points="94.18,-584.22 90.8,-574.18 87.18,-584.13 94.18,-584.22"/>
<text text-anchor="middle" x="126.5" y="-595.8" font-family="Times,serif" font-size="14.00" fill="purple">Pass Data</text>
</g>
<!-- f1ce2b71&#45;fd38&#45;4657&#45;841a&#45;fb0340816c91 -->
<g id="node10" class="node">
<title>f1ce2b71&#45;fd38&#45;4657&#45;841a&#45;fb0340816c91</title>
<ellipse fill="none" stroke="black" cx="43" cy="-730" rx="27" ry="18"/>
<text text-anchor="middle" x="43" y="-726.3" font-family="Times,serif" font-size="14.00">ToVec</text>
</g>
<!-- f1ce2b71&#45;fd38&#45;4657&#45;841a&#45;fb0340816c91&#45;&gt;a60d61ca&#45;43ed&#45;4680&#45;914f&#45;fa3f4e31f9c6 -->
<g id="edge8" class="edge">
<title>f1ce2b71&#45;fd38&#45;4657&#45;841a&#45;fb0340816c91&#45;&gt;a60d61ca&#45;43ed&#45;4680&#45;914f&#45;fa3f4e31f9c6</title>
<path fill="none" stroke="purple" d="M52.06,-712.61C58.74,-700.54 67.95,-683.88 75.63,-670"/>
<polygon fill="purple" stroke="purple" points="78.87,-671.37 80.64,-660.92 72.74,-667.98 78.87,-671.37"/>
<text text-anchor="middle" x="105.5" y="-682.8" font-family="Times,serif" font-size="14.00" fill="purple">Pass Data</text>
</g>
<!-- 2728eb36&#45;80fb&#45;49d3&#45;8e72&#45;de28abd69841 -->
<g id="node11" class="node">
<title>2728eb36&#45;80fb&#45;49d3&#45;8e72&#45;de28abd69841</title>
<polygon fill="none" stroke="black" stroke-dasharray="5,2" points="256,-821 158,-821 158,-785 256,-785 256,-821"/>
<text text-anchor="middle" x="207" y="-799.3" font-family="Times,serif" font-size="14.00" fill="blue">Concurrent</text>
</g>
<!-- 2728eb36&#45;80fb&#45;49d3&#45;8e72&#45;de28abd69841&#45;&gt;dc0898ad&#45;805b&#45;4811&#45;9577&#45;0c2d72002b41 -->
<g id="edge10" class="edge">
<title>2728eb36&#45;80fb&#45;49d3&#45;8e72&#45;de28abd69841&#45;&gt;dc0898ad&#45;805b&#45;4811&#45;9577&#45;0c2d72002b41</title>
<path fill="none" stroke="black" d="M207,-784.81C207,-776.79 207,-767.05 207,-758.07"/>
<polygon fill="black" stroke="black" points="210.5,-758.03 207,-748.03 203.5,-758.03 210.5,-758.03"/>
</g>
<!-- 2728eb36&#45;80fb&#45;49d3&#45;8e72&#45;de28abd69841&#45;&gt;f1ce2b71&#45;fd38&#45;4657&#45;841a&#45;fb0340816c91 -->
<g id="edge9" class="edge">
<title>2728eb36&#45;80fb&#45;49d3&#45;8e72&#45;de28abd69841&#45;&gt;f1ce2b71&#45;fd38&#45;4657&#45;841a&#45;fb0340816c91</title>
<path fill="none" stroke="black" d="M167.72,-784.99C139.19,-772.64 101.1,-756.15 74.55,-744.66"/>
<polygon fill="black" stroke="black" points="75.89,-741.43 65.32,-740.66 73.11,-747.85 75.89,-741.43"/>
</g>
<!-- 79f75f97&#45;5067&#45;416c&#45;a3e6&#45;255f8e458a53 -->
<g id="node12" class="node">
<title>79f75f97&#45;5067&#45;416c&#45;a3e6&#45;255f8e458a53</title>
<ellipse fill="none" stroke="black" cx="660" cy="-1022" rx="33.6" ry="18"/>
<text text-anchor="middle" x="660" y="-1018.3" font-family="Times,serif" font-size="14.00">Descend</text>
</g>
<!-- c89fd0d7&#45;8f2e&#45;424c&#45;8299&#45;1154edf97def -->
<g id="node13" class="node">
<title>c89fd0d7&#45;8f2e&#45;424c&#45;8299&#45;1154edf97def</title>
<ellipse fill="none" stroke="black" cx="660" cy="-949" rx="47.1" ry="18"/>
<text text-anchor="middle" x="660" y="-945.3" font-family="Times,serif" font-size="14.00">DelayAction</text>
</g>
<!-- 79f75f97&#45;5067&#45;416c&#45;a3e6&#45;255f8e458a53&#45;&gt;c89fd0d7&#45;8f2e&#45;424c&#45;8299&#45;1154edf97def -->
<g id="edge11" class="edge">
<title>79f75f97&#45;5067&#45;416c&#45;a3e6&#45;255f8e458a53&#45;&gt;c89fd0d7&#45;8f2e&#45;424c&#45;8299&#45;1154edf97def</title>
<path fill="none" stroke="black" d="M660,-1003.81C660,-995.79 660,-986.05 660,-977.07"/>
<polygon fill="black" stroke="black" points="663.5,-977.03 660,-967.03 656.5,-977.03 663.5,-977.03"/>
</g>
<!-- ece7f59c&#45;c207&#45;412f&#45;a387&#45;718a59d6aa4e -->
<g id="node14" class="node">
<title>ece7f59c&#45;c207&#45;412f&#45;a387&#45;718a59d6aa4e</title>
<ellipse fill="none" stroke="black" cx="660" cy="-876" rx="74.61" ry="18"/>
<text text-anchor="middle" x="660" y="-872.3" font-family="Times,serif" font-size="14.00">StraightMovement</text>
</g>
<!-- c89fd0d7&#45;8f2e&#45;424c&#45;8299&#45;1154edf97def&#45;&gt;ece7f59c&#45;c207&#45;412f&#45;a387&#45;718a59d6aa4e -->
<g id="edge14" class="edge">
<title>c89fd0d7&#45;8f2e&#45;424c&#45;8299&#45;1154edf97def&#45;&gt;ece7f59c&#45;c207&#45;412f&#45;a387&#45;718a59d6aa4e</title>
<path fill="none" stroke="black" d="M660,-930.81C660,-922.79 660,-913.05 660,-904.07"/>
<polygon fill="black" stroke="black" points="663.5,-904.03 660,-894.03 656.5,-904.03 663.5,-904.03"/>
</g>
<!-- f4d5a644&#45;69dd&#45;4ac3&#45;873b&#45;af99e8ce5b88 -->
<g id="node15" class="node">
<title>f4d5a644&#45;69dd&#45;4ac3&#45;873b&#45;af99e8ce5b88</title>
<ellipse fill="none" stroke="black" cx="660" cy="-803" rx="47.1" ry="18"/>
<text text-anchor="middle" x="660" y="-799.3" font-family="Times,serif" font-size="14.00">DelayAction</text>
</g>
<!-- ece7f59c&#45;c207&#45;412f&#45;a387&#45;718a59d6aa4e&#45;&gt;f4d5a644&#45;69dd&#45;4ac3&#45;873b&#45;af99e8ce5b88 -->
<g id="edge12" class="edge">
<title>ece7f59c&#45;c207&#45;412f&#45;a387&#45;718a59d6aa4e&#45;&gt;f4d5a644&#45;69dd&#45;4ac3&#45;873b&#45;af99e8ce5b88</title>
<path fill="none" stroke="black" d="M660,-857.81C660,-849.79 660,-840.05 660,-831.07"/>
<polygon fill="black" stroke="black" points="663.5,-831.03 660,-821.03 656.5,-831.03 663.5,-831.03"/>
</g>
<!-- e946bd0d&#45;9416&#45;4591&#45;ab5d&#45;1a8ee255d2a7 -->
<g id="node16" class="node">
<title>e946bd0d&#45;9416&#45;4591&#45;ab5d&#45;1a8ee255d2a7</title>
<ellipse fill="none" stroke="black" cx="660" cy="-730" rx="59.9" ry="18"/>
<text text-anchor="middle" x="660" y="-726.3" font-family="Times,serif" font-size="14.00">ZeroMovement</text>
</g>
<!-- f4d5a644&#45;69dd&#45;4ac3&#45;873b&#45;af99e8ce5b88&#45;&gt;e946bd0d&#45;9416&#45;4591&#45;ab5d&#45;1a8ee255d2a7 -->
<g id="edge13" class="edge">
<title>f4d5a644&#45;69dd&#45;4ac3&#45;873b&#45;af99e8ce5b88&#45;&gt;e946bd0d&#45;9416&#45;4591&#45;ab5d&#45;1a8ee255d2a7</title>
<path fill="none" stroke="black" d="M660,-784.81C660,-776.79 660,-767.05 660,-758.07"/>
<polygon fill="black" stroke="black" points="663.5,-758.03 660,-748.03 656.5,-758.03 663.5,-758.03"/>
</g>
<!-- e946bd0d&#45;9416&#45;4591&#45;ab5d&#45;1a8ee255d2a7&#45;&gt;170d6073&#45;7c41&#45;46b3&#45;a4ff&#45;ba136a51813c -->
<g id="edge19" class="edge">
<title>e946bd0d&#45;9416&#45;4591&#45;ab5d&#45;1a8ee255d2a7&#45;&gt;170d6073&#45;7c41&#45;46b3&#45;a4ff&#45;ba136a51813c</title>
<path fill="none" stroke="black" d="M639.53,-712.83C624.07,-701.49 601.85,-686.98 580,-679 518.08,-656.38 442.38,-648.3 391.65,-645.46"/>
<polygon fill="black" stroke="black" points="391.7,-641.96 381.54,-644.94 391.35,-648.95 391.7,-641.96"/>
</g>
<!-- e55cdc64&#45;4605&#45;48bc&#45;b756&#45;33544304d832 -->
<g id="node17" class="node">
<title>e55cdc64&#45;4605&#45;48bc&#45;b756&#45;33544304d832</title>
<ellipse fill="none" stroke="black" cx="660" cy="-1095" rx="34.8" ry="18"/>
<text text-anchor="middle" x="660" y="-1091.3" font-family="Times,serif" font-size="14.00">WaitArm</text>
</g>
<!-- e55cdc64&#45;4605&#45;48bc&#45;b756&#45;33544304d832&#45;&gt;79f75f97&#45;5067&#45;416c&#45;a3e6&#45;255f8e458a53 -->
<g id="edge15" class="edge">
<title>e55cdc64&#45;4605&#45;48bc&#45;b756&#45;33544304d832&#45;&gt;79f75f97&#45;5067&#45;416c&#45;a3e6&#45;255f8e458a53</title>
<path fill="none" stroke="black" d="M660,-1076.81C660,-1068.79 660,-1059.05 660,-1050.07"/>
<polygon fill="black" stroke="black" points="663.5,-1050.03 660,-1040.03 656.5,-1050.03 663.5,-1050.03"/>
</g>
<!-- bf113993&#45;fead&#45;411c&#45;9040&#45;2c4856b9c3d3 -->
<g id="node18" class="node">
<title>bf113993&#45;fead&#45;411c&#45;9040&#45;2c4856b9c3d3</title>
<ellipse fill="none" stroke="black" cx="430" cy="-556" rx="48.3" ry="18"/>
<text text-anchor="middle" x="430" y="-552.3" font-family="Times,serif" font-size="14.00">Detect Buoy</text>
</g>
<!-- bf113993&#45;fead&#45;411c&#45;9040&#45;2c4856b9c3d3&#45;&gt;2728eb36&#45;80fb&#45;49d3&#45;8e72&#45;de28abd69841 -->
<g id="edge16" class="edge">
<title>bf113993&#45;fead&#45;411c&#45;9040&#45;2c4856b9c3d3&#45;&gt;2728eb36&#45;80fb&#45;49d3&#45;8e72&#45;de28abd69841</title>
<path fill="none" stroke="purple" d="M442.64,-573.8C448.32,-583.35 453.11,-595.64 450,-607 442.63,-633.91 436.36,-640 418,-661 371.25,-714.49 299.68,-756.54 253.1,-780.34"/>
<polygon fill="purple" stroke="purple" points="251.49,-777.23 244.14,-784.85 254.64,-783.48 251.49,-777.23"/>
<text text-anchor="middle" x="434.5" y="-682.8" font-family="Times,serif" font-size="14.00" fill="purple">Pass Data</text>
</g>
<!-- 170d6073&#45;7c41&#45;46b3&#45;a4ff&#45;ba136a51813c&#45;&gt;bf113993&#45;fead&#45;411c&#45;9040&#45;2c4856b9c3d3 -->
<g id="edge17" class="edge">
<title>170d6073&#45;7c41&#45;46b3&#45;a4ff&#45;ba136a51813c&#45;&gt;bf113993&#45;fead&#45;411c&#45;9040&#45;2c4856b9c3d3</title>
<path fill="none" stroke="purple" d="M342.26,-625.14C347.43,-614.63 355.19,-601.37 365,-592 372.09,-585.23 380.74,-579.39 389.39,-574.52"/>
<polygon fill="purple" stroke="purple" points="391.12,-577.56 398.33,-569.79 387.85,-571.37 391.12,-577.56"/>
<text text-anchor="middle" x="400.5" y="-595.8" font-family="Times,serif" font-size="14.00" fill="purple">Pass Data</text>
</g>
</g>
</svg>
