<?xml version="1.0" encoding="UTF-8" standalone="no"?>
<!DOCTYPE svg PUBLIC "-//W3C//DTD SVG 1.1//EN"
 "http://www.w3.org/Graphics/SVG/1.1/DTD/svg11.dtd">
<!-- Generated by graphviz version 2.43.0 (0)
 -->
<!-- Title: G Pages: 1 -->
<svg width="583pt" height="552pt"
 viewBox="0.00 0.00 582.60 552.00" xmlns="http://www.w3.org/2000/svg" xmlns:xlink="http://www.w3.org/1999/xlink">
<g id="graph0" class="graph" transform="scale(1 1) rotate(0) translate(4 548)">
<title>G</title>
<polygon fill="transparent" stroke="transparent" points="-4,4 -4,-548 578.6,-548 578.6,4 -4,4"/>
<!-- 0a010f11&#45;5c4c&#45;4a6d&#45;9b6d&#45;c0ae94423068 -->
<g id="node1" class="node">
<title>0a010f11&#45;5c4c&#45;4a6d&#45;9b6d&#45;c0ae94423068</title>
<polygon fill="none" stroke="black" points="294.3,-384 166.67,-366 294.3,-348 421.93,-366 294.3,-384"/>
<text text-anchor="middle" x="294.3" y="-362.3" font-family="Times,serif" font-size="14.00">Consecutive True &lt; 34</text>
</g>
<!-- c39b9cd5&#45;a41f&#45;47d0&#45;a64e&#45;bd64e1b5ce6e -->
<g id="node5" class="node">
<title>c39b9cd5&#45;a41f&#45;47d0&#45;a64e&#45;bd64e1b5ce6e</title>
<ellipse fill="none" stroke="black" cx="86.3" cy="-279" rx="38.5" ry="18"/>
<text text-anchor="middle" x="86.3" y="-275.3" font-family="Times,serif" font-size="14.00">ConstYaw</text>
</g>
<!-- 0a010f11&#45;5c4c&#45;4a6d&#45;9b6d&#45;c0ae94423068&#45;&gt;c39b9cd5&#45;a41f&#45;47d0&#45;a64e&#45;bd64e1b5ce6e -->
<g id="edge6" class="edge">
<title>0a010f11&#45;5c4c&#45;4a6d&#45;9b6d&#45;c0ae94423068&#45;&gt;c39b9cd5&#45;a41f&#45;47d0&#45;a64e&#45;bd64e1b5ce6e</title>
<path fill="none" stroke="black" d="M263.16,-352.27C225.89,-337.04 163.53,-311.56 123.69,-295.28"/>
<polygon fill="black" stroke="black" points="124.9,-291.99 114.32,-291.45 122.25,-298.47 124.9,-291.99"/>
<text text-anchor="middle" x="220.3" y="-318.8" font-family="Times,serif" font-size="14.00">True</text>
</g>
<!-- 1aa4b8f4&#45;adea&#45;4079&#45;97f0&#45;0e0d95dadcf1 -->
<g id="node8" class="node">
<title>1aa4b8f4&#45;adea&#45;4079&#45;97f0&#45;0e0d95dadcf1</title>
<ellipse fill="none" stroke="black" cx="294.3" cy="-279" rx="59.9" ry="18"/>
<text text-anchor="middle" x="294.3" y="-275.3" font-family="Times,serif" font-size="14.00">ZeroMovement</text>
</g>
<!-- 0a010f11&#45;5c4c&#45;4a6d&#45;9b6d&#45;c0ae94423068&#45;&gt;1aa4b8f4&#45;adea&#45;4079&#45;97f0&#45;0e0d95dadcf1 -->
<g id="edge7" class="edge">
<title>0a010f11&#45;5c4c&#45;4a6d&#45;9b6d&#45;c0ae94423068&#45;&gt;1aa4b8f4&#45;adea&#45;4079&#45;97f0&#45;0e0d95dadcf1</title>
<path fill="none" stroke="black" d="M294.3,-347.8C294.3,-336.16 294.3,-320.55 294.3,-307.24"/>
<polygon fill="black" stroke="black" points="297.8,-307.18 294.3,-297.18 290.8,-307.18 297.8,-307.18"/>
<text text-anchor="middle" x="313.3" y="-318.8" font-family="Times,serif" font-size="14.00">False</text>
</g>
<!-- 135a5330&#45;70d6&#45;4879&#45;a301&#45;3fdd68ba9dda -->
<g id="node2" class="node">
<title>135a5330&#45;70d6&#45;4879&#45;a301&#45;3fdd68ba9dda</title>
<ellipse fill="none" stroke="black" cx="86.3" cy="-105" rx="36.1" ry="18"/>
<text text-anchor="middle" x="86.3" y="-101.3" font-family="Times,serif" font-size="14.00">SideMult</text>
</g>
<!-- 03e220eb&#45;9fdc&#45;4c19&#45;a812&#45;e4014986956f -->
<g id="node3" class="node">
<title>03e220eb&#45;9fdc&#45;4c19&#45;a812&#45;e4014986956f</title>
<ellipse fill="none" stroke="black" cx="86.3" cy="-18" rx="80.11" ry="18"/>
<text text-anchor="middle" x="86.3" y="-14.3" font-family="Times,serif" font-size="14.00">Stability2Movement</text>
</g>
<!-- 135a5330&#45;70d6&#45;4879&#45;a301&#45;3fdd68ba9dda&#45;&gt;03e220eb&#45;9fdc&#45;4c19&#45;a812&#45;e4014986956f -->
<g id="edge1" class="edge">
<title>135a5330&#45;70d6&#45;4879&#45;a301&#45;3fdd68ba9dda&#45;&gt;03e220eb&#45;9fdc&#45;4c19&#45;a812&#45;e4014986956f</title>
<path fill="none" stroke="purple" d="M86.3,-86.8C86.3,-75.16 86.3,-59.55 86.3,-46.24"/>
<polygon fill="purple" stroke="purple" points="89.8,-46.18 86.3,-36.18 82.8,-46.18 89.8,-46.18"/>
<text text-anchor="middle" x="121.8" y="-57.8" font-family="Times,serif" font-size="14.00" fill="purple">Pass Data</text>
</g>
<!-- 2eb199e5&#45;3be0&#45;482a&#45;a05b&#45;0ec6b14036d6 -->
<g id="node4" class="node">
<title>2eb199e5&#45;3be0&#45;482a&#45;a05b&#45;0ec6b14036d6</title>
<ellipse fill="none" stroke="black" cx="86.3" cy="-192" rx="27" ry="18"/>
<text text-anchor="middle" x="86.3" y="-188.3" font-family="Times,serif" font-size="14.00">SetX</text>
</g>
<!-- 2eb199e5&#45;3be0&#45;482a&#45;a05b&#45;0ec6b14036d6&#45;&gt;135a5330&#45;70d6&#45;4879&#45;a301&#45;3fdd68ba9dda -->
<g id="edge2" class="edge">
<title>2eb199e5&#45;3be0&#45;482a&#45;a05b&#45;0ec6b14036d6&#45;&gt;135a5330&#45;70d6&#45;4879&#45;a301&#45;3fdd68ba9dda</title>
<path fill="none" stroke="purple" d="M86.3,-173.8C86.3,-162.16 86.3,-146.55 86.3,-133.24"/>
<polygon fill="purple" stroke="purple" points="89.8,-133.18 86.3,-123.18 82.8,-133.18 89.8,-133.18"/>
<text text-anchor="middle" x="121.8" y="-144.8" font-family="Times,serif" font-size="14.00" fill="purple">Pass Data</text>
</g>
<!-- c39b9cd5&#45;a41f&#45;47d0&#45;a64e&#45;bd64e1b5ce6e&#45;&gt;2eb199e5&#45;3be0&#45;482a&#45;a05b&#45;0ec6b14036d6 -->
<g id="edge3" class="edge">
<title>c39b9cd5&#45;a41f&#45;47d0&#45;a64e&#45;bd64e1b5ce6e&#45;&gt;2eb199e5&#45;3be0&#45;482a&#45;a05b&#45;0ec6b14036d6</title>
<path fill="none" stroke="purple" d="M86.3,-260.8C86.3,-249.16 86.3,-233.55 86.3,-220.24"/>
<polygon fill="purple" stroke="purple" points="89.8,-220.18 86.3,-210.18 82.8,-220.18 89.8,-220.18"/>
<text text-anchor="middle" x="121.8" y="-231.8" font-family="Times,serif" font-size="14.00" fill="purple">Pass Data</text>
</g>
<!-- 490a3d30&#45;7fe2&#45;4a67&#45;9844&#45;18749f941087 -->
<g id="node6" class="node">
<title>490a3d30&#45;7fe2&#45;4a67&#45;9844&#45;18749f941087</title>
<ellipse fill="none" stroke="black" cx="294.3" cy="-453" rx="46.4" ry="18"/>
<text text-anchor="middle" x="294.3" y="-449.3" font-family="Times,serif" font-size="14.00">AlwaysTrue</text>
</g>
<!-- 490a3d30&#45;7fe2&#45;4a67&#45;9844&#45;18749f941087&#45;&gt;0a010f11&#45;5c4c&#45;4a6d&#45;9b6d&#45;c0ae94423068 -->
<g id="edge4" class="edge">
<title>490a3d30&#45;7fe2&#45;4a67&#45;9844&#45;18749f941087&#45;&gt;0a010f11&#45;5c4c&#45;4a6d&#45;9b6d&#45;c0ae94423068</title>
<path fill="none" stroke="purple" d="M294.3,-434.8C294.3,-423.16 294.3,-407.55 294.3,-394.24"/>
<polygon fill="purple" stroke="purple" points="297.8,-394.18 294.3,-384.18 290.8,-394.18 297.8,-394.18"/>
<text text-anchor="middle" x="329.8" y="-405.8" font-family="Times,serif" font-size="14.00" fill="purple">Pass Data</text>
</g>
<!-- ae7223d8&#45;bb68&#45;419a&#45;bca8&#45;b95650b39969 -->
<g id="node7" class="node">
<title>ae7223d8&#45;bb68&#45;419a&#45;bca8&#45;b95650b39969</title>
<ellipse fill="none" stroke="black" cx="294.3" cy="-526" rx="47.1" ry="18"/>
<text text-anchor="middle" x="294.3" y="-522.3" font-family="Times,serif" font-size="14.00">DelayAction</text>
</g>
<!-- ae7223d8&#45;bb68&#45;419a&#45;bca8&#45;b95650b39969&#45;&gt;490a3d30&#45;7fe2&#45;4a67&#45;9844&#45;18749f941087 -->
<g id="edge5" class="edge">
<title>ae7223d8&#45;bb68&#45;419a&#45;bca8&#45;b95650b39969&#45;&gt;490a3d30&#45;7fe2&#45;4a67&#45;9844&#45;18749f941087</title>
<path fill="none" stroke="black" d="M294.3,-507.81C294.3,-499.79 294.3,-490.05 294.3,-481.07"/>
<polygon fill="black" stroke="black" points="297.8,-481.03 294.3,-471.03 290.8,-481.03 297.8,-481.03"/>
</g>
<!-- 497047de&#45;7a07&#45;4341&#45;af92&#45;3349c3cca167 -->
<g id="node9" class="node">
<title>497047de&#45;7a07&#45;4341&#45;af92&#45;3349c3cca167</title>
<ellipse fill="none" stroke="black" cx="47.3" cy="-366" rx="47.1" ry="18"/>
<text text-anchor="middle" x="47.3" y="-362.3" font-family="Times,serif" font-size="14.00">DelayAction</text>
</g>
<!-- 497047de&#45;7a07&#45;4341&#45;af92&#45;3349c3cca167&#45;&gt;c39b9cd5&#45;a41f&#45;47d0&#45;a64e&#45;bd64e1b5ce6e -->
<g id="edge8" class="edge">
<title>497047de&#45;7a07&#45;4341&#45;af92&#45;3349c3cca167&#45;&gt;c39b9cd5&#45;a41f&#45;47d0&#45;a64e&#45;bd64e1b5ce6e</title>
<path fill="none" stroke="black" d="M55.01,-348.21C60.51,-336.22 68.02,-319.85 74.3,-306.16"/>
<polygon fill="black" stroke="black" points="77.62,-307.31 78.61,-296.76 71.26,-304.39 77.62,-307.31"/>
</g>
<!-- b11abc58&#45;a0f5&#45;4546&#45;8deb&#45;ebe795073f4e -->
<g id="node10" class="node">
<title>b11abc58&#45;a0f5&#45;4546&#45;8deb&#45;ebe795073f4e</title>
<ellipse fill="none" stroke="black" cx="494.3" cy="-526" rx="80.11" ry="18"/>
<text text-anchor="middle" x="494.3" y="-522.3" font-family="Times,serif" font-size="14.00">Stability2Movement</text>
</g>
</g>
</svg>
