<?xml version="1.0" encoding="UTF-8" standalone="no"?>
<!DOCTYPE svg PUBLIC "-//W3C//DTD SVG 1.1//EN"
 "http://www.w3.org/Graphics/SVG/1.1/DTD/svg11.dtd">
<!-- Generated by graphviz version 2.43.0 (0)
 -->
<!-- Title: G Pages: 1 -->
<svg width="583pt" height="552pt"
 viewBox="0.00 0.00 582.60 552.00" xmlns="http://www.w3.org/2000/svg" xmlns:xlink="http://www.w3.org/1999/xlink">
<g id="graph0" class="graph" transform="scale(1 1) rotate(0) translate(4 548)">
<title>G</title>
<polygon fill="transparent" stroke="transparent" points="-4,4 -4,-548 578.6,-548 578.6,4 -4,4"/>
<!-- 00b136ae&#45;e187&#45;4abd&#45;bff4&#45;9ec03f204776 -->
<g id="node1" class="node">
<title>00b136ae&#45;e187&#45;4abd&#45;bff4&#45;9ec03f204776</title>
<polygon fill="none" stroke="black" points="294.3,-384 166.67,-366 294.3,-348 421.93,-366 294.3,-384"/>
<text text-anchor="middle" x="294.3" y="-362.3" font-family="Times,serif" font-size="14.00">Consecutive True &lt; 34</text>
</g>
<!-- 25a2376b&#45;93a0&#45;458b&#45;81ff&#45;a4b285883527 -->
<g id="node5" class="node">
<title>25a2376b&#45;93a0&#45;458b&#45;81ff&#45;a4b285883527</title>
<ellipse fill="none" stroke="black" cx="86.3" cy="-279" rx="38.5" ry="18"/>
<text text-anchor="middle" x="86.3" y="-275.3" font-family="Times,serif" font-size="14.00">ConstYaw</text>
</g>
<!-- 00b136ae&#45;e187&#45;4abd&#45;bff4&#45;9ec03f204776&#45;&gt;25a2376b&#45;93a0&#45;458b&#45;81ff&#45;a4b285883527 -->
<g id="edge6" class="edge">
<title>00b136ae&#45;e187&#45;4abd&#45;bff4&#45;9ec03f204776&#45;&gt;25a2376b&#45;93a0&#45;458b&#45;81ff&#45;a4b285883527</title>
<path fill="none" stroke="black" d="M263.16,-352.27C225.89,-337.04 163.53,-311.56 123.69,-295.28"/>
<polygon fill="black" stroke="black" points="124.9,-291.99 114.32,-291.45 122.25,-298.47 124.9,-291.99"/>
<text text-anchor="middle" x="220.3" y="-318.8" font-family="Times,serif" font-size="14.00">True</text>
</g>
<!-- ba8c55fd&#45;0a8a&#45;420c&#45;9bcc&#45;2a33b57c4d0a -->
<g id="node8" class="node">
<title>ba8c55fd&#45;0a8a&#45;420c&#45;9bcc&#45;2a33b57c4d0a</title>
<ellipse fill="none" stroke="black" cx="294.3" cy="-279" rx="59.9" ry="18"/>
<text text-anchor="middle" x="294.3" y="-275.3" font-family="Times,serif" font-size="14.00">ZeroMovement</text>
</g>
<!-- 00b136ae&#45;e187&#45;4abd&#45;bff4&#45;9ec03f204776&#45;&gt;ba8c55fd&#45;0a8a&#45;420c&#45;9bcc&#45;2a33b57c4d0a -->
<g id="edge7" class="edge">
<title>00b136ae&#45;e187&#45;4abd&#45;bff4&#45;9ec03f204776&#45;&gt;ba8c55fd&#45;0a8a&#45;420c&#45;9bcc&#45;2a33b57c4d0a</title>
<path fill="none" stroke="black" d="M294.3,-347.8C294.3,-336.16 294.3,-320.55 294.3,-307.24"/>
<polygon fill="black" stroke="black" points="297.8,-307.18 294.3,-297.18 290.8,-307.18 297.8,-307.18"/>
<text text-anchor="middle" x="313.3" y="-318.8" font-family="Times,serif" font-size="14.00">False</text>
</g>
<!-- 8e851203&#45;a33c&#45;4bff&#45;a288&#45;9c2c264b05ff -->
<g id="node2" class="node">
<title>8e851203&#45;a33c&#45;4bff&#45;a288&#45;9c2c264b05ff</title>
<ellipse fill="none" stroke="black" cx="86.3" cy="-105" rx="36.1" ry="18"/>
<text text-anchor="middle" x="86.3" y="-101.3" font-family="Times,serif" font-size="14.00">SideMult</text>
</g>
<!-- 64d79394&#45;913e&#45;4515&#45;9ab7&#45;da39bf7fa01c -->
<g id="node3" class="node">
<title>64d79394&#45;913e&#45;4515&#45;9ab7&#45;da39bf7fa01c</title>
<ellipse fill="none" stroke="black" cx="86.3" cy="-18" rx="80.11" ry="18"/>
<text text-anchor="middle" x="86.3" y="-14.3" font-family="Times,serif" font-size="14.00">Stability2Movement</text>
</g>
<!-- 8e851203&#45;a33c&#45;4bff&#45;a288&#45;9c2c264b05ff&#45;&gt;64d79394&#45;913e&#45;4515&#45;9ab7&#45;da39bf7fa01c -->
<g id="edge1" class="edge">
<title>8e851203&#45;a33c&#45;4bff&#45;a288&#45;9c2c264b05ff&#45;&gt;64d79394&#45;913e&#45;4515&#45;9ab7&#45;da39bf7fa01c</title>
<path fill="none" stroke="purple" d="M86.3,-86.8C86.3,-75.16 86.3,-59.55 86.3,-46.24"/>
<polygon fill="purple" stroke="purple" points="89.8,-46.18 86.3,-36.18 82.8,-46.18 89.8,-46.18"/>
<text text-anchor="middle" x="121.8" y="-57.8" font-family="Times,serif" font-size="14.00" fill="purple">Pass Data</text>
</g>
<!-- 84672c97&#45;32ec&#45;4b74&#45;9676&#45;7efababb54fb -->
<g id="node4" class="node">
<title>84672c97&#45;32ec&#45;4b74&#45;9676&#45;7efababb54fb</title>
<ellipse fill="none" stroke="black" cx="86.3" cy="-192" rx="27" ry="18"/>
<text text-anchor="middle" x="86.3" y="-188.3" font-family="Times,serif" font-size="14.00">SetX</text>
</g>
<!-- 84672c97&#45;32ec&#45;4b74&#45;9676&#45;7efababb54fb&#45;&gt;8e851203&#45;a33c&#45;4bff&#45;a288&#45;9c2c264b05ff -->
<g id="edge2" class="edge">
<title>84672c97&#45;32ec&#45;4b74&#45;9676&#45;7efababb54fb&#45;&gt;8e851203&#45;a33c&#45;4bff&#45;a288&#45;9c2c264b05ff</title>
<path fill="none" stroke="purple" d="M86.3,-173.8C86.3,-162.16 86.3,-146.55 86.3,-133.24"/>
<polygon fill="purple" stroke="purple" points="89.8,-133.18 86.3,-123.18 82.8,-133.18 89.8,-133.18"/>
<text text-anchor="middle" x="121.8" y="-144.8" font-family="Times,serif" font-size="14.00" fill="purple">Pass Data</text>
</g>
<!-- 25a2376b&#45;93a0&#45;458b&#45;81ff&#45;a4b285883527&#45;&gt;84672c97&#45;32ec&#45;4b74&#45;9676&#45;7efababb54fb -->
<g id="edge3" class="edge">
<title>25a2376b&#45;93a0&#45;458b&#45;81ff&#45;a4b285883527&#45;&gt;84672c97&#45;32ec&#45;4b74&#45;9676&#45;7efababb54fb</title>
<path fill="none" stroke="purple" d="M86.3,-260.8C86.3,-249.16 86.3,-233.55 86.3,-220.24"/>
<polygon fill="purple" stroke="purple" points="89.8,-220.18 86.3,-210.18 82.8,-220.18 89.8,-220.18"/>
<text text-anchor="middle" x="121.8" y="-231.8" font-family="Times,serif" font-size="14.00" fill="purple">Pass Data</text>
</g>
<!-- dfc91aea&#45;7179&#45;4d94&#45;8f1e&#45;37160c859bf0 -->
<g id="node6" class="node">
<title>dfc91aea&#45;7179&#45;4d94&#45;8f1e&#45;37160c859bf0</title>
<ellipse fill="none" stroke="black" cx="294.3" cy="-453" rx="46.4" ry="18"/>
<text text-anchor="middle" x="294.3" y="-449.3" font-family="Times,serif" font-size="14.00">AlwaysTrue</text>
</g>
<!-- dfc91aea&#45;7179&#45;4d94&#45;8f1e&#45;37160c859bf0&#45;&gt;00b136ae&#45;e187&#45;4abd&#45;bff4&#45;9ec03f204776 -->
<g id="edge4" class="edge">
<title>dfc91aea&#45;7179&#45;4d94&#45;8f1e&#45;37160c859bf0&#45;&gt;00b136ae&#45;e187&#45;4abd&#45;bff4&#45;9ec03f204776</title>
<path fill="none" stroke="purple" d="M294.3,-434.8C294.3,-423.16 294.3,-407.55 294.3,-394.24"/>
<polygon fill="purple" stroke="purple" points="297.8,-394.18 294.3,-384.18 290.8,-394.18 297.8,-394.18"/>
<text text-anchor="middle" x="329.8" y="-405.8" font-family="Times,serif" font-size="14.00" fill="purple">Pass Data</text>
</g>
<!-- 8cc5c355&#45;a877&#45;4bfa&#45;8417&#45;661884473e77 -->
<g id="node7" class="node">
<title>8cc5c355&#45;a877&#45;4bfa&#45;8417&#45;661884473e77</title>
<ellipse fill="none" stroke="black" cx="294.3" cy="-526" rx="47.1" ry="18"/>
<text text-anchor="middle" x="294.3" y="-522.3" font-family="Times,serif" font-size="14.00">DelayAction</text>
</g>
<!-- 8cc5c355&#45;a877&#45;4bfa&#45;8417&#45;661884473e77&#45;&gt;dfc91aea&#45;7179&#45;4d94&#45;8f1e&#45;37160c859bf0 -->
<g id="edge5" class="edge">
<title>8cc5c355&#45;a877&#45;4bfa&#45;8417&#45;661884473e77&#45;&gt;dfc91aea&#45;7179&#45;4d94&#45;8f1e&#45;37160c859bf0</title>
<path fill="none" stroke="black" d="M294.3,-507.81C294.3,-499.79 294.3,-490.05 294.3,-481.07"/>
<polygon fill="black" stroke="black" points="297.8,-481.03 294.3,-471.03 290.8,-481.03 297.8,-481.03"/>
</g>
<!-- 10063367&#45;c0a7&#45;4ac0&#45;92f0&#45;adb76bbba489 -->
<g id="node9" class="node">
<title>10063367&#45;c0a7&#45;4ac0&#45;92f0&#45;adb76bbba489</title>
<ellipse fill="none" stroke="black" cx="47.3" cy="-366" rx="47.1" ry="18"/>
<text text-anchor="middle" x="47.3" y="-362.3" font-family="Times,serif" font-size="14.00">DelayAction</text>
</g>
<!-- 10063367&#45;c0a7&#45;4ac0&#45;92f0&#45;adb76bbba489&#45;&gt;25a2376b&#45;93a0&#45;458b&#45;81ff&#45;a4b285883527 -->
<g id="edge8" class="edge">
<title>10063367&#45;c0a7&#45;4ac0&#45;92f0&#45;adb76bbba489&#45;&gt;25a2376b&#45;93a0&#45;458b&#45;81ff&#45;a4b285883527</title>
<path fill="none" stroke="black" d="M55.01,-348.21C60.51,-336.22 68.02,-319.85 74.3,-306.16"/>
<polygon fill="black" stroke="black" points="77.62,-307.31 78.61,-296.76 71.26,-304.39 77.62,-307.31"/>
</g>
<!-- 0c1b5ecd&#45;e021&#45;40c5&#45;af5d&#45;301198fae125 -->
<g id="node10" class="node">
<title>0c1b5ecd&#45;e021&#45;40c5&#45;af5d&#45;301198fae125</title>
<ellipse fill="none" stroke="black" cx="494.3" cy="-526" rx="80.11" ry="18"/>
<text text-anchor="middle" x="494.3" y="-522.3" font-family="Times,serif" font-size="14.00">Stability2Movement</text>
</g>
</g>
</svg>
