<?xml version="1.0" encoding="UTF-8" standalone="no"?>
<!DOCTYPE svg PUBLIC "-//W3C//DTD SVG 1.1//EN"
 "http://www.w3.org/Graphics/SVG/1.1/DTD/svg11.dtd">
<!-- Generated by graphviz version 2.43.0 (0)
 -->
<!-- Title: G Pages: 1 -->
<svg width="318pt" height="987pt"
 viewBox="0.00 0.00 318.29 987.00" xmlns="http://www.w3.org/2000/svg" xmlns:xlink="http://www.w3.org/1999/xlink">
<g id="graph0" class="graph" transform="scale(1 1) rotate(0) translate(4 983)">
<title>G</title>
<polygon fill="transparent" stroke="transparent" points="-4,4 -4,-983 314.29,-983 314.29,4 -4,4"/>
<!-- 1bd9d6de&#45;1fa7&#45;4e80&#45;98c5&#45;d9c02294aa3b -->
<g id="node1" class="node">
<title>1bd9d6de&#45;1fa7&#45;4e80&#45;98c5&#45;d9c02294aa3b</title>
<polygon fill="none" stroke="black" points="65.34,-906 0.16,-888 65.34,-870 130.52,-888 65.34,-906"/>
<text text-anchor="middle" x="65.34" y="-884.3" font-family="Times,serif" font-size="14.00">AlwaysTrue</text>
</g>
<!-- 3a29ac34&#45;bb4e&#45;4551&#45;be1c&#45;eca9bcc58255 -->
<g id="node11" class="node">
<title>3a29ac34&#45;bb4e&#45;4551&#45;be1c&#45;eca9bcc58255</title>
<ellipse fill="none" stroke="black" cx="103.34" cy="-801" rx="46.5" ry="18"/>
<text text-anchor="middle" x="103.34" y="-797.3" font-family="Times,serif" font-size="14.00">VisionNorm</text>
</g>
<!-- 1bd9d6de&#45;1fa7&#45;4e80&#45;98c5&#45;d9c02294aa3b&#45;&gt;3a29ac34&#45;bb4e&#45;4551&#45;be1c&#45;eca9bcc58255 -->
<g id="edge10" class="edge">
<title>1bd9d6de&#45;1fa7&#45;4e80&#45;98c5&#45;d9c02294aa3b&#45;&gt;3a29ac34&#45;bb4e&#45;4551&#45;be1c&#45;eca9bcc58255</title>
<path fill="none" stroke="black" d="M72.13,-871.8C77.54,-859.7 85.25,-842.47 91.65,-828.16"/>
<polygon fill="black" stroke="black" points="94.94,-829.37 95.82,-818.81 88.55,-826.51 94.94,-829.37"/>
<text text-anchor="middle" x="104.34" y="-840.8" font-family="Times,serif" font-size="14.00">True</text>
</g>
<!-- 7e435629&#45;667a&#45;40b2&#45;b449&#45;27f257ee7b54 -->
<g id="node2" class="node">
<title>7e435629&#45;667a&#45;40b2&#45;b449&#45;27f257ee7b54</title>
<ellipse fill="none" stroke="black" cx="103.34" cy="-105" rx="27" ry="18"/>
<text text-anchor="middle" x="103.34" y="-101.3" font-family="Times,serif" font-size="14.00">FlatX</text>
</g>
<!-- 4d65faa0&#45;5364&#45;440e&#45;909f&#45;2a2d09cd351d -->
<g id="node3" class="node">
<title>4d65faa0&#45;5364&#45;440e&#45;909f&#45;2a2d09cd351d</title>
<ellipse fill="none" stroke="black" cx="103.34" cy="-18" rx="80.11" ry="18"/>
<text text-anchor="middle" x="103.34" y="-14.3" font-family="Times,serif" font-size="14.00">Stability2Movement</text>
</g>
<!-- 7e435629&#45;667a&#45;40b2&#45;b449&#45;27f257ee7b54&#45;&gt;4d65faa0&#45;5364&#45;440e&#45;909f&#45;2a2d09cd351d -->
<g id="edge1" class="edge">
<title>7e435629&#45;667a&#45;40b2&#45;b449&#45;27f257ee7b54&#45;&gt;4d65faa0&#45;5364&#45;440e&#45;909f&#45;2a2d09cd351d</title>
<path fill="none" stroke="purple" d="M103.34,-86.8C103.34,-75.16 103.34,-59.55 103.34,-46.24"/>
<polygon fill="purple" stroke="purple" points="106.84,-46.18 103.34,-36.18 99.84,-46.18 106.84,-46.18"/>
<text text-anchor="middle" x="138.84" y="-57.8" font-family="Times,serif" font-size="14.00" fill="purple">Pass Data</text>
</g>
<!-- 7a396e7f&#45;5986&#45;4c31&#45;8064&#45;59aaa0aaf62c -->
<g id="node4" class="node">
<title>7a396e7f&#45;5986&#45;4c31&#45;8064&#45;59aaa0aaf62c</title>
<ellipse fill="none" stroke="black" cx="103.34" cy="-192" rx="27" ry="18"/>
<text text-anchor="middle" x="103.34" y="-188.3" font-family="Times,serif" font-size="14.00">StripY</text>
</g>
<!-- 7a396e7f&#45;5986&#45;4c31&#45;8064&#45;59aaa0aaf62c&#45;&gt;7e435629&#45;667a&#45;40b2&#45;b449&#45;27f257ee7b54 -->
<g id="edge2" class="edge">
<title>7a396e7f&#45;5986&#45;4c31&#45;8064&#45;59aaa0aaf62c&#45;&gt;7e435629&#45;667a&#45;40b2&#45;b449&#45;27f257ee7b54</title>
<path fill="none" stroke="purple" d="M103.34,-173.8C103.34,-162.16 103.34,-146.55 103.34,-133.24"/>
<polygon fill="purple" stroke="purple" points="106.84,-133.18 103.34,-123.18 99.84,-133.18 106.84,-133.18"/>
<text text-anchor="middle" x="138.84" y="-144.8" font-family="Times,serif" font-size="14.00" fill="purple">Pass Data</text>
</g>
<!-- 946ec6fb&#45;bcc1&#45;4aea&#45;9e75&#45;7f25dc0c2148 -->
<g id="node5" class="node">
<title>946ec6fb&#45;bcc1&#45;4aea&#45;9e75&#45;7f25dc0c2148</title>
<ellipse fill="none" stroke="black" cx="103.34" cy="-279" rx="52.6" ry="18"/>
<text text-anchor="middle" x="103.34" y="-275.3" font-family="Times,serif" font-size="14.00">Anon Closure</text>
</g>
<!-- 946ec6fb&#45;bcc1&#45;4aea&#45;9e75&#45;7f25dc0c2148&#45;&gt;7a396e7f&#45;5986&#45;4c31&#45;8064&#45;59aaa0aaf62c -->
<g id="edge3" class="edge">
<title>946ec6fb&#45;bcc1&#45;4aea&#45;9e75&#45;7f25dc0c2148&#45;&gt;7a396e7f&#45;5986&#45;4c31&#45;8064&#45;59aaa0aaf62c</title>
<path fill="none" stroke="purple" d="M103.34,-260.8C103.34,-249.16 103.34,-233.55 103.34,-220.24"/>
<polygon fill="purple" stroke="purple" points="106.84,-220.18 103.34,-210.18 99.84,-220.18 106.84,-220.18"/>
<text text-anchor="middle" x="138.84" y="-231.8" font-family="Times,serif" font-size="14.00" fill="purple">Pass Data</text>
</g>
<!-- 3020a1a8&#45;47af&#45;4100&#45;92ae&#45;74ffda9c60d5 -->
<g id="node6" class="node">
<title>3020a1a8&#45;47af&#45;4100&#45;92ae&#45;74ffda9c60d5</title>
<ellipse fill="none" stroke="black" cx="103.34" cy="-366" rx="51.3" ry="18"/>
<text text-anchor="middle" x="103.34" y="-362.3" font-family="Times,serif" font-size="14.00">OffsetToPose</text>
</g>
<!-- 3020a1a8&#45;47af&#45;4100&#45;92ae&#45;74ffda9c60d5&#45;&gt;946ec6fb&#45;bcc1&#45;4aea&#45;9e75&#45;7f25dc0c2148 -->
<g id="edge4" class="edge">
<title>3020a1a8&#45;47af&#45;4100&#45;92ae&#45;74ffda9c60d5&#45;&gt;946ec6fb&#45;bcc1&#45;4aea&#45;9e75&#45;7f25dc0c2148</title>
<path fill="none" stroke="purple" d="M103.34,-347.8C103.34,-336.16 103.34,-320.55 103.34,-307.24"/>
<polygon fill="purple" stroke="purple" points="106.84,-307.18 103.34,-297.18 99.84,-307.18 106.84,-307.18"/>
<text text-anchor="middle" x="138.84" y="-318.8" font-family="Times,serif" font-size="14.00" fill="purple">Pass Data</text>
</g>
<!-- 9c3a5171&#45;2aff&#45;43c2&#45;98d9&#45;597855506d11 -->
<g id="node7" class="node">
<title>9c3a5171&#45;2aff&#45;43c2&#45;98d9&#45;597855506d11</title>
<ellipse fill="none" stroke="black" cx="103.34" cy="-453" rx="32.4" ry="18"/>
<text text-anchor="middle" x="103.34" y="-449.3" font-family="Times,serif" font-size="14.00">Average</text>
</g>
<!-- 9c3a5171&#45;2aff&#45;43c2&#45;98d9&#45;597855506d11&#45;&gt;3020a1a8&#45;47af&#45;4100&#45;92ae&#45;74ffda9c60d5 -->
<g id="edge5" class="edge">
<title>9c3a5171&#45;2aff&#45;43c2&#45;98d9&#45;597855506d11&#45;&gt;3020a1a8&#45;47af&#45;4100&#45;92ae&#45;74ffda9c60d5</title>
<path fill="none" stroke="purple" d="M103.34,-434.8C103.34,-423.16 103.34,-407.55 103.34,-394.24"/>
<polygon fill="purple" stroke="purple" points="106.84,-394.18 103.34,-384.18 99.84,-394.18 106.84,-394.18"/>
<text text-anchor="middle" x="138.84" y="-405.8" font-family="Times,serif" font-size="14.00" fill="purple">Pass Data</text>
</g>
<!-- 4afb7269&#45;6908&#45;4543&#45;bea2&#45;160d8cbfeab4 -->
<g id="node8" class="node">
<title>4afb7269&#45;6908&#45;4543&#45;bea2&#45;160d8cbfeab4</title>
<ellipse fill="none" stroke="black" cx="103.34" cy="-540" rx="61.1" ry="18"/>
<text text-anchor="middle" x="103.34" y="-536.3" font-family="Times,serif" font-size="14.00">ExtractPosition</text>
</g>
<!-- 4afb7269&#45;6908&#45;4543&#45;bea2&#45;160d8cbfeab4&#45;&gt;9c3a5171&#45;2aff&#45;43c2&#45;98d9&#45;597855506d11 -->
<g id="edge6" class="edge">
<title>4afb7269&#45;6908&#45;4543&#45;bea2&#45;160d8cbfeab4&#45;&gt;9c3a5171&#45;2aff&#45;43c2&#45;98d9&#45;597855506d11</title>
<path fill="none" stroke="purple" d="M103.34,-521.8C103.34,-510.16 103.34,-494.55 103.34,-481.24"/>
<polygon fill="purple" stroke="purple" points="106.84,-481.18 103.34,-471.18 99.84,-481.18 106.84,-481.18"/>
<text text-anchor="middle" x="138.84" y="-492.8" font-family="Times,serif" font-size="14.00" fill="purple">Pass Data</text>
</g>
<!-- e60eabec&#45;9a23&#45;4740&#45;9897&#45;7142e5b14c73 -->
<g id="node9" class="node">
<title>e60eabec&#45;9a23&#45;4740&#45;9897&#45;7142e5b14c73</title>
<ellipse fill="none" stroke="black" cx="103.34" cy="-627" rx="27" ry="18"/>
<text text-anchor="middle" x="103.34" y="-623.3" font-family="Times,serif" font-size="14.00">ToVec</text>
</g>
<!-- e60eabec&#45;9a23&#45;4740&#45;9897&#45;7142e5b14c73&#45;&gt;4afb7269&#45;6908&#45;4543&#45;bea2&#45;160d8cbfeab4 -->
<g id="edge7" class="edge">
<title>e60eabec&#45;9a23&#45;4740&#45;9897&#45;7142e5b14c73&#45;&gt;4afb7269&#45;6908&#45;4543&#45;bea2&#45;160d8cbfeab4</title>
<path fill="none" stroke="purple" d="M103.34,-608.8C103.34,-597.16 103.34,-581.55 103.34,-568.24"/>
<polygon fill="purple" stroke="purple" points="106.84,-568.18 103.34,-558.18 99.84,-568.18 106.84,-568.18"/>
<text text-anchor="middle" x="138.84" y="-579.8" font-family="Times,serif" font-size="14.00" fill="purple">Pass Data</text>
</g>
<!-- 6d074711&#45;21f0&#45;4996&#45;8cf2&#45;49d1d1f74006 -->
<g id="node10" class="node">
<title>6d074711&#45;21f0&#45;4996&#45;8cf2&#45;49d1d1f74006</title>
<ellipse fill="none" stroke="black" cx="103.34" cy="-714" rx="45.2" ry="18"/>
<text text-anchor="middle" x="103.34" y="-710.3" font-family="Times,serif" font-size="14.00">Detect true</text>
</g>
<!-- 6d074711&#45;21f0&#45;4996&#45;8cf2&#45;49d1d1f74006&#45;&gt;e60eabec&#45;9a23&#45;4740&#45;9897&#45;7142e5b14c73 -->
<g id="edge8" class="edge">
<title>6d074711&#45;21f0&#45;4996&#45;8cf2&#45;49d1d1f74006&#45;&gt;e60eabec&#45;9a23&#45;4740&#45;9897&#45;7142e5b14c73</title>
<path fill="none" stroke="purple" d="M103.34,-695.8C103.34,-684.16 103.34,-668.55 103.34,-655.24"/>
<polygon fill="purple" stroke="purple" points="106.84,-655.18 103.34,-645.18 99.84,-655.18 106.84,-655.18"/>
<text text-anchor="middle" x="138.84" y="-666.8" font-family="Times,serif" font-size="14.00" fill="purple">Pass Data</text>
</g>
<!-- 3a29ac34&#45;bb4e&#45;4551&#45;be1c&#45;eca9bcc58255&#45;&gt;6d074711&#45;21f0&#45;4996&#45;8cf2&#45;49d1d1f74006 -->
<g id="edge9" class="edge">
<title>3a29ac34&#45;bb4e&#45;4551&#45;be1c&#45;eca9bcc58255&#45;&gt;6d074711&#45;21f0&#45;4996&#45;8cf2&#45;49d1d1f74006</title>
<path fill="none" stroke="purple" d="M103.34,-782.8C103.34,-771.16 103.34,-755.55 103.34,-742.24"/>
<polygon fill="purple" stroke="purple" points="106.84,-742.18 103.34,-732.18 99.84,-742.18 106.84,-742.18"/>
<text text-anchor="middle" x="138.84" y="-753.8" font-family="Times,serif" font-size="14.00" fill="purple">Pass Data</text>
</g>
<!-- 058cf155&#45;d725&#45;4173&#45;838e&#45;7b9f826caccc -->
<g id="node12" class="node">
<title>058cf155&#45;d725&#45;4173&#45;838e&#45;7b9f826caccc</title>
<ellipse fill="none" stroke="black" cx="250.34" cy="-888" rx="47.1" ry="18"/>
<text text-anchor="middle" x="250.34" y="-884.3" font-family="Times,serif" font-size="14.00">DelayAction</text>
</g>
<!-- 058cf155&#45;d725&#45;4173&#45;838e&#45;7b9f826caccc&#45;&gt;3a29ac34&#45;bb4e&#45;4551&#45;be1c&#45;eca9bcc58255 -->
<g id="edge11" class="edge">
<title>058cf155&#45;d725&#45;4173&#45;838e&#45;7b9f826caccc&#45;&gt;3a29ac34&#45;bb4e&#45;4551&#45;be1c&#45;eca9bcc58255</title>
<path fill="none" stroke="black" d="M225.4,-872.58C201.12,-858.54 164.03,-837.09 137.1,-821.52"/>
<polygon fill="black" stroke="black" points="138.81,-818.47 128.4,-816.49 135.3,-824.53 138.81,-818.47"/>
</g>
<!-- f3d09bdf&#45;44e1&#45;40ce&#45;9c11&#45;43a3ec7ee669 -->
<g id="node13" class="node">
<title>f3d09bdf&#45;44e1&#45;40ce&#45;9c11&#45;43a3ec7ee669</title>
<ellipse fill="none" stroke="black" cx="250.34" cy="-961" rx="59.9" ry="18"/>
<text text-anchor="middle" x="250.34" y="-957.3" font-family="Times,serif" font-size="14.00">ZeroMovement</text>
</g>
<!-- f3d09bdf&#45;44e1&#45;40ce&#45;9c11&#45;43a3ec7ee669&#45;&gt;058cf155&#45;d725&#45;4173&#45;838e&#45;7b9f826caccc -->
<g id="edge12" class="edge">
<title>f3d09bdf&#45;44e1&#45;40ce&#45;9c11&#45;43a3ec7ee669&#45;&gt;058cf155&#45;d725&#45;4173&#45;838e&#45;7b9f826caccc</title>
<path fill="none" stroke="black" d="M250.34,-942.81C250.34,-934.79 250.34,-925.05 250.34,-916.07"/>
<polygon fill="black" stroke="black" points="253.84,-916.03 250.34,-906.03 246.84,-916.03 253.84,-916.03"/>
</g>
</g>
</svg>
