<?xml version="1.0" encoding="UTF-8" standalone="no"?>
<!DOCTYPE svg PUBLIC "-//W3C//DTD SVG 1.1//EN"
 "http://www.w3.org/Graphics/SVG/1.1/DTD/svg11.dtd">
<!-- Generated by graphviz version 2.43.0 (0)
 -->
<!-- Title: G Pages: 1 -->
<svg width="743pt" height="1121pt"
 viewBox="0.00 0.00 742.80 1121.00" xmlns="http://www.w3.org/2000/svg" xmlns:xlink="http://www.w3.org/1999/xlink">
<g id="graph0" class="graph" transform="scale(1 1) rotate(0) translate(4 1117)">
<title>G</title>
<polygon fill="transparent" stroke="transparent" points="-4,4 -4,-1117 738.8,-1117 738.8,4 -4,4"/>
<g id="clust1" class="cluster">
<title>cluster_0593d4c1&#45;7ce2&#45;49a4&#45;b731&#45;0a66339d6e73</title>
<polygon fill="transparent" stroke="blue" stroke-dasharray="5,2" points="8,-8 8,-829 280,-829 280,-8 8,-8"/>
</g>
<!-- ad70f54f&#45;3b0e&#45;434e&#45;88cf&#45;0d2fa93564ae -->
<g id="node1" class="node">
<title>ad70f54f&#45;3b0e&#45;434e&#45;88cf&#45;0d2fa93564ae</title>
<polygon fill="none" stroke="black" points="207,-748 141.82,-730 207,-712 272.18,-730 207,-748"/>
<text text-anchor="middle" x="207" y="-726.3" font-family="Times,serif" font-size="14.00">AlwaysTrue</text>
</g>
<!-- 7a63efd4&#45;6780&#45;47f6&#45;a251&#45;54729fd6dbfa -->
<g id="node19" class="node">
<title>7a63efd4&#45;6780&#45;47f6&#45;a251&#45;54729fd6dbfa</title>
<ellipse fill="none" stroke="black" cx="335" cy="-643" rx="46.5" ry="18"/>
<text text-anchor="middle" x="335" y="-639.3" font-family="Times,serif" font-size="14.00">VisionNorm</text>
</g>
<!-- ad70f54f&#45;3b0e&#45;434e&#45;88cf&#45;0d2fa93564ae&#45;&gt;7a63efd4&#45;6780&#45;47f6&#45;a251&#45;54729fd6dbfa -->
<g id="edge18" class="edge">
<title>ad70f54f&#45;3b0e&#45;434e&#45;88cf&#45;0d2fa93564ae&#45;&gt;7a63efd4&#45;6780&#45;47f6&#45;a251&#45;54729fd6dbfa</title>
<path fill="none" stroke="black" d="M225.34,-716.82C245.78,-703.25 279.18,-681.06 303.76,-664.74"/>
<polygon fill="black" stroke="black" points="305.98,-667.47 312.38,-659.02 302.11,-661.64 305.98,-667.47"/>
<text text-anchor="middle" x="296" y="-682.8" font-family="Times,serif" font-size="14.00">True</text>
</g>
<!-- 22e50fd0&#45;721a&#45;405c&#45;840d&#45;9628819e1937 -->
<g id="node2" class="node">
<title>22e50fd0&#45;721a&#45;405c&#45;840d&#45;9628819e1937</title>
<ellipse fill="none" stroke="black" cx="95" cy="-121" rx="31.2" ry="18"/>
<text text-anchor="middle" x="95" y="-117.3" font-family="Times,serif" font-size="14.00">MinYaw</text>
</g>
<!-- ba108a55&#45;5aff&#45;43c3&#45;a208&#45;0f2c7fe70c6c -->
<g id="node3" class="node">
<title>ba108a55&#45;5aff&#45;43c3&#45;a208&#45;0f2c7fe70c6c</title>
<ellipse fill="none" stroke="black" cx="96" cy="-34" rx="80.11" ry="18"/>
<text text-anchor="middle" x="96" y="-30.3" font-family="Times,serif" font-size="14.00">Stability1Movement</text>
</g>
<!-- 22e50fd0&#45;721a&#45;405c&#45;840d&#45;9628819e1937&#45;&gt;ba108a55&#45;5aff&#45;43c3&#45;a208&#45;0f2c7fe70c6c -->
<g id="edge1" class="edge">
<title>22e50fd0&#45;721a&#45;405c&#45;840d&#45;9628819e1937&#45;&gt;ba108a55&#45;5aff&#45;43c3&#45;a208&#45;0f2c7fe70c6c</title>
<path fill="none" stroke="purple" d="M95.2,-102.8C95.34,-91.16 95.52,-75.55 95.68,-62.24"/>
<polygon fill="purple" stroke="purple" points="99.18,-62.22 95.8,-52.18 92.18,-62.13 99.18,-62.22"/>
<text text-anchor="middle" x="131.5" y="-73.8" font-family="Times,serif" font-size="14.00" fill="purple">Pass Data</text>
</g>
<!-- cbc28cef&#45;0eb1&#45;42da&#45;8236&#45;51d33e5b5d2e -->
<g id="node4" class="node">
<title>cbc28cef&#45;0eb1&#45;42da&#45;8236&#45;51d33e5b5d2e</title>
<ellipse fill="none" stroke="black" cx="94" cy="-208" rx="27" ry="18"/>
<text text-anchor="middle" x="94" y="-204.3" font-family="Times,serif" font-size="14.00">StripY</text>
</g>
<!-- cbc28cef&#45;0eb1&#45;42da&#45;8236&#45;51d33e5b5d2e&#45;&gt;22e50fd0&#45;721a&#45;405c&#45;840d&#45;9628819e1937 -->
<g id="edge2" class="edge">
<title>cbc28cef&#45;0eb1&#45;42da&#45;8236&#45;51d33e5b5d2e&#45;&gt;22e50fd0&#45;721a&#45;405c&#45;840d&#45;9628819e1937</title>
<path fill="none" stroke="purple" d="M94.2,-189.8C94.34,-178.16 94.52,-162.55 94.68,-149.24"/>
<polygon fill="purple" stroke="purple" points="98.18,-149.22 94.8,-139.18 91.18,-149.13 98.18,-149.22"/>
<text text-anchor="middle" x="130.5" y="-160.8" font-family="Times,serif" font-size="14.00" fill="purple">Pass Data</text>
</g>
<!-- ceffce0a&#45;aef8&#45;44ff&#45;801e&#45;d71804e2649a -->
<g id="node5" class="node">
<title>ceffce0a&#45;aef8&#45;44ff&#45;801e&#45;d71804e2649a</title>
<ellipse fill="none" stroke="black" cx="94" cy="-295" rx="75.81" ry="18"/>
<text text-anchor="middle" x="94" y="-291.3" font-family="Times,serif" font-size="14.00">CautiousConstantX</text>
</g>
<!-- ceffce0a&#45;aef8&#45;44ff&#45;801e&#45;d71804e2649a&#45;&gt;cbc28cef&#45;0eb1&#45;42da&#45;8236&#45;51d33e5b5d2e -->
<g id="edge3" class="edge">
<title>ceffce0a&#45;aef8&#45;44ff&#45;801e&#45;d71804e2649a&#45;&gt;cbc28cef&#45;0eb1&#45;42da&#45;8236&#45;51d33e5b5d2e</title>
<path fill="none" stroke="purple" d="M94,-276.8C94,-265.16 94,-249.55 94,-236.24"/>
<polygon fill="purple" stroke="purple" points="97.5,-236.18 94,-226.18 90.5,-236.18 97.5,-236.18"/>
<text text-anchor="middle" x="129.5" y="-247.8" font-family="Times,serif" font-size="14.00" fill="purple">Pass Data</text>
</g>
<!-- 3000fa05&#45;d84c&#45;4e29&#45;9f5b&#45;0f852e4ae331 -->
<g id="node6" class="node">
<title>3000fa05&#45;d84c&#45;4e29&#45;9f5b&#45;0f852e4ae331</title>
<ellipse fill="none" stroke="black" cx="93" cy="-382" rx="67.81" ry="18"/>
<text text-anchor="middle" x="93" y="-378.3" font-family="Times,serif" font-size="14.00">LinearYawFromX</text>
</g>
<!-- 3000fa05&#45;d84c&#45;4e29&#45;9f5b&#45;0f852e4ae331&#45;&gt;ceffce0a&#45;aef8&#45;44ff&#45;801e&#45;d71804e2649a -->
<g id="edge4" class="edge">
<title>3000fa05&#45;d84c&#45;4e29&#45;9f5b&#45;0f852e4ae331&#45;&gt;ceffce0a&#45;aef8&#45;44ff&#45;801e&#45;d71804e2649a</title>
<path fill="none" stroke="purple" d="M93.2,-363.8C93.34,-352.16 93.52,-336.55 93.68,-323.24"/>
<polygon fill="purple" stroke="purple" points="97.18,-323.22 93.8,-313.18 90.18,-323.13 97.18,-323.22"/>
<text text-anchor="middle" x="129.5" y="-334.8" font-family="Times,serif" font-size="14.00" fill="purple">Pass Data</text>
</g>
<!-- 158371e7&#45;42c2&#45;4082&#45;8c64&#45;23ee5dcd1d1c -->
<g id="node7" class="node">
<title>158371e7&#45;42c2&#45;4082&#45;8c64&#45;23ee5dcd1d1c</title>
<ellipse fill="none" stroke="black" cx="92" cy="-469" rx="51.3" ry="18"/>
<text text-anchor="middle" x="92" y="-465.3" font-family="Times,serif" font-size="14.00">OffsetToPose</text>
</g>
<!-- 158371e7&#45;42c2&#45;4082&#45;8c64&#45;23ee5dcd1d1c&#45;&gt;3000fa05&#45;d84c&#45;4e29&#45;9f5b&#45;0f852e4ae331 -->
<g id="edge5" class="edge">
<title>158371e7&#45;42c2&#45;4082&#45;8c64&#45;23ee5dcd1d1c&#45;&gt;3000fa05&#45;d84c&#45;4e29&#45;9f5b&#45;0f852e4ae331</title>
<path fill="none" stroke="purple" d="M92.2,-450.8C92.34,-439.16 92.52,-423.55 92.68,-410.24"/>
<polygon fill="purple" stroke="purple" points="96.18,-410.22 92.8,-400.18 89.18,-410.13 96.18,-410.22"/>
<text text-anchor="middle" x="128.5" y="-421.8" font-family="Times,serif" font-size="14.00" fill="purple">Pass Data</text>
</g>
<!-- fee295a3&#45;b6c0&#45;491a&#45;a8ce&#45;f8d39d70b23b -->
<g id="node8" class="node">
<title>fee295a3&#45;b6c0&#45;491a&#45;a8ce&#45;f8d39d70b23b</title>
<ellipse fill="none" stroke="black" cx="91" cy="-556" rx="32.4" ry="18"/>
<text text-anchor="middle" x="91" y="-552.3" font-family="Times,serif" font-size="14.00">Average</text>
</g>
<!-- fee295a3&#45;b6c0&#45;491a&#45;a8ce&#45;f8d39d70b23b&#45;&gt;158371e7&#45;42c2&#45;4082&#45;8c64&#45;23ee5dcd1d1c -->
<g id="edge6" class="edge">
<title>fee295a3&#45;b6c0&#45;491a&#45;a8ce&#45;f8d39d70b23b&#45;&gt;158371e7&#45;42c2&#45;4082&#45;8c64&#45;23ee5dcd1d1c</title>
<path fill="none" stroke="purple" d="M91.2,-537.8C91.34,-526.16 91.52,-510.55 91.68,-497.24"/>
<polygon fill="purple" stroke="purple" points="95.18,-497.22 91.8,-487.18 88.18,-497.13 95.18,-497.22"/>
<text text-anchor="middle" x="127.5" y="-508.8" font-family="Times,serif" font-size="14.00" fill="purple">Pass Data</text>
</g>
<!-- e311afb3&#45;6bf7&#45;4694&#45;8544&#45;f011e9e660a9 -->
<g id="node9" class="node">
<title>e311afb3&#45;6bf7&#45;4694&#45;8544&#45;f011e9e660a9</title>
<ellipse fill="none" stroke="black" cx="90" cy="-643" rx="61.1" ry="18"/>
<text text-anchor="middle" x="90" y="-639.3" font-family="Times,serif" font-size="14.00">ExtractPosition</text>
</g>
<!-- e311afb3&#45;6bf7&#45;4694&#45;8544&#45;f011e9e660a9&#45;&gt;fee295a3&#45;b6c0&#45;491a&#45;a8ce&#45;f8d39d70b23b -->
<g id="edge7" class="edge">
<title>e311afb3&#45;6bf7&#45;4694&#45;8544&#45;f011e9e660a9&#45;&gt;fee295a3&#45;b6c0&#45;491a&#45;a8ce&#45;f8d39d70b23b</title>
<path fill="none" stroke="purple" d="M90.2,-624.8C90.34,-613.16 90.52,-597.55 90.68,-584.24"/>
<polygon fill="purple" stroke="purple" points="94.18,-584.22 90.8,-574.18 87.18,-584.13 94.18,-584.22"/>
<text text-anchor="middle" x="126.5" y="-595.8" font-family="Times,serif" font-size="14.00" fill="purple">Pass Data</text>
</g>
<!-- b46a1bf2&#45;ea79&#45;49e6&#45;a19a&#45;513ba37f4a52 -->
<g id="node10" class="node">
<title>b46a1bf2&#45;ea79&#45;49e6&#45;a19a&#45;513ba37f4a52</title>
<ellipse fill="none" stroke="black" cx="43" cy="-730" rx="27" ry="18"/>
<text text-anchor="middle" x="43" y="-726.3" font-family="Times,serif" font-size="14.00">ToVec</text>
</g>
<!-- b46a1bf2&#45;ea79&#45;49e6&#45;a19a&#45;513ba37f4a52&#45;&gt;e311afb3&#45;6bf7&#45;4694&#45;8544&#45;f011e9e660a9 -->
<g id="edge8" class="edge">
<title>b46a1bf2&#45;ea79&#45;49e6&#45;a19a&#45;513ba37f4a52&#45;&gt;e311afb3&#45;6bf7&#45;4694&#45;8544&#45;f011e9e660a9</title>
<path fill="none" stroke="purple" d="M52.06,-712.61C58.74,-700.54 67.95,-683.88 75.63,-670"/>
<polygon fill="purple" stroke="purple" points="78.87,-671.37 80.64,-660.92 72.74,-667.98 78.87,-671.37"/>
<text text-anchor="middle" x="105.5" y="-682.8" font-family="Times,serif" font-size="14.00" fill="purple">Pass Data</text>
</g>
<!-- 9d2ea8ad&#45;ac25&#45;4fcb&#45;b7f2&#45;2eef88a73d20 -->
<g id="node11" class="node">
<title>9d2ea8ad&#45;ac25&#45;4fcb&#45;b7f2&#45;2eef88a73d20</title>
<polygon fill="none" stroke="black" stroke-dasharray="5,2" points="256,-821 158,-821 158,-785 256,-785 256,-821"/>
<text text-anchor="middle" x="207" y="-799.3" font-family="Times,serif" font-size="14.00" fill="blue">Concurrent</text>
</g>
<!-- 9d2ea8ad&#45;ac25&#45;4fcb&#45;b7f2&#45;2eef88a73d20&#45;&gt;ad70f54f&#45;3b0e&#45;434e&#45;88cf&#45;0d2fa93564ae -->
<g id="edge10" class="edge">
<title>9d2ea8ad&#45;ac25&#45;4fcb&#45;b7f2&#45;2eef88a73d20&#45;&gt;ad70f54f&#45;3b0e&#45;434e&#45;88cf&#45;0d2fa93564ae</title>
<path fill="none" stroke="black" d="M207,-784.81C207,-776.79 207,-767.05 207,-758.07"/>
<polygon fill="black" stroke="black" points="210.5,-758.03 207,-748.03 203.5,-758.03 210.5,-758.03"/>
</g>
<!-- 9d2ea8ad&#45;ac25&#45;4fcb&#45;b7f2&#45;2eef88a73d20&#45;&gt;b46a1bf2&#45;ea79&#45;49e6&#45;a19a&#45;513ba37f4a52 -->
<g id="edge9" class="edge">
<title>9d2ea8ad&#45;ac25&#45;4fcb&#45;b7f2&#45;2eef88a73d20&#45;&gt;b46a1bf2&#45;ea79&#45;49e6&#45;a19a&#45;513ba37f4a52</title>
<path fill="none" stroke="black" d="M167.72,-784.99C139.19,-772.64 101.1,-756.15 74.55,-744.66"/>
<polygon fill="black" stroke="black" points="75.89,-741.43 65.32,-740.66 73.11,-747.85 75.89,-741.43"/>
</g>
<!-- 58b21a43&#45;d269&#45;45fa&#45;b705&#45;d75b8ab76148 -->
<g id="node12" class="node">
<title>58b21a43&#45;d269&#45;45fa&#45;b705&#45;d75b8ab76148</title>
<ellipse fill="none" stroke="black" cx="660" cy="-1022" rx="33.6" ry="18"/>
<text text-anchor="middle" x="660" y="-1018.3" font-family="Times,serif" font-size="14.00">Descend</text>
</g>
<!-- e6a4e284&#45;b40d&#45;4b4e&#45;b505&#45;8afa27a5219d -->
<g id="node13" class="node">
<title>e6a4e284&#45;b40d&#45;4b4e&#45;b505&#45;8afa27a5219d</title>
<ellipse fill="none" stroke="black" cx="660" cy="-949" rx="47.1" ry="18"/>
<text text-anchor="middle" x="660" y="-945.3" font-family="Times,serif" font-size="14.00">DelayAction</text>
</g>
<!-- 58b21a43&#45;d269&#45;45fa&#45;b705&#45;d75b8ab76148&#45;&gt;e6a4e284&#45;b40d&#45;4b4e&#45;b505&#45;8afa27a5219d -->
<g id="edge11" class="edge">
<title>58b21a43&#45;d269&#45;45fa&#45;b705&#45;d75b8ab76148&#45;&gt;e6a4e284&#45;b40d&#45;4b4e&#45;b505&#45;8afa27a5219d</title>
<path fill="none" stroke="black" d="M660,-1003.81C660,-995.79 660,-986.05 660,-977.07"/>
<polygon fill="black" stroke="black" points="663.5,-977.03 660,-967.03 656.5,-977.03 663.5,-977.03"/>
</g>
<!-- f7cb1971&#45;abed&#45;4636&#45;b734&#45;21e1694180d9 -->
<g id="node14" class="node">
<title>f7cb1971&#45;abed&#45;4636&#45;b734&#45;21e1694180d9</title>
<ellipse fill="none" stroke="black" cx="660" cy="-876" rx="74.61" ry="18"/>
<text text-anchor="middle" x="660" y="-872.3" font-family="Times,serif" font-size="14.00">StraightMovement</text>
</g>
<!-- e6a4e284&#45;b40d&#45;4b4e&#45;b505&#45;8afa27a5219d&#45;&gt;f7cb1971&#45;abed&#45;4636&#45;b734&#45;21e1694180d9 -->
<g id="edge14" class="edge">
<title>e6a4e284&#45;b40d&#45;4b4e&#45;b505&#45;8afa27a5219d&#45;&gt;f7cb1971&#45;abed&#45;4636&#45;b734&#45;21e1694180d9</title>
<path fill="none" stroke="black" d="M660,-930.81C660,-922.79 660,-913.05 660,-904.07"/>
<polygon fill="black" stroke="black" points="663.5,-904.03 660,-894.03 656.5,-904.03 663.5,-904.03"/>
</g>
<!-- ad3b0cab&#45;c85e&#45;4306&#45;95cb&#45;21df59482358 -->
<g id="node15" class="node">
<title>ad3b0cab&#45;c85e&#45;4306&#45;95cb&#45;21df59482358</title>
<ellipse fill="none" stroke="black" cx="660" cy="-803" rx="47.1" ry="18"/>
<text text-anchor="middle" x="660" y="-799.3" font-family="Times,serif" font-size="14.00">DelayAction</text>
</g>
<!-- f7cb1971&#45;abed&#45;4636&#45;b734&#45;21e1694180d9&#45;&gt;ad3b0cab&#45;c85e&#45;4306&#45;95cb&#45;21df59482358 -->
<g id="edge12" class="edge">
<title>f7cb1971&#45;abed&#45;4636&#45;b734&#45;21e1694180d9&#45;&gt;ad3b0cab&#45;c85e&#45;4306&#45;95cb&#45;21df59482358</title>
<path fill="none" stroke="black" d="M660,-857.81C660,-849.79 660,-840.05 660,-831.07"/>
<polygon fill="black" stroke="black" points="663.5,-831.03 660,-821.03 656.5,-831.03 663.5,-831.03"/>
</g>
<!-- b5376160&#45;f8ff&#45;4cd6&#45;a909&#45;5f2f7c2e631f -->
<g id="node16" class="node">
<title>b5376160&#45;f8ff&#45;4cd6&#45;a909&#45;5f2f7c2e631f</title>
<ellipse fill="none" stroke="black" cx="660" cy="-730" rx="59.9" ry="18"/>
<text text-anchor="middle" x="660" y="-726.3" font-family="Times,serif" font-size="14.00">ZeroMovement</text>
</g>
<!-- ad3b0cab&#45;c85e&#45;4306&#45;95cb&#45;21df59482358&#45;&gt;b5376160&#45;f8ff&#45;4cd6&#45;a909&#45;5f2f7c2e631f -->
<g id="edge13" class="edge">
<title>ad3b0cab&#45;c85e&#45;4306&#45;95cb&#45;21df59482358&#45;&gt;b5376160&#45;f8ff&#45;4cd6&#45;a909&#45;5f2f7c2e631f</title>
<path fill="none" stroke="black" d="M660,-784.81C660,-776.79 660,-767.05 660,-758.07"/>
<polygon fill="black" stroke="black" points="663.5,-758.03 660,-748.03 656.5,-758.03 663.5,-758.03"/>
</g>
<!-- b5376160&#45;f8ff&#45;4cd6&#45;a909&#45;5f2f7c2e631f&#45;&gt;7a63efd4&#45;6780&#45;47f6&#45;a251&#45;54729fd6dbfa -->
<g id="edge19" class="edge">
<title>b5376160&#45;f8ff&#45;4cd6&#45;a909&#45;5f2f7c2e631f&#45;&gt;7a63efd4&#45;6780&#45;47f6&#45;a251&#45;54729fd6dbfa</title>
<path fill="none" stroke="black" d="M639.53,-712.83C624.07,-701.49 601.85,-686.98 580,-679 518.08,-656.38 442.38,-648.3 391.65,-645.46"/>
<polygon fill="black" stroke="black" points="391.7,-641.96 381.54,-644.94 391.35,-648.95 391.7,-641.96"/>
</g>
<!-- 4d7cc822&#45;0eec&#45;4747&#45;8a5c&#45;074d1ffcd81e -->
<g id="node17" class="node">
<title>4d7cc822&#45;0eec&#45;4747&#45;8a5c&#45;074d1ffcd81e</title>
<ellipse fill="none" stroke="black" cx="660" cy="-1095" rx="34.8" ry="18"/>
<text text-anchor="middle" x="660" y="-1091.3" font-family="Times,serif" font-size="14.00">WaitArm</text>
</g>
<!-- 4d7cc822&#45;0eec&#45;4747&#45;8a5c&#45;074d1ffcd81e&#45;&gt;58b21a43&#45;d269&#45;45fa&#45;b705&#45;d75b8ab76148 -->
<g id="edge15" class="edge">
<title>4d7cc822&#45;0eec&#45;4747&#45;8a5c&#45;074d1ffcd81e&#45;&gt;58b21a43&#45;d269&#45;45fa&#45;b705&#45;d75b8ab76148</title>
<path fill="none" stroke="black" d="M660,-1076.81C660,-1068.79 660,-1059.05 660,-1050.07"/>
<polygon fill="black" stroke="black" points="663.5,-1050.03 660,-1040.03 656.5,-1050.03 663.5,-1050.03"/>
</g>
<!-- ef342b8c&#45;d09d&#45;478c&#45;b5e4&#45;3f1d7dff550a -->
<g id="node18" class="node">
<title>ef342b8c&#45;d09d&#45;478c&#45;b5e4&#45;3f1d7dff550a</title>
<ellipse fill="none" stroke="black" cx="430" cy="-556" rx="48.3" ry="18"/>
<text text-anchor="middle" x="430" y="-552.3" font-family="Times,serif" font-size="14.00">Detect Buoy</text>
</g>
<!-- ef342b8c&#45;d09d&#45;478c&#45;b5e4&#45;3f1d7dff550a&#45;&gt;9d2ea8ad&#45;ac25&#45;4fcb&#45;b7f2&#45;2eef88a73d20 -->
<g id="edge16" class="edge">
<title>ef342b8c&#45;d09d&#45;478c&#45;b5e4&#45;3f1d7dff550a&#45;&gt;9d2ea8ad&#45;ac25&#45;4fcb&#45;b7f2&#45;2eef88a73d20</title>
<path fill="none" stroke="purple" d="M442.64,-573.8C448.32,-583.35 453.11,-595.64 450,-607 442.63,-633.91 436.36,-640 418,-661 371.25,-714.49 299.68,-756.54 253.1,-780.34"/>
<polygon fill="purple" stroke="purple" points="251.49,-777.23 244.14,-784.85 254.64,-783.48 251.49,-777.23"/>
<text text-anchor="middle" x="434.5" y="-682.8" font-family="Times,serif" font-size="14.00" fill="purple">Pass Data</text>
</g>
<!-- 7a63efd4&#45;6780&#45;47f6&#45;a251&#45;54729fd6dbfa&#45;&gt;ef342b8c&#45;d09d&#45;478c&#45;b5e4&#45;3f1d7dff550a -->
<g id="edge17" class="edge">
<title>7a63efd4&#45;6780&#45;47f6&#45;a251&#45;54729fd6dbfa&#45;&gt;ef342b8c&#45;d09d&#45;478c&#45;b5e4&#45;3f1d7dff550a</title>
<path fill="none" stroke="purple" d="M342.26,-625.14C347.43,-614.63 355.19,-601.37 365,-592 372.09,-585.23 380.74,-579.39 389.39,-574.52"/>
<polygon fill="purple" stroke="purple" points="391.12,-577.56 398.33,-569.79 387.85,-571.37 391.12,-577.56"/>
<text text-anchor="middle" x="400.5" y="-595.8" font-family="Times,serif" font-size="14.00" fill="purple">Pass Data</text>
</g>
</g>
</svg>
