<?xml version="1.0" encoding="UTF-8" standalone="no"?>
<!DOCTYPE svg PUBLIC "-//W3C//DTD SVG 1.1//EN"
 "http://www.w3.org/Graphics/SVG/1.1/DTD/svg11.dtd">
<!-- Generated by graphviz version 2.43.0 (0)
 -->
<!-- Title: G Pages: 1 -->
<svg width="318pt" height="987pt"
 viewBox="0.00 0.00 318.29 987.00" xmlns="http://www.w3.org/2000/svg" xmlns:xlink="http://www.w3.org/1999/xlink">
<g id="graph0" class="graph" transform="scale(1 1) rotate(0) translate(4 983)">
<title>G</title>
<polygon fill="transparent" stroke="transparent" points="-4,4 -4,-983 314.29,-983 314.29,4 -4,4"/>
<!-- 0d916f4a&#45;9f75&#45;4196&#45;a10d&#45;50f57095dce6 -->
<g id="node1" class="node">
<title>0d916f4a&#45;9f75&#45;4196&#45;a10d&#45;50f57095dce6</title>
<polygon fill="none" stroke="black" points="65.34,-906 0.16,-888 65.34,-870 130.52,-888 65.34,-906"/>
<text text-anchor="middle" x="65.34" y="-884.3" font-family="Times,serif" font-size="14.00">AlwaysTrue</text>
</g>
<!-- aa40e016&#45;1104&#45;42d4&#45;954c&#45;db2c3c7ac6d2 -->
<g id="node11" class="node">
<title>aa40e016&#45;1104&#45;42d4&#45;954c&#45;db2c3c7ac6d2</title>
<ellipse fill="none" stroke="black" cx="103.34" cy="-801" rx="46.5" ry="18"/>
<text text-anchor="middle" x="103.34" y="-797.3" font-family="Times,serif" font-size="14.00">VisionNorm</text>
</g>
<!-- 0d916f4a&#45;9f75&#45;4196&#45;a10d&#45;50f57095dce6&#45;&gt;aa40e016&#45;1104&#45;42d4&#45;954c&#45;db2c3c7ac6d2 -->
<g id="edge10" class="edge">
<title>0d916f4a&#45;9f75&#45;4196&#45;a10d&#45;50f57095dce6&#45;&gt;aa40e016&#45;1104&#45;42d4&#45;954c&#45;db2c3c7ac6d2</title>
<path fill="none" stroke="black" d="M72.13,-871.8C77.54,-859.7 85.25,-842.47 91.65,-828.16"/>
<polygon fill="black" stroke="black" points="94.94,-829.37 95.82,-818.81 88.55,-826.51 94.94,-829.37"/>
<text text-anchor="middle" x="104.34" y="-840.8" font-family="Times,serif" font-size="14.00">True</text>
</g>
<!-- b8d75a69&#45;cf3f&#45;475e&#45;a760&#45;2ea5fb4a7cd0 -->
<g id="node2" class="node">
<title>b8d75a69&#45;cf3f&#45;475e&#45;a760&#45;2ea5fb4a7cd0</title>
<ellipse fill="none" stroke="black" cx="103.34" cy="-105" rx="27" ry="18"/>
<text text-anchor="middle" x="103.34" y="-101.3" font-family="Times,serif" font-size="14.00">FlatX</text>
</g>
<!-- d027886d&#45;d892&#45;4ada&#45;b079&#45;1c984ef1d73a -->
<g id="node3" class="node">
<title>d027886d&#45;d892&#45;4ada&#45;b079&#45;1c984ef1d73a</title>
<ellipse fill="none" stroke="black" cx="103.34" cy="-18" rx="80.11" ry="18"/>
<text text-anchor="middle" x="103.34" y="-14.3" font-family="Times,serif" font-size="14.00">Stability2Movement</text>
</g>
<!-- b8d75a69&#45;cf3f&#45;475e&#45;a760&#45;2ea5fb4a7cd0&#45;&gt;d027886d&#45;d892&#45;4ada&#45;b079&#45;1c984ef1d73a -->
<g id="edge1" class="edge">
<title>b8d75a69&#45;cf3f&#45;475e&#45;a760&#45;2ea5fb4a7cd0&#45;&gt;d027886d&#45;d892&#45;4ada&#45;b079&#45;1c984ef1d73a</title>
<path fill="none" stroke="purple" d="M103.34,-86.8C103.34,-75.16 103.34,-59.55 103.34,-46.24"/>
<polygon fill="purple" stroke="purple" points="106.84,-46.18 103.34,-36.18 99.84,-46.18 106.84,-46.18"/>
<text text-anchor="middle" x="138.84" y="-57.8" font-family="Times,serif" font-size="14.00" fill="purple">Pass Data</text>
</g>
<!-- 8d9e5050&#45;f0fd&#45;402a&#45;bfd9&#45;df8781055b07 -->
<g id="node4" class="node">
<title>8d9e5050&#45;f0fd&#45;402a&#45;bfd9&#45;df8781055b07</title>
<ellipse fill="none" stroke="black" cx="103.34" cy="-192" rx="27" ry="18"/>
<text text-anchor="middle" x="103.34" y="-188.3" font-family="Times,serif" font-size="14.00">StripY</text>
</g>
<!-- 8d9e5050&#45;f0fd&#45;402a&#45;bfd9&#45;df8781055b07&#45;&gt;b8d75a69&#45;cf3f&#45;475e&#45;a760&#45;2ea5fb4a7cd0 -->
<g id="edge2" class="edge">
<title>8d9e5050&#45;f0fd&#45;402a&#45;bfd9&#45;df8781055b07&#45;&gt;b8d75a69&#45;cf3f&#45;475e&#45;a760&#45;2ea5fb4a7cd0</title>
<path fill="none" stroke="purple" d="M103.34,-173.8C103.34,-162.16 103.34,-146.55 103.34,-133.24"/>
<polygon fill="purple" stroke="purple" points="106.84,-133.18 103.34,-123.18 99.84,-133.18 106.84,-133.18"/>
<text text-anchor="middle" x="138.84" y="-144.8" font-family="Times,serif" font-size="14.00" fill="purple">Pass Data</text>
</g>
<!-- 21f502c7&#45;91ee&#45;49d5&#45;af47&#45;f02b05661aec -->
<g id="node5" class="node">
<title>21f502c7&#45;91ee&#45;49d5&#45;af47&#45;f02b05661aec</title>
<ellipse fill="none" stroke="black" cx="103.34" cy="-279" rx="52.6" ry="18"/>
<text text-anchor="middle" x="103.34" y="-275.3" font-family="Times,serif" font-size="14.00">Anon Closure</text>
</g>
<!-- 21f502c7&#45;91ee&#45;49d5&#45;af47&#45;f02b05661aec&#45;&gt;8d9e5050&#45;f0fd&#45;402a&#45;bfd9&#45;df8781055b07 -->
<g id="edge3" class="edge">
<title>21f502c7&#45;91ee&#45;49d5&#45;af47&#45;f02b05661aec&#45;&gt;8d9e5050&#45;f0fd&#45;402a&#45;bfd9&#45;df8781055b07</title>
<path fill="none" stroke="purple" d="M103.34,-260.8C103.34,-249.16 103.34,-233.55 103.34,-220.24"/>
<polygon fill="purple" stroke="purple" points="106.84,-220.18 103.34,-210.18 99.84,-220.18 106.84,-220.18"/>
<text text-anchor="middle" x="138.84" y="-231.8" font-family="Times,serif" font-size="14.00" fill="purple">Pass Data</text>
</g>
<!-- 3fb99b40&#45;74b0&#45;4786&#45;9f6c&#45;265299b81845 -->
<g id="node6" class="node">
<title>3fb99b40&#45;74b0&#45;4786&#45;9f6c&#45;265299b81845</title>
<ellipse fill="none" stroke="black" cx="103.34" cy="-366" rx="51.3" ry="18"/>
<text text-anchor="middle" x="103.34" y="-362.3" font-family="Times,serif" font-size="14.00">OffsetToPose</text>
</g>
<!-- 3fb99b40&#45;74b0&#45;4786&#45;9f6c&#45;265299b81845&#45;&gt;21f502c7&#45;91ee&#45;49d5&#45;af47&#45;f02b05661aec -->
<g id="edge4" class="edge">
<title>3fb99b40&#45;74b0&#45;4786&#45;9f6c&#45;265299b81845&#45;&gt;21f502c7&#45;91ee&#45;49d5&#45;af47&#45;f02b05661aec</title>
<path fill="none" stroke="purple" d="M103.34,-347.8C103.34,-336.16 103.34,-320.55 103.34,-307.24"/>
<polygon fill="purple" stroke="purple" points="106.84,-307.18 103.34,-297.18 99.84,-307.18 106.84,-307.18"/>
<text text-anchor="middle" x="138.84" y="-318.8" font-family="Times,serif" font-size="14.00" fill="purple">Pass Data</text>
</g>
<!-- 12a13c72&#45;ccd9&#45;4c64&#45;8dbc&#45;e0626d327d29 -->
<g id="node7" class="node">
<title>12a13c72&#45;ccd9&#45;4c64&#45;8dbc&#45;e0626d327d29</title>
<ellipse fill="none" stroke="black" cx="103.34" cy="-453" rx="32.4" ry="18"/>
<text text-anchor="middle" x="103.34" y="-449.3" font-family="Times,serif" font-size="14.00">Average</text>
</g>
<!-- 12a13c72&#45;ccd9&#45;4c64&#45;8dbc&#45;e0626d327d29&#45;&gt;3fb99b40&#45;74b0&#45;4786&#45;9f6c&#45;265299b81845 -->
<g id="edge5" class="edge">
<title>12a13c72&#45;ccd9&#45;4c64&#45;8dbc&#45;e0626d327d29&#45;&gt;3fb99b40&#45;74b0&#45;4786&#45;9f6c&#45;265299b81845</title>
<path fill="none" stroke="purple" d="M103.34,-434.8C103.34,-423.16 103.34,-407.55 103.34,-394.24"/>
<polygon fill="purple" stroke="purple" points="106.84,-394.18 103.34,-384.18 99.84,-394.18 106.84,-394.18"/>
<text text-anchor="middle" x="138.84" y="-405.8" font-family="Times,serif" font-size="14.00" fill="purple">Pass Data</text>
</g>
<!-- 6ab5fc45&#45;4847&#45;4941&#45;8540&#45;299e225bbc72 -->
<g id="node8" class="node">
<title>6ab5fc45&#45;4847&#45;4941&#45;8540&#45;299e225bbc72</title>
<ellipse fill="none" stroke="black" cx="103.34" cy="-540" rx="61.1" ry="18"/>
<text text-anchor="middle" x="103.34" y="-536.3" font-family="Times,serif" font-size="14.00">ExtractPosition</text>
</g>
<!-- 6ab5fc45&#45;4847&#45;4941&#45;8540&#45;299e225bbc72&#45;&gt;12a13c72&#45;ccd9&#45;4c64&#45;8dbc&#45;e0626d327d29 -->
<g id="edge6" class="edge">
<title>6ab5fc45&#45;4847&#45;4941&#45;8540&#45;299e225bbc72&#45;&gt;12a13c72&#45;ccd9&#45;4c64&#45;8dbc&#45;e0626d327d29</title>
<path fill="none" stroke="purple" d="M103.34,-521.8C103.34,-510.16 103.34,-494.55 103.34,-481.24"/>
<polygon fill="purple" stroke="purple" points="106.84,-481.18 103.34,-471.18 99.84,-481.18 106.84,-481.18"/>
<text text-anchor="middle" x="138.84" y="-492.8" font-family="Times,serif" font-size="14.00" fill="purple">Pass Data</text>
</g>
<!-- 7871bde0&#45;ac4e&#45;433f&#45;b5de&#45;b941f9a99abc -->
<g id="node9" class="node">
<title>7871bde0&#45;ac4e&#45;433f&#45;b5de&#45;b941f9a99abc</title>
<ellipse fill="none" stroke="black" cx="103.34" cy="-627" rx="27" ry="18"/>
<text text-anchor="middle" x="103.34" y="-623.3" font-family="Times,serif" font-size="14.00">ToVec</text>
</g>
<!-- 7871bde0&#45;ac4e&#45;433f&#45;b5de&#45;b941f9a99abc&#45;&gt;6ab5fc45&#45;4847&#45;4941&#45;8540&#45;299e225bbc72 -->
<g id="edge7" class="edge">
<title>7871bde0&#45;ac4e&#45;433f&#45;b5de&#45;b941f9a99abc&#45;&gt;6ab5fc45&#45;4847&#45;4941&#45;8540&#45;299e225bbc72</title>
<path fill="none" stroke="purple" d="M103.34,-608.8C103.34,-597.16 103.34,-581.55 103.34,-568.24"/>
<polygon fill="purple" stroke="purple" points="106.84,-568.18 103.34,-558.18 99.84,-568.18 106.84,-568.18"/>
<text text-anchor="middle" x="138.84" y="-579.8" font-family="Times,serif" font-size="14.00" fill="purple">Pass Data</text>
</g>
<!-- 4f46a382&#45;6945&#45;4869&#45;a836&#45;1d61bdad3214 -->
<g id="node10" class="node">
<title>4f46a382&#45;6945&#45;4869&#45;a836&#45;1d61bdad3214</title>
<ellipse fill="none" stroke="black" cx="103.34" cy="-714" rx="45.2" ry="18"/>
<text text-anchor="middle" x="103.34" y="-710.3" font-family="Times,serif" font-size="14.00">Detect true</text>
</g>
<!-- 4f46a382&#45;6945&#45;4869&#45;a836&#45;1d61bdad3214&#45;&gt;7871bde0&#45;ac4e&#45;433f&#45;b5de&#45;b941f9a99abc -->
<g id="edge8" class="edge">
<title>4f46a382&#45;6945&#45;4869&#45;a836&#45;1d61bdad3214&#45;&gt;7871bde0&#45;ac4e&#45;433f&#45;b5de&#45;b941f9a99abc</title>
<path fill="none" stroke="purple" d="M103.34,-695.8C103.34,-684.16 103.34,-668.55 103.34,-655.24"/>
<polygon fill="purple" stroke="purple" points="106.84,-655.18 103.34,-645.18 99.84,-655.18 106.84,-655.18"/>
<text text-anchor="middle" x="138.84" y="-666.8" font-family="Times,serif" font-size="14.00" fill="purple">Pass Data</text>
</g>
<!-- aa40e016&#45;1104&#45;42d4&#45;954c&#45;db2c3c7ac6d2&#45;&gt;4f46a382&#45;6945&#45;4869&#45;a836&#45;1d61bdad3214 -->
<g id="edge9" class="edge">
<title>aa40e016&#45;1104&#45;42d4&#45;954c&#45;db2c3c7ac6d2&#45;&gt;4f46a382&#45;6945&#45;4869&#45;a836&#45;1d61bdad3214</title>
<path fill="none" stroke="purple" d="M103.34,-782.8C103.34,-771.16 103.34,-755.55 103.34,-742.24"/>
<polygon fill="purple" stroke="purple" points="106.84,-742.18 103.34,-732.18 99.84,-742.18 106.84,-742.18"/>
<text text-anchor="middle" x="138.84" y="-753.8" font-family="Times,serif" font-size="14.00" fill="purple">Pass Data</text>
</g>
<!-- 0366f902&#45;4df9&#45;4da7&#45;81c8&#45;047714bb1681 -->
<g id="node12" class="node">
<title>0366f902&#45;4df9&#45;4da7&#45;81c8&#45;047714bb1681</title>
<ellipse fill="none" stroke="black" cx="250.34" cy="-888" rx="47.1" ry="18"/>
<text text-anchor="middle" x="250.34" y="-884.3" font-family="Times,serif" font-size="14.00">DelayAction</text>
</g>
<!-- 0366f902&#45;4df9&#45;4da7&#45;81c8&#45;047714bb1681&#45;&gt;aa40e016&#45;1104&#45;42d4&#45;954c&#45;db2c3c7ac6d2 -->
<g id="edge11" class="edge">
<title>0366f902&#45;4df9&#45;4da7&#45;81c8&#45;047714bb1681&#45;&gt;aa40e016&#45;1104&#45;42d4&#45;954c&#45;db2c3c7ac6d2</title>
<path fill="none" stroke="black" d="M225.4,-872.58C201.12,-858.54 164.03,-837.09 137.1,-821.52"/>
<polygon fill="black" stroke="black" points="138.81,-818.47 128.4,-816.49 135.3,-824.53 138.81,-818.47"/>
</g>
<!-- a21475eb&#45;cb7f&#45;4751&#45;af3f&#45;2cbc714dc530 -->
<g id="node13" class="node">
<title>a21475eb&#45;cb7f&#45;4751&#45;af3f&#45;2cbc714dc530</title>
<ellipse fill="none" stroke="black" cx="250.34" cy="-961" rx="59.9" ry="18"/>
<text text-anchor="middle" x="250.34" y="-957.3" font-family="Times,serif" font-size="14.00">ZeroMovement</text>
</g>
<!-- a21475eb&#45;cb7f&#45;4751&#45;af3f&#45;2cbc714dc530&#45;&gt;0366f902&#45;4df9&#45;4da7&#45;81c8&#45;047714bb1681 -->
<g id="edge12" class="edge">
<title>a21475eb&#45;cb7f&#45;4751&#45;af3f&#45;2cbc714dc530&#45;&gt;0366f902&#45;4df9&#45;4da7&#45;81c8&#45;047714bb1681</title>
<path fill="none" stroke="black" d="M250.34,-942.81C250.34,-934.79 250.34,-925.05 250.34,-916.07"/>
<polygon fill="black" stroke="black" points="253.84,-916.03 250.34,-906.03 246.84,-916.03 253.84,-916.03"/>
</g>
</g>
</svg>
