<?xml version="1.0" encoding="UTF-8" standalone="no"?>
<!DOCTYPE svg PUBLIC "-//W3C//DTD SVG 1.1//EN"
 "http://www.w3.org/Graphics/SVG/1.1/DTD/svg11.dtd">
<!-- Generated by graphviz version 2.43.0 (0)
 -->
<!-- Title: G Pages: 1 -->
<svg width="583pt" height="552pt"
 viewBox="0.00 0.00 582.60 552.00" xmlns="http://www.w3.org/2000/svg" xmlns:xlink="http://www.w3.org/1999/xlink">
<g id="graph0" class="graph" transform="scale(1 1) rotate(0) translate(4 548)">
<title>G</title>
<polygon fill="transparent" stroke="transparent" points="-4,4 -4,-548 578.6,-548 578.6,4 -4,4"/>
<!-- d8f1bd97&#45;8f95&#45;4ffd&#45;9cce&#45;fb66f5f7f43c -->
<g id="node1" class="node">
<title>d8f1bd97&#45;8f95&#45;4ffd&#45;9cce&#45;fb66f5f7f43c</title>
<polygon fill="none" stroke="black" points="294.3,-384 166.67,-366 294.3,-348 421.93,-366 294.3,-384"/>
<text text-anchor="middle" x="294.3" y="-362.3" font-family="Times,serif" font-size="14.00">Consecutive True &lt; 34</text>
</g>
<!-- c61ff3a9&#45;dd10&#45;4721&#45;af7f&#45;be6bea264132 -->
<g id="node5" class="node">
<title>c61ff3a9&#45;dd10&#45;4721&#45;af7f&#45;be6bea264132</title>
<ellipse fill="none" stroke="black" cx="86.3" cy="-279" rx="38.5" ry="18"/>
<text text-anchor="middle" x="86.3" y="-275.3" font-family="Times,serif" font-size="14.00">ConstYaw</text>
</g>
<!-- d8f1bd97&#45;8f95&#45;4ffd&#45;9cce&#45;fb66f5f7f43c&#45;&gt;c61ff3a9&#45;dd10&#45;4721&#45;af7f&#45;be6bea264132 -->
<g id="edge6" class="edge">
<title>d8f1bd97&#45;8f95&#45;4ffd&#45;9cce&#45;fb66f5f7f43c&#45;&gt;c61ff3a9&#45;dd10&#45;4721&#45;af7f&#45;be6bea264132</title>
<path fill="none" stroke="black" d="M263.16,-352.27C225.89,-337.04 163.53,-311.56 123.69,-295.28"/>
<polygon fill="black" stroke="black" points="124.9,-291.99 114.32,-291.45 122.25,-298.47 124.9,-291.99"/>
<text text-anchor="middle" x="220.3" y="-318.8" font-family="Times,serif" font-size="14.00">True</text>
</g>
<!-- cd9adaec&#45;5634&#45;453f&#45;8fbd&#45;7ef55c987737 -->
<g id="node8" class="node">
<title>cd9adaec&#45;5634&#45;453f&#45;8fbd&#45;7ef55c987737</title>
<ellipse fill="none" stroke="black" cx="294.3" cy="-279" rx="59.9" ry="18"/>
<text text-anchor="middle" x="294.3" y="-275.3" font-family="Times,serif" font-size="14.00">ZeroMovement</text>
</g>
<!-- d8f1bd97&#45;8f95&#45;4ffd&#45;9cce&#45;fb66f5f7f43c&#45;&gt;cd9adaec&#45;5634&#45;453f&#45;8fbd&#45;7ef55c987737 -->
<g id="edge7" class="edge">
<title>d8f1bd97&#45;8f95&#45;4ffd&#45;9cce&#45;fb66f5f7f43c&#45;&gt;cd9adaec&#45;5634&#45;453f&#45;8fbd&#45;7ef55c987737</title>
<path fill="none" stroke="black" d="M294.3,-347.8C294.3,-336.16 294.3,-320.55 294.3,-307.24"/>
<polygon fill="black" stroke="black" points="297.8,-307.18 294.3,-297.18 290.8,-307.18 297.8,-307.18"/>
<text text-anchor="middle" x="313.3" y="-318.8" font-family="Times,serif" font-size="14.00">False</text>
</g>
<!-- c82728c2&#45;c76b&#45;4e5f&#45;8a23&#45;a99bd56bc802 -->
<g id="node2" class="node">
<title>c82728c2&#45;c76b&#45;4e5f&#45;8a23&#45;a99bd56bc802</title>
<ellipse fill="none" stroke="black" cx="86.3" cy="-105" rx="36.1" ry="18"/>
<text text-anchor="middle" x="86.3" y="-101.3" font-family="Times,serif" font-size="14.00">SideMult</text>
</g>
<!-- e78170a2&#45;8029&#45;43de&#45;aaa8&#45;08659b784b9d -->
<g id="node3" class="node">
<title>e78170a2&#45;8029&#45;43de&#45;aaa8&#45;08659b784b9d</title>
<ellipse fill="none" stroke="black" cx="86.3" cy="-18" rx="80.11" ry="18"/>
<text text-anchor="middle" x="86.3" y="-14.3" font-family="Times,serif" font-size="14.00">Stability2Movement</text>
</g>
<!-- c82728c2&#45;c76b&#45;4e5f&#45;8a23&#45;a99bd56bc802&#45;&gt;e78170a2&#45;8029&#45;43de&#45;aaa8&#45;08659b784b9d -->
<g id="edge1" class="edge">
<title>c82728c2&#45;c76b&#45;4e5f&#45;8a23&#45;a99bd56bc802&#45;&gt;e78170a2&#45;8029&#45;43de&#45;aaa8&#45;08659b784b9d</title>
<path fill="none" stroke="purple" d="M86.3,-86.8C86.3,-75.16 86.3,-59.55 86.3,-46.24"/>
<polygon fill="purple" stroke="purple" points="89.8,-46.18 86.3,-36.18 82.8,-46.18 89.8,-46.18"/>
<text text-anchor="middle" x="121.8" y="-57.8" font-family="Times,serif" font-size="14.00" fill="purple">Pass Data</text>
</g>
<!-- 22c00bcd&#45;f90b&#45;4396&#45;b592&#45;9007eb68fa23 -->
<g id="node4" class="node">
<title>22c00bcd&#45;f90b&#45;4396&#45;b592&#45;9007eb68fa23</title>
<ellipse fill="none" stroke="black" cx="86.3" cy="-192" rx="27" ry="18"/>
<text text-anchor="middle" x="86.3" y="-188.3" font-family="Times,serif" font-size="14.00">SetX</text>
</g>
<!-- 22c00bcd&#45;f90b&#45;4396&#45;b592&#45;9007eb68fa23&#45;&gt;c82728c2&#45;c76b&#45;4e5f&#45;8a23&#45;a99bd56bc802 -->
<g id="edge2" class="edge">
<title>22c00bcd&#45;f90b&#45;4396&#45;b592&#45;9007eb68fa23&#45;&gt;c82728c2&#45;c76b&#45;4e5f&#45;8a23&#45;a99bd56bc802</title>
<path fill="none" stroke="purple" d="M86.3,-173.8C86.3,-162.16 86.3,-146.55 86.3,-133.24"/>
<polygon fill="purple" stroke="purple" points="89.8,-133.18 86.3,-123.18 82.8,-133.18 89.8,-133.18"/>
<text text-anchor="middle" x="121.8" y="-144.8" font-family="Times,serif" font-size="14.00" fill="purple">Pass Data</text>
</g>
<!-- c61ff3a9&#45;dd10&#45;4721&#45;af7f&#45;be6bea264132&#45;&gt;22c00bcd&#45;f90b&#45;4396&#45;b592&#45;9007eb68fa23 -->
<g id="edge3" class="edge">
<title>c61ff3a9&#45;dd10&#45;4721&#45;af7f&#45;be6bea264132&#45;&gt;22c00bcd&#45;f90b&#45;4396&#45;b592&#45;9007eb68fa23</title>
<path fill="none" stroke="purple" d="M86.3,-260.8C86.3,-249.16 86.3,-233.55 86.3,-220.24"/>
<polygon fill="purple" stroke="purple" points="89.8,-220.18 86.3,-210.18 82.8,-220.18 89.8,-220.18"/>
<text text-anchor="middle" x="121.8" y="-231.8" font-family="Times,serif" font-size="14.00" fill="purple">Pass Data</text>
</g>
<!-- 207d541f&#45;6be8&#45;4ae2&#45;a99a&#45;becc5613e498 -->
<g id="node6" class="node">
<title>207d541f&#45;6be8&#45;4ae2&#45;a99a&#45;becc5613e498</title>
<ellipse fill="none" stroke="black" cx="294.3" cy="-453" rx="46.4" ry="18"/>
<text text-anchor="middle" x="294.3" y="-449.3" font-family="Times,serif" font-size="14.00">AlwaysTrue</text>
</g>
<!-- 207d541f&#45;6be8&#45;4ae2&#45;a99a&#45;becc5613e498&#45;&gt;d8f1bd97&#45;8f95&#45;4ffd&#45;9cce&#45;fb66f5f7f43c -->
<g id="edge4" class="edge">
<title>207d541f&#45;6be8&#45;4ae2&#45;a99a&#45;becc5613e498&#45;&gt;d8f1bd97&#45;8f95&#45;4ffd&#45;9cce&#45;fb66f5f7f43c</title>
<path fill="none" stroke="purple" d="M294.3,-434.8C294.3,-423.16 294.3,-407.55 294.3,-394.24"/>
<polygon fill="purple" stroke="purple" points="297.8,-394.18 294.3,-384.18 290.8,-394.18 297.8,-394.18"/>
<text text-anchor="middle" x="329.8" y="-405.8" font-family="Times,serif" font-size="14.00" fill="purple">Pass Data</text>
</g>
<!-- 61a4ed2b&#45;cd2e&#45;4371&#45;90ff&#45;b56ee4980edb -->
<g id="node7" class="node">
<title>61a4ed2b&#45;cd2e&#45;4371&#45;90ff&#45;b56ee4980edb</title>
<ellipse fill="none" stroke="black" cx="294.3" cy="-526" rx="47.1" ry="18"/>
<text text-anchor="middle" x="294.3" y="-522.3" font-family="Times,serif" font-size="14.00">DelayAction</text>
</g>
<!-- 61a4ed2b&#45;cd2e&#45;4371&#45;90ff&#45;b56ee4980edb&#45;&gt;207d541f&#45;6be8&#45;4ae2&#45;a99a&#45;becc5613e498 -->
<g id="edge5" class="edge">
<title>61a4ed2b&#45;cd2e&#45;4371&#45;90ff&#45;b56ee4980edb&#45;&gt;207d541f&#45;6be8&#45;4ae2&#45;a99a&#45;becc5613e498</title>
<path fill="none" stroke="black" d="M294.3,-507.81C294.3,-499.79 294.3,-490.05 294.3,-481.07"/>
<polygon fill="black" stroke="black" points="297.8,-481.03 294.3,-471.03 290.8,-481.03 297.8,-481.03"/>
</g>
<!-- bcd1737e&#45;beb9&#45;4a9f&#45;ba7a&#45;a8b15a1c8456 -->
<g id="node9" class="node">
<title>bcd1737e&#45;beb9&#45;4a9f&#45;ba7a&#45;a8b15a1c8456</title>
<ellipse fill="none" stroke="black" cx="47.3" cy="-366" rx="47.1" ry="18"/>
<text text-anchor="middle" x="47.3" y="-362.3" font-family="Times,serif" font-size="14.00">DelayAction</text>
</g>
<!-- bcd1737e&#45;beb9&#45;4a9f&#45;ba7a&#45;a8b15a1c8456&#45;&gt;c61ff3a9&#45;dd10&#45;4721&#45;af7f&#45;be6bea264132 -->
<g id="edge8" class="edge">
<title>bcd1737e&#45;beb9&#45;4a9f&#45;ba7a&#45;a8b15a1c8456&#45;&gt;c61ff3a9&#45;dd10&#45;4721&#45;af7f&#45;be6bea264132</title>
<path fill="none" stroke="black" d="M55.01,-348.21C60.51,-336.22 68.02,-319.85 74.3,-306.16"/>
<polygon fill="black" stroke="black" points="77.62,-307.31 78.61,-296.76 71.26,-304.39 77.62,-307.31"/>
</g>
<!-- e5b4eeec&#45;2972&#45;49cd&#45;804c&#45;b76869e15e05 -->
<g id="node10" class="node">
<title>e5b4eeec&#45;2972&#45;49cd&#45;804c&#45;b76869e15e05</title>
<ellipse fill="none" stroke="black" cx="494.3" cy="-526" rx="80.11" ry="18"/>
<text text-anchor="middle" x="494.3" y="-522.3" font-family="Times,serif" font-size="14.00">Stability2Movement</text>
</g>
</g>
</svg>
