<?xml version="1.0" encoding="UTF-8" standalone="no"?>
<!DOCTYPE svg PUBLIC "-//W3C//DTD SVG 1.1//EN"
 "http://www.w3.org/Graphics/SVG/1.1/DTD/svg11.dtd">
<!-- Generated by graphviz version 2.43.0 (0)
 -->
<!-- Title: G Pages: 1 -->
<svg width="583pt" height="552pt"
 viewBox="0.00 0.00 582.60 552.00" xmlns="http://www.w3.org/2000/svg" xmlns:xlink="http://www.w3.org/1999/xlink">
<g id="graph0" class="graph" transform="scale(1 1) rotate(0) translate(4 548)">
<title>G</title>
<polygon fill="transparent" stroke="transparent" points="-4,4 -4,-548 578.6,-548 578.6,4 -4,4"/>
<!-- 58fb81a8&#45;f3a6&#45;441d&#45;a838&#45;50f8095e3a7c -->
<g id="node1" class="node">
<title>58fb81a8&#45;f3a6&#45;441d&#45;a838&#45;50f8095e3a7c</title>
<polygon fill="none" stroke="black" points="294.3,-384 166.67,-366 294.3,-348 421.93,-366 294.3,-384"/>
<text text-anchor="middle" x="294.3" y="-362.3" font-family="Times,serif" font-size="14.00">Consecutive True &lt; 34</text>
</g>
<!-- ae02ba5d&#45;e9f9&#45;41c8&#45;b6a6&#45;1de704f9b11f -->
<g id="node5" class="node">
<title>ae02ba5d&#45;e9f9&#45;41c8&#45;b6a6&#45;1de704f9b11f</title>
<ellipse fill="none" stroke="black" cx="86.3" cy="-279" rx="38.5" ry="18"/>
<text text-anchor="middle" x="86.3" y="-275.3" font-family="Times,serif" font-size="14.00">ConstYaw</text>
</g>
<!-- 58fb81a8&#45;f3a6&#45;441d&#45;a838&#45;50f8095e3a7c&#45;&gt;ae02ba5d&#45;e9f9&#45;41c8&#45;b6a6&#45;1de704f9b11f -->
<g id="edge6" class="edge">
<title>58fb81a8&#45;f3a6&#45;441d&#45;a838&#45;50f8095e3a7c&#45;&gt;ae02ba5d&#45;e9f9&#45;41c8&#45;b6a6&#45;1de704f9b11f</title>
<path fill="none" stroke="black" d="M263.16,-352.27C225.89,-337.04 163.53,-311.56 123.69,-295.28"/>
<polygon fill="black" stroke="black" points="124.9,-291.99 114.32,-291.45 122.25,-298.47 124.9,-291.99"/>
<text text-anchor="middle" x="220.3" y="-318.8" font-family="Times,serif" font-size="14.00">True</text>
</g>
<!-- a04620a9&#45;5ea1&#45;4efc&#45;95f6&#45;dada645c1331 -->
<g id="node8" class="node">
<title>a04620a9&#45;5ea1&#45;4efc&#45;95f6&#45;dada645c1331</title>
<ellipse fill="none" stroke="black" cx="294.3" cy="-279" rx="59.9" ry="18"/>
<text text-anchor="middle" x="294.3" y="-275.3" font-family="Times,serif" font-size="14.00">ZeroMovement</text>
</g>
<!-- 58fb81a8&#45;f3a6&#45;441d&#45;a838&#45;50f8095e3a7c&#45;&gt;a04620a9&#45;5ea1&#45;4efc&#45;95f6&#45;dada645c1331 -->
<g id="edge7" class="edge">
<title>58fb81a8&#45;f3a6&#45;441d&#45;a838&#45;50f8095e3a7c&#45;&gt;a04620a9&#45;5ea1&#45;4efc&#45;95f6&#45;dada645c1331</title>
<path fill="none" stroke="black" d="M294.3,-347.8C294.3,-336.16 294.3,-320.55 294.3,-307.24"/>
<polygon fill="black" stroke="black" points="297.8,-307.18 294.3,-297.18 290.8,-307.18 297.8,-307.18"/>
<text text-anchor="middle" x="313.3" y="-318.8" font-family="Times,serif" font-size="14.00">False</text>
</g>
<!-- c8a0016e&#45;b12f&#45;4c4e&#45;a51b&#45;7d437176227e -->
<g id="node2" class="node">
<title>c8a0016e&#45;b12f&#45;4c4e&#45;a51b&#45;7d437176227e</title>
<ellipse fill="none" stroke="black" cx="86.3" cy="-105" rx="36.1" ry="18"/>
<text text-anchor="middle" x="86.3" y="-101.3" font-family="Times,serif" font-size="14.00">SideMult</text>
</g>
<!-- 933a3609&#45;41f0&#45;4890&#45;be39&#45;e5445238afcf -->
<g id="node3" class="node">
<title>933a3609&#45;41f0&#45;4890&#45;be39&#45;e5445238afcf</title>
<ellipse fill="none" stroke="black" cx="86.3" cy="-18" rx="80.11" ry="18"/>
<text text-anchor="middle" x="86.3" y="-14.3" font-family="Times,serif" font-size="14.00">Stability2Movement</text>
</g>
<!-- c8a0016e&#45;b12f&#45;4c4e&#45;a51b&#45;7d437176227e&#45;&gt;933a3609&#45;41f0&#45;4890&#45;be39&#45;e5445238afcf -->
<g id="edge1" class="edge">
<title>c8a0016e&#45;b12f&#45;4c4e&#45;a51b&#45;7d437176227e&#45;&gt;933a3609&#45;41f0&#45;4890&#45;be39&#45;e5445238afcf</title>
<path fill="none" stroke="purple" d="M86.3,-86.8C86.3,-75.16 86.3,-59.55 86.3,-46.24"/>
<polygon fill="purple" stroke="purple" points="89.8,-46.18 86.3,-36.18 82.8,-46.18 89.8,-46.18"/>
<text text-anchor="middle" x="121.8" y="-57.8" font-family="Times,serif" font-size="14.00" fill="purple">Pass Data</text>
</g>
<!-- 8f46d41b&#45;db73&#45;445a&#45;9496&#45;2b334b6e22cb -->
<g id="node4" class="node">
<title>8f46d41b&#45;db73&#45;445a&#45;9496&#45;2b334b6e22cb</title>
<ellipse fill="none" stroke="black" cx="86.3" cy="-192" rx="27" ry="18"/>
<text text-anchor="middle" x="86.3" y="-188.3" font-family="Times,serif" font-size="14.00">SetX</text>
</g>
<!-- 8f46d41b&#45;db73&#45;445a&#45;9496&#45;2b334b6e22cb&#45;&gt;c8a0016e&#45;b12f&#45;4c4e&#45;a51b&#45;7d437176227e -->
<g id="edge2" class="edge">
<title>8f46d41b&#45;db73&#45;445a&#45;9496&#45;2b334b6e22cb&#45;&gt;c8a0016e&#45;b12f&#45;4c4e&#45;a51b&#45;7d437176227e</title>
<path fill="none" stroke="purple" d="M86.3,-173.8C86.3,-162.16 86.3,-146.55 86.3,-133.24"/>
<polygon fill="purple" stroke="purple" points="89.8,-133.18 86.3,-123.18 82.8,-133.18 89.8,-133.18"/>
<text text-anchor="middle" x="121.8" y="-144.8" font-family="Times,serif" font-size="14.00" fill="purple">Pass Data</text>
</g>
<!-- ae02ba5d&#45;e9f9&#45;41c8&#45;b6a6&#45;1de704f9b11f&#45;&gt;8f46d41b&#45;db73&#45;445a&#45;9496&#45;2b334b6e22cb -->
<g id="edge3" class="edge">
<title>ae02ba5d&#45;e9f9&#45;41c8&#45;b6a6&#45;1de704f9b11f&#45;&gt;8f46d41b&#45;db73&#45;445a&#45;9496&#45;2b334b6e22cb</title>
<path fill="none" stroke="purple" d="M86.3,-260.8C86.3,-249.16 86.3,-233.55 86.3,-220.24"/>
<polygon fill="purple" stroke="purple" points="89.8,-220.18 86.3,-210.18 82.8,-220.18 89.8,-220.18"/>
<text text-anchor="middle" x="121.8" y="-231.8" font-family="Times,serif" font-size="14.00" fill="purple">Pass Data</text>
</g>
<!-- 5695c1d9&#45;1836&#45;42e4&#45;8809&#45;1c2362aabcc9 -->
<g id="node6" class="node">
<title>5695c1d9&#45;1836&#45;42e4&#45;8809&#45;1c2362aabcc9</title>
<ellipse fill="none" stroke="black" cx="294.3" cy="-453" rx="46.4" ry="18"/>
<text text-anchor="middle" x="294.3" y="-449.3" font-family="Times,serif" font-size="14.00">AlwaysTrue</text>
</g>
<!-- 5695c1d9&#45;1836&#45;42e4&#45;8809&#45;1c2362aabcc9&#45;&gt;58fb81a8&#45;f3a6&#45;441d&#45;a838&#45;50f8095e3a7c -->
<g id="edge4" class="edge">
<title>5695c1d9&#45;1836&#45;42e4&#45;8809&#45;1c2362aabcc9&#45;&gt;58fb81a8&#45;f3a6&#45;441d&#45;a838&#45;50f8095e3a7c</title>
<path fill="none" stroke="purple" d="M294.3,-434.8C294.3,-423.16 294.3,-407.55 294.3,-394.24"/>
<polygon fill="purple" stroke="purple" points="297.8,-394.18 294.3,-384.18 290.8,-394.18 297.8,-394.18"/>
<text text-anchor="middle" x="329.8" y="-405.8" font-family="Times,serif" font-size="14.00" fill="purple">Pass Data</text>
</g>
<!-- 9cde8e45&#45;ec51&#45;4e06&#45;aad6&#45;b893de4b2028 -->
<g id="node7" class="node">
<title>9cde8e45&#45;ec51&#45;4e06&#45;aad6&#45;b893de4b2028</title>
<ellipse fill="none" stroke="black" cx="294.3" cy="-526" rx="47.1" ry="18"/>
<text text-anchor="middle" x="294.3" y="-522.3" font-family="Times,serif" font-size="14.00">DelayAction</text>
</g>
<!-- 9cde8e45&#45;ec51&#45;4e06&#45;aad6&#45;b893de4b2028&#45;&gt;5695c1d9&#45;1836&#45;42e4&#45;8809&#45;1c2362aabcc9 -->
<g id="edge5" class="edge">
<title>9cde8e45&#45;ec51&#45;4e06&#45;aad6&#45;b893de4b2028&#45;&gt;5695c1d9&#45;1836&#45;42e4&#45;8809&#45;1c2362aabcc9</title>
<path fill="none" stroke="black" d="M294.3,-507.81C294.3,-499.79 294.3,-490.05 294.3,-481.07"/>
<polygon fill="black" stroke="black" points="297.8,-481.03 294.3,-471.03 290.8,-481.03 297.8,-481.03"/>
</g>
<!-- 9f94a645&#45;4975&#45;4afe&#45;a118&#45;1e54cbd26ea0 -->
<g id="node9" class="node">
<title>9f94a645&#45;4975&#45;4afe&#45;a118&#45;1e54cbd26ea0</title>
<ellipse fill="none" stroke="black" cx="47.3" cy="-366" rx="47.1" ry="18"/>
<text text-anchor="middle" x="47.3" y="-362.3" font-family="Times,serif" font-size="14.00">DelayAction</text>
</g>
<!-- 9f94a645&#45;4975&#45;4afe&#45;a118&#45;1e54cbd26ea0&#45;&gt;ae02ba5d&#45;e9f9&#45;41c8&#45;b6a6&#45;1de704f9b11f -->
<g id="edge8" class="edge">
<title>9f94a645&#45;4975&#45;4afe&#45;a118&#45;1e54cbd26ea0&#45;&gt;ae02ba5d&#45;e9f9&#45;41c8&#45;b6a6&#45;1de704f9b11f</title>
<path fill="none" stroke="black" d="M55.01,-348.21C60.51,-336.22 68.02,-319.85 74.3,-306.16"/>
<polygon fill="black" stroke="black" points="77.62,-307.31 78.61,-296.76 71.26,-304.39 77.62,-307.31"/>
</g>
<!-- b375d96e&#45;88f6&#45;4b32&#45;8272&#45;0a6135fa1911 -->
<g id="node10" class="node">
<title>b375d96e&#45;88f6&#45;4b32&#45;8272&#45;0a6135fa1911</title>
<ellipse fill="none" stroke="black" cx="494.3" cy="-526" rx="80.11" ry="18"/>
<text text-anchor="middle" x="494.3" y="-522.3" font-family="Times,serif" font-size="14.00">Stability2Movement</text>
</g>
</g>
</svg>
