<?xml version="1.0" encoding="UTF-8" standalone="no"?>
<!DOCTYPE svg PUBLIC "-//W3C//DTD SVG 1.1//EN"
 "http://www.w3.org/Graphics/SVG/1.1/DTD/svg11.dtd">
<!-- Generated by graphviz version 2.43.0 (0)
 -->
<!-- Title: G Pages: 1 -->
<svg width="318pt" height="987pt"
 viewBox="0.00 0.00 318.29 987.00" xmlns="http://www.w3.org/2000/svg" xmlns:xlink="http://www.w3.org/1999/xlink">
<g id="graph0" class="graph" transform="scale(1 1) rotate(0) translate(4 983)">
<title>G</title>
<polygon fill="transparent" stroke="transparent" points="-4,4 -4,-983 314.29,-983 314.29,4 -4,4"/>
<!-- ed0de2db&#45;10e0&#45;4a69&#45;a107&#45;63e5da9de57a -->
<g id="node1" class="node">
<title>ed0de2db&#45;10e0&#45;4a69&#45;a107&#45;63e5da9de57a</title>
<polygon fill="none" stroke="black" points="65.34,-906 0.16,-888 65.34,-870 130.52,-888 65.34,-906"/>
<text text-anchor="middle" x="65.34" y="-884.3" font-family="Times,serif" font-size="14.00">AlwaysTrue</text>
</g>
<!-- 86cf28ac&#45;8114&#45;466b&#45;acba&#45;3f5f995fbf13 -->
<g id="node11" class="node">
<title>86cf28ac&#45;8114&#45;466b&#45;acba&#45;3f5f995fbf13</title>
<ellipse fill="none" stroke="black" cx="103.34" cy="-801" rx="46.5" ry="18"/>
<text text-anchor="middle" x="103.34" y="-797.3" font-family="Times,serif" font-size="14.00">VisionNorm</text>
</g>
<!-- ed0de2db&#45;10e0&#45;4a69&#45;a107&#45;63e5da9de57a&#45;&gt;86cf28ac&#45;8114&#45;466b&#45;acba&#45;3f5f995fbf13 -->
<g id="edge10" class="edge">
<title>ed0de2db&#45;10e0&#45;4a69&#45;a107&#45;63e5da9de57a&#45;&gt;86cf28ac&#45;8114&#45;466b&#45;acba&#45;3f5f995fbf13</title>
<path fill="none" stroke="black" d="M72.13,-871.8C77.54,-859.7 85.25,-842.47 91.65,-828.16"/>
<polygon fill="black" stroke="black" points="94.94,-829.37 95.82,-818.81 88.55,-826.51 94.94,-829.37"/>
<text text-anchor="middle" x="104.34" y="-840.8" font-family="Times,serif" font-size="14.00">True</text>
</g>
<!-- e4e1cf08&#45;153f&#45;443c&#45;8a8d&#45;001e658c7667 -->
<g id="node2" class="node">
<title>e4e1cf08&#45;153f&#45;443c&#45;8a8d&#45;001e658c7667</title>
<ellipse fill="none" stroke="black" cx="103.34" cy="-105" rx="27" ry="18"/>
<text text-anchor="middle" x="103.34" y="-101.3" font-family="Times,serif" font-size="14.00">FlatX</text>
</g>
<!-- 8f25be27&#45;2670&#45;461d&#45;b493&#45;c0dd5a189a38 -->
<g id="node3" class="node">
<title>8f25be27&#45;2670&#45;461d&#45;b493&#45;c0dd5a189a38</title>
<ellipse fill="none" stroke="black" cx="103.34" cy="-18" rx="80.11" ry="18"/>
<text text-anchor="middle" x="103.34" y="-14.3" font-family="Times,serif" font-size="14.00">Stability2Movement</text>
</g>
<!-- e4e1cf08&#45;153f&#45;443c&#45;8a8d&#45;001e658c7667&#45;&gt;8f25be27&#45;2670&#45;461d&#45;b493&#45;c0dd5a189a38 -->
<g id="edge1" class="edge">
<title>e4e1cf08&#45;153f&#45;443c&#45;8a8d&#45;001e658c7667&#45;&gt;8f25be27&#45;2670&#45;461d&#45;b493&#45;c0dd5a189a38</title>
<path fill="none" stroke="purple" d="M103.34,-86.8C103.34,-75.16 103.34,-59.55 103.34,-46.24"/>
<polygon fill="purple" stroke="purple" points="106.84,-46.18 103.34,-36.18 99.84,-46.18 106.84,-46.18"/>
<text text-anchor="middle" x="138.84" y="-57.8" font-family="Times,serif" font-size="14.00" fill="purple">Pass Data</text>
</g>
<!-- 7910e3fd&#45;4303&#45;4cd1&#45;9d70&#45;bc5dd32f7b74 -->
<g id="node4" class="node">
<title>7910e3fd&#45;4303&#45;4cd1&#45;9d70&#45;bc5dd32f7b74</title>
<ellipse fill="none" stroke="black" cx="103.34" cy="-192" rx="27" ry="18"/>
<text text-anchor="middle" x="103.34" y="-188.3" font-family="Times,serif" font-size="14.00">StripY</text>
</g>
<!-- 7910e3fd&#45;4303&#45;4cd1&#45;9d70&#45;bc5dd32f7b74&#45;&gt;e4e1cf08&#45;153f&#45;443c&#45;8a8d&#45;001e658c7667 -->
<g id="edge2" class="edge">
<title>7910e3fd&#45;4303&#45;4cd1&#45;9d70&#45;bc5dd32f7b74&#45;&gt;e4e1cf08&#45;153f&#45;443c&#45;8a8d&#45;001e658c7667</title>
<path fill="none" stroke="purple" d="M103.34,-173.8C103.34,-162.16 103.34,-146.55 103.34,-133.24"/>
<polygon fill="purple" stroke="purple" points="106.84,-133.18 103.34,-123.18 99.84,-133.18 106.84,-133.18"/>
<text text-anchor="middle" x="138.84" y="-144.8" font-family="Times,serif" font-size="14.00" fill="purple">Pass Data</text>
</g>
<!-- 1c67ac81&#45;f47e&#45;44c8&#45;b2f7&#45;ba0e6ed41591 -->
<g id="node5" class="node">
<title>1c67ac81&#45;f47e&#45;44c8&#45;b2f7&#45;ba0e6ed41591</title>
<ellipse fill="none" stroke="black" cx="103.34" cy="-279" rx="52.6" ry="18"/>
<text text-anchor="middle" x="103.34" y="-275.3" font-family="Times,serif" font-size="14.00">Anon Closure</text>
</g>
<!-- 1c67ac81&#45;f47e&#45;44c8&#45;b2f7&#45;ba0e6ed41591&#45;&gt;7910e3fd&#45;4303&#45;4cd1&#45;9d70&#45;bc5dd32f7b74 -->
<g id="edge3" class="edge">
<title>1c67ac81&#45;f47e&#45;44c8&#45;b2f7&#45;ba0e6ed41591&#45;&gt;7910e3fd&#45;4303&#45;4cd1&#45;9d70&#45;bc5dd32f7b74</title>
<path fill="none" stroke="purple" d="M103.34,-260.8C103.34,-249.16 103.34,-233.55 103.34,-220.24"/>
<polygon fill="purple" stroke="purple" points="106.84,-220.18 103.34,-210.18 99.84,-220.18 106.84,-220.18"/>
<text text-anchor="middle" x="138.84" y="-231.8" font-family="Times,serif" font-size="14.00" fill="purple">Pass Data</text>
</g>
<!-- 8a3358e9&#45;e323&#45;4296&#45;9064&#45;f1e8a0742925 -->
<g id="node6" class="node">
<title>8a3358e9&#45;e323&#45;4296&#45;9064&#45;f1e8a0742925</title>
<ellipse fill="none" stroke="black" cx="103.34" cy="-366" rx="51.3" ry="18"/>
<text text-anchor="middle" x="103.34" y="-362.3" font-family="Times,serif" font-size="14.00">OffsetToPose</text>
</g>
<!-- 8a3358e9&#45;e323&#45;4296&#45;9064&#45;f1e8a0742925&#45;&gt;1c67ac81&#45;f47e&#45;44c8&#45;b2f7&#45;ba0e6ed41591 -->
<g id="edge4" class="edge">
<title>8a3358e9&#45;e323&#45;4296&#45;9064&#45;f1e8a0742925&#45;&gt;1c67ac81&#45;f47e&#45;44c8&#45;b2f7&#45;ba0e6ed41591</title>
<path fill="none" stroke="purple" d="M103.34,-347.8C103.34,-336.16 103.34,-320.55 103.34,-307.24"/>
<polygon fill="purple" stroke="purple" points="106.84,-307.18 103.34,-297.18 99.84,-307.18 106.84,-307.18"/>
<text text-anchor="middle" x="138.84" y="-318.8" font-family="Times,serif" font-size="14.00" fill="purple">Pass Data</text>
</g>
<!-- 60371784&#45;d0a8&#45;4873&#45;99f9&#45;7787855e47db -->
<g id="node7" class="node">
<title>60371784&#45;d0a8&#45;4873&#45;99f9&#45;7787855e47db</title>
<ellipse fill="none" stroke="black" cx="103.34" cy="-453" rx="32.4" ry="18"/>
<text text-anchor="middle" x="103.34" y="-449.3" font-family="Times,serif" font-size="14.00">Average</text>
</g>
<!-- 60371784&#45;d0a8&#45;4873&#45;99f9&#45;7787855e47db&#45;&gt;8a3358e9&#45;e323&#45;4296&#45;9064&#45;f1e8a0742925 -->
<g id="edge5" class="edge">
<title>60371784&#45;d0a8&#45;4873&#45;99f9&#45;7787855e47db&#45;&gt;8a3358e9&#45;e323&#45;4296&#45;9064&#45;f1e8a0742925</title>
<path fill="none" stroke="purple" d="M103.34,-434.8C103.34,-423.16 103.34,-407.55 103.34,-394.24"/>
<polygon fill="purple" stroke="purple" points="106.84,-394.18 103.34,-384.18 99.84,-394.18 106.84,-394.18"/>
<text text-anchor="middle" x="138.84" y="-405.8" font-family="Times,serif" font-size="14.00" fill="purple">Pass Data</text>
</g>
<!-- e4f9b747&#45;0890&#45;4120&#45;a6bc&#45;a930b3854e09 -->
<g id="node8" class="node">
<title>e4f9b747&#45;0890&#45;4120&#45;a6bc&#45;a930b3854e09</title>
<ellipse fill="none" stroke="black" cx="103.34" cy="-540" rx="61.1" ry="18"/>
<text text-anchor="middle" x="103.34" y="-536.3" font-family="Times,serif" font-size="14.00">ExtractPosition</text>
</g>
<!-- e4f9b747&#45;0890&#45;4120&#45;a6bc&#45;a930b3854e09&#45;&gt;60371784&#45;d0a8&#45;4873&#45;99f9&#45;7787855e47db -->
<g id="edge6" class="edge">
<title>e4f9b747&#45;0890&#45;4120&#45;a6bc&#45;a930b3854e09&#45;&gt;60371784&#45;d0a8&#45;4873&#45;99f9&#45;7787855e47db</title>
<path fill="none" stroke="purple" d="M103.34,-521.8C103.34,-510.16 103.34,-494.55 103.34,-481.24"/>
<polygon fill="purple" stroke="purple" points="106.84,-481.18 103.34,-471.18 99.84,-481.18 106.84,-481.18"/>
<text text-anchor="middle" x="138.84" y="-492.8" font-family="Times,serif" font-size="14.00" fill="purple">Pass Data</text>
</g>
<!-- b6652d63&#45;f51d&#45;4046&#45;ab1e&#45;66f8b59d3db2 -->
<g id="node9" class="node">
<title>b6652d63&#45;f51d&#45;4046&#45;ab1e&#45;66f8b59d3db2</title>
<ellipse fill="none" stroke="black" cx="103.34" cy="-627" rx="27" ry="18"/>
<text text-anchor="middle" x="103.34" y="-623.3" font-family="Times,serif" font-size="14.00">ToVec</text>
</g>
<!-- b6652d63&#45;f51d&#45;4046&#45;ab1e&#45;66f8b59d3db2&#45;&gt;e4f9b747&#45;0890&#45;4120&#45;a6bc&#45;a930b3854e09 -->
<g id="edge7" class="edge">
<title>b6652d63&#45;f51d&#45;4046&#45;ab1e&#45;66f8b59d3db2&#45;&gt;e4f9b747&#45;0890&#45;4120&#45;a6bc&#45;a930b3854e09</title>
<path fill="none" stroke="purple" d="M103.34,-608.8C103.34,-597.16 103.34,-581.55 103.34,-568.24"/>
<polygon fill="purple" stroke="purple" points="106.84,-568.18 103.34,-558.18 99.84,-568.18 106.84,-568.18"/>
<text text-anchor="middle" x="138.84" y="-579.8" font-family="Times,serif" font-size="14.00" fill="purple">Pass Data</text>
</g>
<!-- 2d61e3f4&#45;d63e&#45;4a7e&#45;8d1c&#45;ecdbdbfbe9a7 -->
<g id="node10" class="node">
<title>2d61e3f4&#45;d63e&#45;4a7e&#45;8d1c&#45;ecdbdbfbe9a7</title>
<ellipse fill="none" stroke="black" cx="103.34" cy="-714" rx="45.2" ry="18"/>
<text text-anchor="middle" x="103.34" y="-710.3" font-family="Times,serif" font-size="14.00">Detect true</text>
</g>
<!-- 2d61e3f4&#45;d63e&#45;4a7e&#45;8d1c&#45;ecdbdbfbe9a7&#45;&gt;b6652d63&#45;f51d&#45;4046&#45;ab1e&#45;66f8b59d3db2 -->
<g id="edge8" class="edge">
<title>2d61e3f4&#45;d63e&#45;4a7e&#45;8d1c&#45;ecdbdbfbe9a7&#45;&gt;b6652d63&#45;f51d&#45;4046&#45;ab1e&#45;66f8b59d3db2</title>
<path fill="none" stroke="purple" d="M103.34,-695.8C103.34,-684.16 103.34,-668.55 103.34,-655.24"/>
<polygon fill="purple" stroke="purple" points="106.84,-655.18 103.34,-645.18 99.84,-655.18 106.84,-655.18"/>
<text text-anchor="middle" x="138.84" y="-666.8" font-family="Times,serif" font-size="14.00" fill="purple">Pass Data</text>
</g>
<!-- 86cf28ac&#45;8114&#45;466b&#45;acba&#45;3f5f995fbf13&#45;&gt;2d61e3f4&#45;d63e&#45;4a7e&#45;8d1c&#45;ecdbdbfbe9a7 -->
<g id="edge9" class="edge">
<title>86cf28ac&#45;8114&#45;466b&#45;acba&#45;3f5f995fbf13&#45;&gt;2d61e3f4&#45;d63e&#45;4a7e&#45;8d1c&#45;ecdbdbfbe9a7</title>
<path fill="none" stroke="purple" d="M103.34,-782.8C103.34,-771.16 103.34,-755.55 103.34,-742.24"/>
<polygon fill="purple" stroke="purple" points="106.84,-742.18 103.34,-732.18 99.84,-742.18 106.84,-742.18"/>
<text text-anchor="middle" x="138.84" y="-753.8" font-family="Times,serif" font-size="14.00" fill="purple">Pass Data</text>
</g>
<!-- df7c6123&#45;0a69&#45;4993&#45;8d14&#45;bdf8e5995176 -->
<g id="node12" class="node">
<title>df7c6123&#45;0a69&#45;4993&#45;8d14&#45;bdf8e5995176</title>
<ellipse fill="none" stroke="black" cx="250.34" cy="-888" rx="47.1" ry="18"/>
<text text-anchor="middle" x="250.34" y="-884.3" font-family="Times,serif" font-size="14.00">DelayAction</text>
</g>
<!-- df7c6123&#45;0a69&#45;4993&#45;8d14&#45;bdf8e5995176&#45;&gt;86cf28ac&#45;8114&#45;466b&#45;acba&#45;3f5f995fbf13 -->
<g id="edge11" class="edge">
<title>df7c6123&#45;0a69&#45;4993&#45;8d14&#45;bdf8e5995176&#45;&gt;86cf28ac&#45;8114&#45;466b&#45;acba&#45;3f5f995fbf13</title>
<path fill="none" stroke="black" d="M225.4,-872.58C201.12,-858.54 164.03,-837.09 137.1,-821.52"/>
<polygon fill="black" stroke="black" points="138.81,-818.47 128.4,-816.49 135.3,-824.53 138.81,-818.47"/>
</g>
<!-- f6700c9a&#45;7038&#45;4b60&#45;b761&#45;2c73c5c36499 -->
<g id="node13" class="node">
<title>f6700c9a&#45;7038&#45;4b60&#45;b761&#45;2c73c5c36499</title>
<ellipse fill="none" stroke="black" cx="250.34" cy="-961" rx="59.9" ry="18"/>
<text text-anchor="middle" x="250.34" y="-957.3" font-family="Times,serif" font-size="14.00">ZeroMovement</text>
</g>
<!-- f6700c9a&#45;7038&#45;4b60&#45;b761&#45;2c73c5c36499&#45;&gt;df7c6123&#45;0a69&#45;4993&#45;8d14&#45;bdf8e5995176 -->
<g id="edge12" class="edge">
<title>f6700c9a&#45;7038&#45;4b60&#45;b761&#45;2c73c5c36499&#45;&gt;df7c6123&#45;0a69&#45;4993&#45;8d14&#45;bdf8e5995176</title>
<path fill="none" stroke="black" d="M250.34,-942.81C250.34,-934.79 250.34,-925.05 250.34,-916.07"/>
<polygon fill="black" stroke="black" points="253.84,-916.03 250.34,-906.03 246.84,-916.03 253.84,-916.03"/>
</g>
</g>
</svg>
