<?xml version="1.0" encoding="UTF-8" standalone="no"?>
<!DOCTYPE svg PUBLIC "-//W3C//DTD SVG 1.1//EN"
 "http://www.w3.org/Graphics/SVG/1.1/DTD/svg11.dtd">
<!-- Generated by graphviz version 2.43.0 (0)
 -->
<!-- Title: G Pages: 1 -->
<svg width="583pt" height="552pt"
 viewBox="0.00 0.00 582.60 552.00" xmlns="http://www.w3.org/2000/svg" xmlns:xlink="http://www.w3.org/1999/xlink">
<g id="graph0" class="graph" transform="scale(1 1) rotate(0) translate(4 548)">
<title>G</title>
<polygon fill="transparent" stroke="transparent" points="-4,4 -4,-548 578.6,-548 578.6,4 -4,4"/>
<!-- 50737eb4&#45;899f&#45;4d23&#45;b9a5&#45;1496b4482f0d -->
<g id="node1" class="node">
<title>50737eb4&#45;899f&#45;4d23&#45;b9a5&#45;1496b4482f0d</title>
<polygon fill="none" stroke="black" points="294.3,-384 166.67,-366 294.3,-348 421.93,-366 294.3,-384"/>
<text text-anchor="middle" x="294.3" y="-362.3" font-family="Times,serif" font-size="14.00">Consecutive True &lt; 34</text>
</g>
<!-- 40238195&#45;7b4f&#45;40e2&#45;8aa5&#45;a2d9070a0cf4 -->
<g id="node5" class="node">
<title>40238195&#45;7b4f&#45;40e2&#45;8aa5&#45;a2d9070a0cf4</title>
<ellipse fill="none" stroke="black" cx="86.3" cy="-279" rx="38.5" ry="18"/>
<text text-anchor="middle" x="86.3" y="-275.3" font-family="Times,serif" font-size="14.00">ConstYaw</text>
</g>
<!-- 50737eb4&#45;899f&#45;4d23&#45;b9a5&#45;1496b4482f0d&#45;&gt;40238195&#45;7b4f&#45;40e2&#45;8aa5&#45;a2d9070a0cf4 -->
<g id="edge6" class="edge">
<title>50737eb4&#45;899f&#45;4d23&#45;b9a5&#45;1496b4482f0d&#45;&gt;40238195&#45;7b4f&#45;40e2&#45;8aa5&#45;a2d9070a0cf4</title>
<path fill="none" stroke="black" d="M263.16,-352.27C225.89,-337.04 163.53,-311.56 123.69,-295.28"/>
<polygon fill="black" stroke="black" points="124.9,-291.99 114.32,-291.45 122.25,-298.47 124.9,-291.99"/>
<text text-anchor="middle" x="220.3" y="-318.8" font-family="Times,serif" font-size="14.00">True</text>
</g>
<!-- 45faa2b8&#45;0706&#45;472e&#45;b93f&#45;2c22c7999918 -->
<g id="node8" class="node">
<title>45faa2b8&#45;0706&#45;472e&#45;b93f&#45;2c22c7999918</title>
<ellipse fill="none" stroke="black" cx="294.3" cy="-279" rx="59.9" ry="18"/>
<text text-anchor="middle" x="294.3" y="-275.3" font-family="Times,serif" font-size="14.00">ZeroMovement</text>
</g>
<!-- 50737eb4&#45;899f&#45;4d23&#45;b9a5&#45;1496b4482f0d&#45;&gt;45faa2b8&#45;0706&#45;472e&#45;b93f&#45;2c22c7999918 -->
<g id="edge7" class="edge">
<title>50737eb4&#45;899f&#45;4d23&#45;b9a5&#45;1496b4482f0d&#45;&gt;45faa2b8&#45;0706&#45;472e&#45;b93f&#45;2c22c7999918</title>
<path fill="none" stroke="black" d="M294.3,-347.8C294.3,-336.16 294.3,-320.55 294.3,-307.24"/>
<polygon fill="black" stroke="black" points="297.8,-307.18 294.3,-297.18 290.8,-307.18 297.8,-307.18"/>
<text text-anchor="middle" x="313.3" y="-318.8" font-family="Times,serif" font-size="14.00">False</text>
</g>
<!-- 27aa9c37&#45;fc9b&#45;4255&#45;a78e&#45;536f1ab79d2f -->
<g id="node2" class="node">
<title>27aa9c37&#45;fc9b&#45;4255&#45;a78e&#45;536f1ab79d2f</title>
<ellipse fill="none" stroke="black" cx="86.3" cy="-105" rx="36.1" ry="18"/>
<text text-anchor="middle" x="86.3" y="-101.3" font-family="Times,serif" font-size="14.00">SideMult</text>
</g>
<!-- 6333e910&#45;582d&#45;41da&#45;8342&#45;11dcc2b9fc7c -->
<g id="node3" class="node">
<title>6333e910&#45;582d&#45;41da&#45;8342&#45;11dcc2b9fc7c</title>
<ellipse fill="none" stroke="black" cx="86.3" cy="-18" rx="80.11" ry="18"/>
<text text-anchor="middle" x="86.3" y="-14.3" font-family="Times,serif" font-size="14.00">Stability2Movement</text>
</g>
<!-- 27aa9c37&#45;fc9b&#45;4255&#45;a78e&#45;536f1ab79d2f&#45;&gt;6333e910&#45;582d&#45;41da&#45;8342&#45;11dcc2b9fc7c -->
<g id="edge1" class="edge">
<title>27aa9c37&#45;fc9b&#45;4255&#45;a78e&#45;536f1ab79d2f&#45;&gt;6333e910&#45;582d&#45;41da&#45;8342&#45;11dcc2b9fc7c</title>
<path fill="none" stroke="purple" d="M86.3,-86.8C86.3,-75.16 86.3,-59.55 86.3,-46.24"/>
<polygon fill="purple" stroke="purple" points="89.8,-46.18 86.3,-36.18 82.8,-46.18 89.8,-46.18"/>
<text text-anchor="middle" x="121.8" y="-57.8" font-family="Times,serif" font-size="14.00" fill="purple">Pass Data</text>
</g>
<!-- 83357386&#45;1f96&#45;45f3&#45;9c21&#45;2157e766a234 -->
<g id="node4" class="node">
<title>83357386&#45;1f96&#45;45f3&#45;9c21&#45;2157e766a234</title>
<ellipse fill="none" stroke="black" cx="86.3" cy="-192" rx="27" ry="18"/>
<text text-anchor="middle" x="86.3" y="-188.3" font-family="Times,serif" font-size="14.00">SetX</text>
</g>
<!-- 83357386&#45;1f96&#45;45f3&#45;9c21&#45;2157e766a234&#45;&gt;27aa9c37&#45;fc9b&#45;4255&#45;a78e&#45;536f1ab79d2f -->
<g id="edge2" class="edge">
<title>83357386&#45;1f96&#45;45f3&#45;9c21&#45;2157e766a234&#45;&gt;27aa9c37&#45;fc9b&#45;4255&#45;a78e&#45;536f1ab79d2f</title>
<path fill="none" stroke="purple" d="M86.3,-173.8C86.3,-162.16 86.3,-146.55 86.3,-133.24"/>
<polygon fill="purple" stroke="purple" points="89.8,-133.18 86.3,-123.18 82.8,-133.18 89.8,-133.18"/>
<text text-anchor="middle" x="121.8" y="-144.8" font-family="Times,serif" font-size="14.00" fill="purple">Pass Data</text>
</g>
<!-- 40238195&#45;7b4f&#45;40e2&#45;8aa5&#45;a2d9070a0cf4&#45;&gt;83357386&#45;1f96&#45;45f3&#45;9c21&#45;2157e766a234 -->
<g id="edge3" class="edge">
<title>40238195&#45;7b4f&#45;40e2&#45;8aa5&#45;a2d9070a0cf4&#45;&gt;83357386&#45;1f96&#45;45f3&#45;9c21&#45;2157e766a234</title>
<path fill="none" stroke="purple" d="M86.3,-260.8C86.3,-249.16 86.3,-233.55 86.3,-220.24"/>
<polygon fill="purple" stroke="purple" points="89.8,-220.18 86.3,-210.18 82.8,-220.18 89.8,-220.18"/>
<text text-anchor="middle" x="121.8" y="-231.8" font-family="Times,serif" font-size="14.00" fill="purple">Pass Data</text>
</g>
<!-- a429ebe3&#45;dc73&#45;42c8&#45;b21d&#45;43f81390ed01 -->
<g id="node6" class="node">
<title>a429ebe3&#45;dc73&#45;42c8&#45;b21d&#45;43f81390ed01</title>
<ellipse fill="none" stroke="black" cx="294.3" cy="-453" rx="46.4" ry="18"/>
<text text-anchor="middle" x="294.3" y="-449.3" font-family="Times,serif" font-size="14.00">AlwaysTrue</text>
</g>
<!-- a429ebe3&#45;dc73&#45;42c8&#45;b21d&#45;43f81390ed01&#45;&gt;50737eb4&#45;899f&#45;4d23&#45;b9a5&#45;1496b4482f0d -->
<g id="edge4" class="edge">
<title>a429ebe3&#45;dc73&#45;42c8&#45;b21d&#45;43f81390ed01&#45;&gt;50737eb4&#45;899f&#45;4d23&#45;b9a5&#45;1496b4482f0d</title>
<path fill="none" stroke="purple" d="M294.3,-434.8C294.3,-423.16 294.3,-407.55 294.3,-394.24"/>
<polygon fill="purple" stroke="purple" points="297.8,-394.18 294.3,-384.18 290.8,-394.18 297.8,-394.18"/>
<text text-anchor="middle" x="329.8" y="-405.8" font-family="Times,serif" font-size="14.00" fill="purple">Pass Data</text>
</g>
<!-- b2a90841&#45;832d&#45;47df&#45;a896&#45;edfe118323ae -->
<g id="node7" class="node">
<title>b2a90841&#45;832d&#45;47df&#45;a896&#45;edfe118323ae</title>
<ellipse fill="none" stroke="black" cx="294.3" cy="-526" rx="47.1" ry="18"/>
<text text-anchor="middle" x="294.3" y="-522.3" font-family="Times,serif" font-size="14.00">DelayAction</text>
</g>
<!-- b2a90841&#45;832d&#45;47df&#45;a896&#45;edfe118323ae&#45;&gt;a429ebe3&#45;dc73&#45;42c8&#45;b21d&#45;43f81390ed01 -->
<g id="edge5" class="edge">
<title>b2a90841&#45;832d&#45;47df&#45;a896&#45;edfe118323ae&#45;&gt;a429ebe3&#45;dc73&#45;42c8&#45;b21d&#45;43f81390ed01</title>
<path fill="none" stroke="black" d="M294.3,-507.81C294.3,-499.79 294.3,-490.05 294.3,-481.07"/>
<polygon fill="black" stroke="black" points="297.8,-481.03 294.3,-471.03 290.8,-481.03 297.8,-481.03"/>
</g>
<!-- 671e4446&#45;aa62&#45;4d75&#45;a1d4&#45;4795c67a4c06 -->
<g id="node9" class="node">
<title>671e4446&#45;aa62&#45;4d75&#45;a1d4&#45;4795c67a4c06</title>
<ellipse fill="none" stroke="black" cx="47.3" cy="-366" rx="47.1" ry="18"/>
<text text-anchor="middle" x="47.3" y="-362.3" font-family="Times,serif" font-size="14.00">DelayAction</text>
</g>
<!-- 671e4446&#45;aa62&#45;4d75&#45;a1d4&#45;4795c67a4c06&#45;&gt;40238195&#45;7b4f&#45;40e2&#45;8aa5&#45;a2d9070a0cf4 -->
<g id="edge8" class="edge">
<title>671e4446&#45;aa62&#45;4d75&#45;a1d4&#45;4795c67a4c06&#45;&gt;40238195&#45;7b4f&#45;40e2&#45;8aa5&#45;a2d9070a0cf4</title>
<path fill="none" stroke="black" d="M55.01,-348.21C60.51,-336.22 68.02,-319.85 74.3,-306.16"/>
<polygon fill="black" stroke="black" points="77.62,-307.31 78.61,-296.76 71.26,-304.39 77.62,-307.31"/>
</g>
<!-- 067f7347&#45;c3b0&#45;401a&#45;ad99&#45;f1c135c295ea -->
<g id="node10" class="node">
<title>067f7347&#45;c3b0&#45;401a&#45;ad99&#45;f1c135c295ea</title>
<ellipse fill="none" stroke="black" cx="494.3" cy="-526" rx="80.11" ry="18"/>
<text text-anchor="middle" x="494.3" y="-522.3" font-family="Times,serif" font-size="14.00">Stability2Movement</text>
</g>
</g>
</svg>
