<?xml version="1.0" encoding="UTF-8" standalone="no"?>
<!DOCTYPE svg PUBLIC "-//W3C//DTD SVG 1.1//EN"
 "http://www.w3.org/Graphics/SVG/1.1/DTD/svg11.dtd">
<!-- Generated by graphviz version 2.43.0 (0)
 -->
<!-- Title: G Pages: 1 -->
<svg width="318pt" height="987pt"
 viewBox="0.00 0.00 318.29 987.00" xmlns="http://www.w3.org/2000/svg" xmlns:xlink="http://www.w3.org/1999/xlink">
<g id="graph0" class="graph" transform="scale(1 1) rotate(0) translate(4 983)">
<title>G</title>
<polygon fill="transparent" stroke="transparent" points="-4,4 -4,-983 314.29,-983 314.29,4 -4,4"/>
<!-- 71b7e126&#45;0722&#45;4b5c&#45;8643&#45;98a28c4ac298 -->
<g id="node1" class="node">
<title>71b7e126&#45;0722&#45;4b5c&#45;8643&#45;98a28c4ac298</title>
<polygon fill="none" stroke="black" points="65.34,-906 0.16,-888 65.34,-870 130.52,-888 65.34,-906"/>
<text text-anchor="middle" x="65.34" y="-884.3" font-family="Times,serif" font-size="14.00">AlwaysTrue</text>
</g>
<!-- 3af55070&#45;0a3c&#45;41c3&#45;913f&#45;414761d5f7e6 -->
<g id="node11" class="node">
<title>3af55070&#45;0a3c&#45;41c3&#45;913f&#45;414761d5f7e6</title>
<ellipse fill="none" stroke="black" cx="103.34" cy="-801" rx="46.5" ry="18"/>
<text text-anchor="middle" x="103.34" y="-797.3" font-family="Times,serif" font-size="14.00">VisionNorm</text>
</g>
<!-- 71b7e126&#45;0722&#45;4b5c&#45;8643&#45;98a28c4ac298&#45;&gt;3af55070&#45;0a3c&#45;41c3&#45;913f&#45;414761d5f7e6 -->
<g id="edge10" class="edge">
<title>71b7e126&#45;0722&#45;4b5c&#45;8643&#45;98a28c4ac298&#45;&gt;3af55070&#45;0a3c&#45;41c3&#45;913f&#45;414761d5f7e6</title>
<path fill="none" stroke="black" d="M72.13,-871.8C77.54,-859.7 85.25,-842.47 91.65,-828.16"/>
<polygon fill="black" stroke="black" points="94.94,-829.37 95.82,-818.81 88.55,-826.51 94.94,-829.37"/>
<text text-anchor="middle" x="104.34" y="-840.8" font-family="Times,serif" font-size="14.00">True</text>
</g>
<!-- 6f90951a&#45;d445&#45;49ed&#45;8402&#45;cbf5cbb6cac2 -->
<g id="node2" class="node">
<title>6f90951a&#45;d445&#45;49ed&#45;8402&#45;cbf5cbb6cac2</title>
<ellipse fill="none" stroke="black" cx="103.34" cy="-105" rx="27" ry="18"/>
<text text-anchor="middle" x="103.34" y="-101.3" font-family="Times,serif" font-size="14.00">FlatX</text>
</g>
<!-- 4e09807a&#45;37d9&#45;48e3&#45;9ddb&#45;3c645ba298b7 -->
<g id="node3" class="node">
<title>4e09807a&#45;37d9&#45;48e3&#45;9ddb&#45;3c645ba298b7</title>
<ellipse fill="none" stroke="black" cx="103.34" cy="-18" rx="80.11" ry="18"/>
<text text-anchor="middle" x="103.34" y="-14.3" font-family="Times,serif" font-size="14.00">Stability2Movement</text>
</g>
<!-- 6f90951a&#45;d445&#45;49ed&#45;8402&#45;cbf5cbb6cac2&#45;&gt;4e09807a&#45;37d9&#45;48e3&#45;9ddb&#45;3c645ba298b7 -->
<g id="edge1" class="edge">
<title>6f90951a&#45;d445&#45;49ed&#45;8402&#45;cbf5cbb6cac2&#45;&gt;4e09807a&#45;37d9&#45;48e3&#45;9ddb&#45;3c645ba298b7</title>
<path fill="none" stroke="purple" d="M103.34,-86.8C103.34,-75.16 103.34,-59.55 103.34,-46.24"/>
<polygon fill="purple" stroke="purple" points="106.84,-46.18 103.34,-36.18 99.84,-46.18 106.84,-46.18"/>
<text text-anchor="middle" x="138.84" y="-57.8" font-family="Times,serif" font-size="14.00" fill="purple">Pass Data</text>
</g>
<!-- 83a85fed&#45;d733&#45;474f&#45;ae8c&#45;7fcc97db60f7 -->
<g id="node4" class="node">
<title>83a85fed&#45;d733&#45;474f&#45;ae8c&#45;7fcc97db60f7</title>
<ellipse fill="none" stroke="black" cx="103.34" cy="-192" rx="27" ry="18"/>
<text text-anchor="middle" x="103.34" y="-188.3" font-family="Times,serif" font-size="14.00">StripY</text>
</g>
<!-- 83a85fed&#45;d733&#45;474f&#45;ae8c&#45;7fcc97db60f7&#45;&gt;6f90951a&#45;d445&#45;49ed&#45;8402&#45;cbf5cbb6cac2 -->
<g id="edge2" class="edge">
<title>83a85fed&#45;d733&#45;474f&#45;ae8c&#45;7fcc97db60f7&#45;&gt;6f90951a&#45;d445&#45;49ed&#45;8402&#45;cbf5cbb6cac2</title>
<path fill="none" stroke="purple" d="M103.34,-173.8C103.34,-162.16 103.34,-146.55 103.34,-133.24"/>
<polygon fill="purple" stroke="purple" points="106.84,-133.18 103.34,-123.18 99.84,-133.18 106.84,-133.18"/>
<text text-anchor="middle" x="138.84" y="-144.8" font-family="Times,serif" font-size="14.00" fill="purple">Pass Data</text>
</g>
<!-- 41dd0cb5&#45;1496&#45;4bef&#45;b672&#45;dfc22ea02f75 -->
<g id="node5" class="node">
<title>41dd0cb5&#45;1496&#45;4bef&#45;b672&#45;dfc22ea02f75</title>
<ellipse fill="none" stroke="black" cx="103.34" cy="-279" rx="52.6" ry="18"/>
<text text-anchor="middle" x="103.34" y="-275.3" font-family="Times,serif" font-size="14.00">Anon Closure</text>
</g>
<!-- 41dd0cb5&#45;1496&#45;4bef&#45;b672&#45;dfc22ea02f75&#45;&gt;83a85fed&#45;d733&#45;474f&#45;ae8c&#45;7fcc97db60f7 -->
<g id="edge3" class="edge">
<title>41dd0cb5&#45;1496&#45;4bef&#45;b672&#45;dfc22ea02f75&#45;&gt;83a85fed&#45;d733&#45;474f&#45;ae8c&#45;7fcc97db60f7</title>
<path fill="none" stroke="purple" d="M103.34,-260.8C103.34,-249.16 103.34,-233.55 103.34,-220.24"/>
<polygon fill="purple" stroke="purple" points="106.84,-220.18 103.34,-210.18 99.84,-220.18 106.84,-220.18"/>
<text text-anchor="middle" x="138.84" y="-231.8" font-family="Times,serif" font-size="14.00" fill="purple">Pass Data</text>
</g>
<!-- 33cf70f3&#45;3acc&#45;4c3a&#45;8b99&#45;8bcf22241757 -->
<g id="node6" class="node">
<title>33cf70f3&#45;3acc&#45;4c3a&#45;8b99&#45;8bcf22241757</title>
<ellipse fill="none" stroke="black" cx="103.34" cy="-366" rx="51.3" ry="18"/>
<text text-anchor="middle" x="103.34" y="-362.3" font-family="Times,serif" font-size="14.00">OffsetToPose</text>
</g>
<!-- 33cf70f3&#45;3acc&#45;4c3a&#45;8b99&#45;8bcf22241757&#45;&gt;41dd0cb5&#45;1496&#45;4bef&#45;b672&#45;dfc22ea02f75 -->
<g id="edge4" class="edge">
<title>33cf70f3&#45;3acc&#45;4c3a&#45;8b99&#45;8bcf22241757&#45;&gt;41dd0cb5&#45;1496&#45;4bef&#45;b672&#45;dfc22ea02f75</title>
<path fill="none" stroke="purple" d="M103.34,-347.8C103.34,-336.16 103.34,-320.55 103.34,-307.24"/>
<polygon fill="purple" stroke="purple" points="106.84,-307.18 103.34,-297.18 99.84,-307.18 106.84,-307.18"/>
<text text-anchor="middle" x="138.84" y="-318.8" font-family="Times,serif" font-size="14.00" fill="purple">Pass Data</text>
</g>
<!-- 6556ee1f&#45;d856&#45;4d15&#45;9ce5&#45;d5d144893ecb -->
<g id="node7" class="node">
<title>6556ee1f&#45;d856&#45;4d15&#45;9ce5&#45;d5d144893ecb</title>
<ellipse fill="none" stroke="black" cx="103.34" cy="-453" rx="32.4" ry="18"/>
<text text-anchor="middle" x="103.34" y="-449.3" font-family="Times,serif" font-size="14.00">Average</text>
</g>
<!-- 6556ee1f&#45;d856&#45;4d15&#45;9ce5&#45;d5d144893ecb&#45;&gt;33cf70f3&#45;3acc&#45;4c3a&#45;8b99&#45;8bcf22241757 -->
<g id="edge5" class="edge">
<title>6556ee1f&#45;d856&#45;4d15&#45;9ce5&#45;d5d144893ecb&#45;&gt;33cf70f3&#45;3acc&#45;4c3a&#45;8b99&#45;8bcf22241757</title>
<path fill="none" stroke="purple" d="M103.34,-434.8C103.34,-423.16 103.34,-407.55 103.34,-394.24"/>
<polygon fill="purple" stroke="purple" points="106.84,-394.18 103.34,-384.18 99.84,-394.18 106.84,-394.18"/>
<text text-anchor="middle" x="138.84" y="-405.8" font-family="Times,serif" font-size="14.00" fill="purple">Pass Data</text>
</g>
<!-- 7f8f73e5&#45;eab9&#45;4d75&#45;bf4f&#45;84900389b63c -->
<g id="node8" class="node">
<title>7f8f73e5&#45;eab9&#45;4d75&#45;bf4f&#45;84900389b63c</title>
<ellipse fill="none" stroke="black" cx="103.34" cy="-540" rx="61.1" ry="18"/>
<text text-anchor="middle" x="103.34" y="-536.3" font-family="Times,serif" font-size="14.00">ExtractPosition</text>
</g>
<!-- 7f8f73e5&#45;eab9&#45;4d75&#45;bf4f&#45;84900389b63c&#45;&gt;6556ee1f&#45;d856&#45;4d15&#45;9ce5&#45;d5d144893ecb -->
<g id="edge6" class="edge">
<title>7f8f73e5&#45;eab9&#45;4d75&#45;bf4f&#45;84900389b63c&#45;&gt;6556ee1f&#45;d856&#45;4d15&#45;9ce5&#45;d5d144893ecb</title>
<path fill="none" stroke="purple" d="M103.34,-521.8C103.34,-510.16 103.34,-494.55 103.34,-481.24"/>
<polygon fill="purple" stroke="purple" points="106.84,-481.18 103.34,-471.18 99.84,-481.18 106.84,-481.18"/>
<text text-anchor="middle" x="138.84" y="-492.8" font-family="Times,serif" font-size="14.00" fill="purple">Pass Data</text>
</g>
<!-- 46fc8718&#45;27b1&#45;40d0&#45;8087&#45;9d54603aa480 -->
<g id="node9" class="node">
<title>46fc8718&#45;27b1&#45;40d0&#45;8087&#45;9d54603aa480</title>
<ellipse fill="none" stroke="black" cx="103.34" cy="-627" rx="27" ry="18"/>
<text text-anchor="middle" x="103.34" y="-623.3" font-family="Times,serif" font-size="14.00">ToVec</text>
</g>
<!-- 46fc8718&#45;27b1&#45;40d0&#45;8087&#45;9d54603aa480&#45;&gt;7f8f73e5&#45;eab9&#45;4d75&#45;bf4f&#45;84900389b63c -->
<g id="edge7" class="edge">
<title>46fc8718&#45;27b1&#45;40d0&#45;8087&#45;9d54603aa480&#45;&gt;7f8f73e5&#45;eab9&#45;4d75&#45;bf4f&#45;84900389b63c</title>
<path fill="none" stroke="purple" d="M103.34,-608.8C103.34,-597.16 103.34,-581.55 103.34,-568.24"/>
<polygon fill="purple" stroke="purple" points="106.84,-568.18 103.34,-558.18 99.84,-568.18 106.84,-568.18"/>
<text text-anchor="middle" x="138.84" y="-579.8" font-family="Times,serif" font-size="14.00" fill="purple">Pass Data</text>
</g>
<!-- 5d275b78&#45;ad3f&#45;4da1&#45;9eb5&#45;f1c85c5154fa -->
<g id="node10" class="node">
<title>5d275b78&#45;ad3f&#45;4da1&#45;9eb5&#45;f1c85c5154fa</title>
<ellipse fill="none" stroke="black" cx="103.34" cy="-714" rx="45.2" ry="18"/>
<text text-anchor="middle" x="103.34" y="-710.3" font-family="Times,serif" font-size="14.00">Detect true</text>
</g>
<!-- 5d275b78&#45;ad3f&#45;4da1&#45;9eb5&#45;f1c85c5154fa&#45;&gt;46fc8718&#45;27b1&#45;40d0&#45;8087&#45;9d54603aa480 -->
<g id="edge8" class="edge">
<title>5d275b78&#45;ad3f&#45;4da1&#45;9eb5&#45;f1c85c5154fa&#45;&gt;46fc8718&#45;27b1&#45;40d0&#45;8087&#45;9d54603aa480</title>
<path fill="none" stroke="purple" d="M103.34,-695.8C103.34,-684.16 103.34,-668.55 103.34,-655.24"/>
<polygon fill="purple" stroke="purple" points="106.84,-655.18 103.34,-645.18 99.84,-655.18 106.84,-655.18"/>
<text text-anchor="middle" x="138.84" y="-666.8" font-family="Times,serif" font-size="14.00" fill="purple">Pass Data</text>
</g>
<!-- 3af55070&#45;0a3c&#45;41c3&#45;913f&#45;414761d5f7e6&#45;&gt;5d275b78&#45;ad3f&#45;4da1&#45;9eb5&#45;f1c85c5154fa -->
<g id="edge9" class="edge">
<title>3af55070&#45;0a3c&#45;41c3&#45;913f&#45;414761d5f7e6&#45;&gt;5d275b78&#45;ad3f&#45;4da1&#45;9eb5&#45;f1c85c5154fa</title>
<path fill="none" stroke="purple" d="M103.34,-782.8C103.34,-771.16 103.34,-755.55 103.34,-742.24"/>
<polygon fill="purple" stroke="purple" points="106.84,-742.18 103.34,-732.18 99.84,-742.18 106.84,-742.18"/>
<text text-anchor="middle" x="138.84" y="-753.8" font-family="Times,serif" font-size="14.00" fill="purple">Pass Data</text>
</g>
<!-- 4f7ed752&#45;bd6b&#45;47f6&#45;a4f7&#45;86384184c79d -->
<g id="node12" class="node">
<title>4f7ed752&#45;bd6b&#45;47f6&#45;a4f7&#45;86384184c79d</title>
<ellipse fill="none" stroke="black" cx="250.34" cy="-888" rx="47.1" ry="18"/>
<text text-anchor="middle" x="250.34" y="-884.3" font-family="Times,serif" font-size="14.00">DelayAction</text>
</g>
<!-- 4f7ed752&#45;bd6b&#45;47f6&#45;a4f7&#45;86384184c79d&#45;&gt;3af55070&#45;0a3c&#45;41c3&#45;913f&#45;414761d5f7e6 -->
<g id="edge11" class="edge">
<title>4f7ed752&#45;bd6b&#45;47f6&#45;a4f7&#45;86384184c79d&#45;&gt;3af55070&#45;0a3c&#45;41c3&#45;913f&#45;414761d5f7e6</title>
<path fill="none" stroke="black" d="M225.4,-872.58C201.12,-858.54 164.03,-837.09 137.1,-821.52"/>
<polygon fill="black" stroke="black" points="138.81,-818.47 128.4,-816.49 135.3,-824.53 138.81,-818.47"/>
</g>
<!-- b7d5a793&#45;f68e&#45;4fe7&#45;b52e&#45;810a63ee9b47 -->
<g id="node13" class="node">
<title>b7d5a793&#45;f68e&#45;4fe7&#45;b52e&#45;810a63ee9b47</title>
<ellipse fill="none" stroke="black" cx="250.34" cy="-961" rx="59.9" ry="18"/>
<text text-anchor="middle" x="250.34" y="-957.3" font-family="Times,serif" font-size="14.00">ZeroMovement</text>
</g>
<!-- b7d5a793&#45;f68e&#45;4fe7&#45;b52e&#45;810a63ee9b47&#45;&gt;4f7ed752&#45;bd6b&#45;47f6&#45;a4f7&#45;86384184c79d -->
<g id="edge12" class="edge">
<title>b7d5a793&#45;f68e&#45;4fe7&#45;b52e&#45;810a63ee9b47&#45;&gt;4f7ed752&#45;bd6b&#45;47f6&#45;a4f7&#45;86384184c79d</title>
<path fill="none" stroke="black" d="M250.34,-942.81C250.34,-934.79 250.34,-925.05 250.34,-916.07"/>
<polygon fill="black" stroke="black" points="253.84,-916.03 250.34,-906.03 246.84,-916.03 253.84,-916.03"/>
</g>
</g>
</svg>
