<?xml version="1.0" encoding="UTF-8" standalone="no"?>
<!DOCTYPE svg PUBLIC "-//W3C//DTD SVG 1.1//EN"
 "http://www.w3.org/Graphics/SVG/1.1/DTD/svg11.dtd">
<!-- Generated by graphviz version 2.43.0 (0)
 -->
<!-- Title: G Pages: 1 -->
<svg width="743pt" height="1121pt"
 viewBox="0.00 0.00 742.80 1121.00" xmlns="http://www.w3.org/2000/svg" xmlns:xlink="http://www.w3.org/1999/xlink">
<g id="graph0" class="graph" transform="scale(1 1) rotate(0) translate(4 1117)">
<title>G</title>
<polygon fill="transparent" stroke="transparent" points="-4,4 -4,-1117 738.8,-1117 738.8,4 -4,4"/>
<g id="clust1" class="cluster">
<title>cluster_52e6cc35&#45;3825&#45;4aa5&#45;8a26&#45;790db7cf0e48</title>
<polygon fill="transparent" stroke="blue" stroke-dasharray="5,2" points="8,-8 8,-829 280,-829 280,-8 8,-8"/>
</g>
<!-- 934eed7c&#45;665d&#45;48cb&#45;a3a8&#45;c22db31a4aa3 -->
<g id="node1" class="node">
<title>934eed7c&#45;665d&#45;48cb&#45;a3a8&#45;c22db31a4aa3</title>
<polygon fill="none" stroke="black" points="207,-748 141.82,-730 207,-712 272.18,-730 207,-748"/>
<text text-anchor="middle" x="207" y="-726.3" font-family="Times,serif" font-size="14.00">AlwaysTrue</text>
</g>
<!-- b8872025&#45;7098&#45;44cc&#45;bc7f&#45;3ab255122215 -->
<g id="node19" class="node">
<title>b8872025&#45;7098&#45;44cc&#45;bc7f&#45;3ab255122215</title>
<ellipse fill="none" stroke="black" cx="335" cy="-643" rx="46.5" ry="18"/>
<text text-anchor="middle" x="335" y="-639.3" font-family="Times,serif" font-size="14.00">VisionNorm</text>
</g>
<!-- 934eed7c&#45;665d&#45;48cb&#45;a3a8&#45;c22db31a4aa3&#45;&gt;b8872025&#45;7098&#45;44cc&#45;bc7f&#45;3ab255122215 -->
<g id="edge18" class="edge">
<title>934eed7c&#45;665d&#45;48cb&#45;a3a8&#45;c22db31a4aa3&#45;&gt;b8872025&#45;7098&#45;44cc&#45;bc7f&#45;3ab255122215</title>
<path fill="none" stroke="black" d="M225.34,-716.82C245.78,-703.25 279.18,-681.06 303.76,-664.74"/>
<polygon fill="black" stroke="black" points="305.98,-667.47 312.38,-659.02 302.11,-661.64 305.98,-667.47"/>
<text text-anchor="middle" x="296" y="-682.8" font-family="Times,serif" font-size="14.00">True</text>
</g>
<!-- 24c48d3a&#45;1208&#45;40a1&#45;9d8d&#45;235173769438 -->
<g id="node2" class="node">
<title>24c48d3a&#45;1208&#45;40a1&#45;9d8d&#45;235173769438</title>
<ellipse fill="none" stroke="black" cx="95" cy="-121" rx="31.2" ry="18"/>
<text text-anchor="middle" x="95" y="-117.3" font-family="Times,serif" font-size="14.00">MinYaw</text>
</g>
<!-- 012908f2&#45;b3a1&#45;4b6b&#45;8764&#45;669403b8bb1e -->
<g id="node3" class="node">
<title>012908f2&#45;b3a1&#45;4b6b&#45;8764&#45;669403b8bb1e</title>
<ellipse fill="none" stroke="black" cx="96" cy="-34" rx="80.11" ry="18"/>
<text text-anchor="middle" x="96" y="-30.3" font-family="Times,serif" font-size="14.00">Stability1Movement</text>
</g>
<!-- 24c48d3a&#45;1208&#45;40a1&#45;9d8d&#45;235173769438&#45;&gt;012908f2&#45;b3a1&#45;4b6b&#45;8764&#45;669403b8bb1e -->
<g id="edge1" class="edge">
<title>24c48d3a&#45;1208&#45;40a1&#45;9d8d&#45;235173769438&#45;&gt;012908f2&#45;b3a1&#45;4b6b&#45;8764&#45;669403b8bb1e</title>
<path fill="none" stroke="purple" d="M95.2,-102.8C95.34,-91.16 95.52,-75.55 95.68,-62.24"/>
<polygon fill="purple" stroke="purple" points="99.18,-62.22 95.8,-52.18 92.18,-62.13 99.18,-62.22"/>
<text text-anchor="middle" x="131.5" y="-73.8" font-family="Times,serif" font-size="14.00" fill="purple">Pass Data</text>
</g>
<!-- 6112727a&#45;7cb5&#45;4deb&#45;bea9&#45;5a3506ce9f71 -->
<g id="node4" class="node">
<title>6112727a&#45;7cb5&#45;4deb&#45;bea9&#45;5a3506ce9f71</title>
<ellipse fill="none" stroke="black" cx="94" cy="-208" rx="27" ry="18"/>
<text text-anchor="middle" x="94" y="-204.3" font-family="Times,serif" font-size="14.00">StripY</text>
</g>
<!-- 6112727a&#45;7cb5&#45;4deb&#45;bea9&#45;5a3506ce9f71&#45;&gt;24c48d3a&#45;1208&#45;40a1&#45;9d8d&#45;235173769438 -->
<g id="edge2" class="edge">
<title>6112727a&#45;7cb5&#45;4deb&#45;bea9&#45;5a3506ce9f71&#45;&gt;24c48d3a&#45;1208&#45;40a1&#45;9d8d&#45;235173769438</title>
<path fill="none" stroke="purple" d="M94.2,-189.8C94.34,-178.16 94.52,-162.55 94.68,-149.24"/>
<polygon fill="purple" stroke="purple" points="98.18,-149.22 94.8,-139.18 91.18,-149.13 98.18,-149.22"/>
<text text-anchor="middle" x="130.5" y="-160.8" font-family="Times,serif" font-size="14.00" fill="purple">Pass Data</text>
</g>
<!-- 09e33135&#45;2108&#45;4f0d&#45;b3a2&#45;945fe6634aa4 -->
<g id="node5" class="node">
<title>09e33135&#45;2108&#45;4f0d&#45;b3a2&#45;945fe6634aa4</title>
<ellipse fill="none" stroke="black" cx="94" cy="-295" rx="75.81" ry="18"/>
<text text-anchor="middle" x="94" y="-291.3" font-family="Times,serif" font-size="14.00">CautiousConstantX</text>
</g>
<!-- 09e33135&#45;2108&#45;4f0d&#45;b3a2&#45;945fe6634aa4&#45;&gt;6112727a&#45;7cb5&#45;4deb&#45;bea9&#45;5a3506ce9f71 -->
<g id="edge3" class="edge">
<title>09e33135&#45;2108&#45;4f0d&#45;b3a2&#45;945fe6634aa4&#45;&gt;6112727a&#45;7cb5&#45;4deb&#45;bea9&#45;5a3506ce9f71</title>
<path fill="none" stroke="purple" d="M94,-276.8C94,-265.16 94,-249.55 94,-236.24"/>
<polygon fill="purple" stroke="purple" points="97.5,-236.18 94,-226.18 90.5,-236.18 97.5,-236.18"/>
<text text-anchor="middle" x="129.5" y="-247.8" font-family="Times,serif" font-size="14.00" fill="purple">Pass Data</text>
</g>
<!-- 434f8b3a&#45;fb67&#45;4542&#45;a87d&#45;de6c8e6eb62d -->
<g id="node6" class="node">
<title>434f8b3a&#45;fb67&#45;4542&#45;a87d&#45;de6c8e6eb62d</title>
<ellipse fill="none" stroke="black" cx="93" cy="-382" rx="67.81" ry="18"/>
<text text-anchor="middle" x="93" y="-378.3" font-family="Times,serif" font-size="14.00">LinearYawFromX</text>
</g>
<!-- 434f8b3a&#45;fb67&#45;4542&#45;a87d&#45;de6c8e6eb62d&#45;&gt;09e33135&#45;2108&#45;4f0d&#45;b3a2&#45;945fe6634aa4 -->
<g id="edge4" class="edge">
<title>434f8b3a&#45;fb67&#45;4542&#45;a87d&#45;de6c8e6eb62d&#45;&gt;09e33135&#45;2108&#45;4f0d&#45;b3a2&#45;945fe6634aa4</title>
<path fill="none" stroke="purple" d="M93.2,-363.8C93.34,-352.16 93.52,-336.55 93.68,-323.24"/>
<polygon fill="purple" stroke="purple" points="97.18,-323.22 93.8,-313.18 90.18,-323.13 97.18,-323.22"/>
<text text-anchor="middle" x="129.5" y="-334.8" font-family="Times,serif" font-size="14.00" fill="purple">Pass Data</text>
</g>
<!-- 054faf28&#45;5845&#45;4b55&#45;951d&#45;98260bffb061 -->
<g id="node7" class="node">
<title>054faf28&#45;5845&#45;4b55&#45;951d&#45;98260bffb061</title>
<ellipse fill="none" stroke="black" cx="92" cy="-469" rx="51.3" ry="18"/>
<text text-anchor="middle" x="92" y="-465.3" font-family="Times,serif" font-size="14.00">OffsetToPose</text>
</g>
<!-- 054faf28&#45;5845&#45;4b55&#45;951d&#45;98260bffb061&#45;&gt;434f8b3a&#45;fb67&#45;4542&#45;a87d&#45;de6c8e6eb62d -->
<g id="edge5" class="edge">
<title>054faf28&#45;5845&#45;4b55&#45;951d&#45;98260bffb061&#45;&gt;434f8b3a&#45;fb67&#45;4542&#45;a87d&#45;de6c8e6eb62d</title>
<path fill="none" stroke="purple" d="M92.2,-450.8C92.34,-439.16 92.52,-423.55 92.68,-410.24"/>
<polygon fill="purple" stroke="purple" points="96.18,-410.22 92.8,-400.18 89.18,-410.13 96.18,-410.22"/>
<text text-anchor="middle" x="128.5" y="-421.8" font-family="Times,serif" font-size="14.00" fill="purple">Pass Data</text>
</g>
<!-- a7613f33&#45;8881&#45;4da9&#45;be85&#45;da9e846da28a -->
<g id="node8" class="node">
<title>a7613f33&#45;8881&#45;4da9&#45;be85&#45;da9e846da28a</title>
<ellipse fill="none" stroke="black" cx="91" cy="-556" rx="32.4" ry="18"/>
<text text-anchor="middle" x="91" y="-552.3" font-family="Times,serif" font-size="14.00">Average</text>
</g>
<!-- a7613f33&#45;8881&#45;4da9&#45;be85&#45;da9e846da28a&#45;&gt;054faf28&#45;5845&#45;4b55&#45;951d&#45;98260bffb061 -->
<g id="edge6" class="edge">
<title>a7613f33&#45;8881&#45;4da9&#45;be85&#45;da9e846da28a&#45;&gt;054faf28&#45;5845&#45;4b55&#45;951d&#45;98260bffb061</title>
<path fill="none" stroke="purple" d="M91.2,-537.8C91.34,-526.16 91.52,-510.55 91.68,-497.24"/>
<polygon fill="purple" stroke="purple" points="95.18,-497.22 91.8,-487.18 88.18,-497.13 95.18,-497.22"/>
<text text-anchor="middle" x="127.5" y="-508.8" font-family="Times,serif" font-size="14.00" fill="purple">Pass Data</text>
</g>
<!-- d0e86978&#45;9f13&#45;46bf&#45;a7dd&#45;71525e9464f8 -->
<g id="node9" class="node">
<title>d0e86978&#45;9f13&#45;46bf&#45;a7dd&#45;71525e9464f8</title>
<ellipse fill="none" stroke="black" cx="90" cy="-643" rx="61.1" ry="18"/>
<text text-anchor="middle" x="90" y="-639.3" font-family="Times,serif" font-size="14.00">ExtractPosition</text>
</g>
<!-- d0e86978&#45;9f13&#45;46bf&#45;a7dd&#45;71525e9464f8&#45;&gt;a7613f33&#45;8881&#45;4da9&#45;be85&#45;da9e846da28a -->
<g id="edge7" class="edge">
<title>d0e86978&#45;9f13&#45;46bf&#45;a7dd&#45;71525e9464f8&#45;&gt;a7613f33&#45;8881&#45;4da9&#45;be85&#45;da9e846da28a</title>
<path fill="none" stroke="purple" d="M90.2,-624.8C90.34,-613.16 90.52,-597.55 90.68,-584.24"/>
<polygon fill="purple" stroke="purple" points="94.18,-584.22 90.8,-574.18 87.18,-584.13 94.18,-584.22"/>
<text text-anchor="middle" x="126.5" y="-595.8" font-family="Times,serif" font-size="14.00" fill="purple">Pass Data</text>
</g>
<!-- 2d4ade07&#45;1783&#45;442e&#45;a006&#45;f8937ef9f440 -->
<g id="node10" class="node">
<title>2d4ade07&#45;1783&#45;442e&#45;a006&#45;f8937ef9f440</title>
<ellipse fill="none" stroke="black" cx="43" cy="-730" rx="27" ry="18"/>
<text text-anchor="middle" x="43" y="-726.3" font-family="Times,serif" font-size="14.00">ToVec</text>
</g>
<!-- 2d4ade07&#45;1783&#45;442e&#45;a006&#45;f8937ef9f440&#45;&gt;d0e86978&#45;9f13&#45;46bf&#45;a7dd&#45;71525e9464f8 -->
<g id="edge8" class="edge">
<title>2d4ade07&#45;1783&#45;442e&#45;a006&#45;f8937ef9f440&#45;&gt;d0e86978&#45;9f13&#45;46bf&#45;a7dd&#45;71525e9464f8</title>
<path fill="none" stroke="purple" d="M52.06,-712.61C58.74,-700.54 67.95,-683.88 75.63,-670"/>
<polygon fill="purple" stroke="purple" points="78.87,-671.37 80.64,-660.92 72.74,-667.98 78.87,-671.37"/>
<text text-anchor="middle" x="105.5" y="-682.8" font-family="Times,serif" font-size="14.00" fill="purple">Pass Data</text>
</g>
<!-- 63a0885b&#45;11c0&#45;4846&#45;aa06&#45;6c8874209266 -->
<g id="node11" class="node">
<title>63a0885b&#45;11c0&#45;4846&#45;aa06&#45;6c8874209266</title>
<polygon fill="none" stroke="black" stroke-dasharray="5,2" points="256,-821 158,-821 158,-785 256,-785 256,-821"/>
<text text-anchor="middle" x="207" y="-799.3" font-family="Times,serif" font-size="14.00" fill="blue">Concurrent</text>
</g>
<!-- 63a0885b&#45;11c0&#45;4846&#45;aa06&#45;6c8874209266&#45;&gt;934eed7c&#45;665d&#45;48cb&#45;a3a8&#45;c22db31a4aa3 -->
<g id="edge10" class="edge">
<title>63a0885b&#45;11c0&#45;4846&#45;aa06&#45;6c8874209266&#45;&gt;934eed7c&#45;665d&#45;48cb&#45;a3a8&#45;c22db31a4aa3</title>
<path fill="none" stroke="black" d="M207,-784.81C207,-776.79 207,-767.05 207,-758.07"/>
<polygon fill="black" stroke="black" points="210.5,-758.03 207,-748.03 203.5,-758.03 210.5,-758.03"/>
</g>
<!-- 63a0885b&#45;11c0&#45;4846&#45;aa06&#45;6c8874209266&#45;&gt;2d4ade07&#45;1783&#45;442e&#45;a006&#45;f8937ef9f440 -->
<g id="edge9" class="edge">
<title>63a0885b&#45;11c0&#45;4846&#45;aa06&#45;6c8874209266&#45;&gt;2d4ade07&#45;1783&#45;442e&#45;a006&#45;f8937ef9f440</title>
<path fill="none" stroke="black" d="M167.72,-784.99C139.19,-772.64 101.1,-756.15 74.55,-744.66"/>
<polygon fill="black" stroke="black" points="75.89,-741.43 65.32,-740.66 73.11,-747.85 75.89,-741.43"/>
</g>
<!-- 8e6f850c&#45;7aa8&#45;4c80&#45;bffa&#45;154f8b80e0b1 -->
<g id="node12" class="node">
<title>8e6f850c&#45;7aa8&#45;4c80&#45;bffa&#45;154f8b80e0b1</title>
<ellipse fill="none" stroke="black" cx="660" cy="-1022" rx="33.6" ry="18"/>
<text text-anchor="middle" x="660" y="-1018.3" font-family="Times,serif" font-size="14.00">Descend</text>
</g>
<!-- 2394a606&#45;4e77&#45;42bf&#45;918e&#45;2fd8efb3e505 -->
<g id="node13" class="node">
<title>2394a606&#45;4e77&#45;42bf&#45;918e&#45;2fd8efb3e505</title>
<ellipse fill="none" stroke="black" cx="660" cy="-949" rx="47.1" ry="18"/>
<text text-anchor="middle" x="660" y="-945.3" font-family="Times,serif" font-size="14.00">DelayAction</text>
</g>
<!-- 8e6f850c&#45;7aa8&#45;4c80&#45;bffa&#45;154f8b80e0b1&#45;&gt;2394a606&#45;4e77&#45;42bf&#45;918e&#45;2fd8efb3e505 -->
<g id="edge11" class="edge">
<title>8e6f850c&#45;7aa8&#45;4c80&#45;bffa&#45;154f8b80e0b1&#45;&gt;2394a606&#45;4e77&#45;42bf&#45;918e&#45;2fd8efb3e505</title>
<path fill="none" stroke="black" d="M660,-1003.81C660,-995.79 660,-986.05 660,-977.07"/>
<polygon fill="black" stroke="black" points="663.5,-977.03 660,-967.03 656.5,-977.03 663.5,-977.03"/>
</g>
<!-- e202a70d&#45;e29d&#45;4c1c&#45;8d38&#45;e22dd4f16e70 -->
<g id="node14" class="node">
<title>e202a70d&#45;e29d&#45;4c1c&#45;8d38&#45;e22dd4f16e70</title>
<ellipse fill="none" stroke="black" cx="660" cy="-876" rx="74.61" ry="18"/>
<text text-anchor="middle" x="660" y="-872.3" font-family="Times,serif" font-size="14.00">StraightMovement</text>
</g>
<!-- 2394a606&#45;4e77&#45;42bf&#45;918e&#45;2fd8efb3e505&#45;&gt;e202a70d&#45;e29d&#45;4c1c&#45;8d38&#45;e22dd4f16e70 -->
<g id="edge14" class="edge">
<title>2394a606&#45;4e77&#45;42bf&#45;918e&#45;2fd8efb3e505&#45;&gt;e202a70d&#45;e29d&#45;4c1c&#45;8d38&#45;e22dd4f16e70</title>
<path fill="none" stroke="black" d="M660,-930.81C660,-922.79 660,-913.05 660,-904.07"/>
<polygon fill="black" stroke="black" points="663.5,-904.03 660,-894.03 656.5,-904.03 663.5,-904.03"/>
</g>
<!-- 34ec9fe6&#45;cdad&#45;4878&#45;88a8&#45;9cf75e226868 -->
<g id="node15" class="node">
<title>34ec9fe6&#45;cdad&#45;4878&#45;88a8&#45;9cf75e226868</title>
<ellipse fill="none" stroke="black" cx="660" cy="-803" rx="47.1" ry="18"/>
<text text-anchor="middle" x="660" y="-799.3" font-family="Times,serif" font-size="14.00">DelayAction</text>
</g>
<!-- e202a70d&#45;e29d&#45;4c1c&#45;8d38&#45;e22dd4f16e70&#45;&gt;34ec9fe6&#45;cdad&#45;4878&#45;88a8&#45;9cf75e226868 -->
<g id="edge12" class="edge">
<title>e202a70d&#45;e29d&#45;4c1c&#45;8d38&#45;e22dd4f16e70&#45;&gt;34ec9fe6&#45;cdad&#45;4878&#45;88a8&#45;9cf75e226868</title>
<path fill="none" stroke="black" d="M660,-857.81C660,-849.79 660,-840.05 660,-831.07"/>
<polygon fill="black" stroke="black" points="663.5,-831.03 660,-821.03 656.5,-831.03 663.5,-831.03"/>
</g>
<!-- ef1d526b&#45;fce2&#45;476d&#45;a6f0&#45;cb6d61d6b106 -->
<g id="node16" class="node">
<title>ef1d526b&#45;fce2&#45;476d&#45;a6f0&#45;cb6d61d6b106</title>
<ellipse fill="none" stroke="black" cx="660" cy="-730" rx="59.9" ry="18"/>
<text text-anchor="middle" x="660" y="-726.3" font-family="Times,serif" font-size="14.00">ZeroMovement</text>
</g>
<!-- 34ec9fe6&#45;cdad&#45;4878&#45;88a8&#45;9cf75e226868&#45;&gt;ef1d526b&#45;fce2&#45;476d&#45;a6f0&#45;cb6d61d6b106 -->
<g id="edge13" class="edge">
<title>34ec9fe6&#45;cdad&#45;4878&#45;88a8&#45;9cf75e226868&#45;&gt;ef1d526b&#45;fce2&#45;476d&#45;a6f0&#45;cb6d61d6b106</title>
<path fill="none" stroke="black" d="M660,-784.81C660,-776.79 660,-767.05 660,-758.07"/>
<polygon fill="black" stroke="black" points="663.5,-758.03 660,-748.03 656.5,-758.03 663.5,-758.03"/>
</g>
<!-- ef1d526b&#45;fce2&#45;476d&#45;a6f0&#45;cb6d61d6b106&#45;&gt;b8872025&#45;7098&#45;44cc&#45;bc7f&#45;3ab255122215 -->
<g id="edge19" class="edge">
<title>ef1d526b&#45;fce2&#45;476d&#45;a6f0&#45;cb6d61d6b106&#45;&gt;b8872025&#45;7098&#45;44cc&#45;bc7f&#45;3ab255122215</title>
<path fill="none" stroke="black" d="M639.53,-712.83C624.07,-701.49 601.85,-686.98 580,-679 518.08,-656.38 442.38,-648.3 391.65,-645.46"/>
<polygon fill="black" stroke="black" points="391.7,-641.96 381.54,-644.94 391.35,-648.95 391.7,-641.96"/>
</g>
<!-- 5199e223&#45;dfb7&#45;4f29&#45;904b&#45;7e5d964ff502 -->
<g id="node17" class="node">
<title>5199e223&#45;dfb7&#45;4f29&#45;904b&#45;7e5d964ff502</title>
<ellipse fill="none" stroke="black" cx="660" cy="-1095" rx="34.8" ry="18"/>
<text text-anchor="middle" x="660" y="-1091.3" font-family="Times,serif" font-size="14.00">WaitArm</text>
</g>
<!-- 5199e223&#45;dfb7&#45;4f29&#45;904b&#45;7e5d964ff502&#45;&gt;8e6f850c&#45;7aa8&#45;4c80&#45;bffa&#45;154f8b80e0b1 -->
<g id="edge15" class="edge">
<title>5199e223&#45;dfb7&#45;4f29&#45;904b&#45;7e5d964ff502&#45;&gt;8e6f850c&#45;7aa8&#45;4c80&#45;bffa&#45;154f8b80e0b1</title>
<path fill="none" stroke="black" d="M660,-1076.81C660,-1068.79 660,-1059.05 660,-1050.07"/>
<polygon fill="black" stroke="black" points="663.5,-1050.03 660,-1040.03 656.5,-1050.03 663.5,-1050.03"/>
</g>
<!-- 62e3899a&#45;cd32&#45;4065&#45;b10e&#45;f3d7dfb06a15 -->
<g id="node18" class="node">
<title>62e3899a&#45;cd32&#45;4065&#45;b10e&#45;f3d7dfb06a15</title>
<ellipse fill="none" stroke="black" cx="430" cy="-556" rx="48.3" ry="18"/>
<text text-anchor="middle" x="430" y="-552.3" font-family="Times,serif" font-size="14.00">Detect Buoy</text>
</g>
<!-- 62e3899a&#45;cd32&#45;4065&#45;b10e&#45;f3d7dfb06a15&#45;&gt;63a0885b&#45;11c0&#45;4846&#45;aa06&#45;6c8874209266 -->
<g id="edge16" class="edge">
<title>62e3899a&#45;cd32&#45;4065&#45;b10e&#45;f3d7dfb06a15&#45;&gt;63a0885b&#45;11c0&#45;4846&#45;aa06&#45;6c8874209266</title>
<path fill="none" stroke="purple" d="M442.64,-573.8C448.32,-583.35 453.11,-595.64 450,-607 442.63,-633.91 436.36,-640 418,-661 371.25,-714.49 299.68,-756.54 253.1,-780.34"/>
<polygon fill="purple" stroke="purple" points="251.49,-777.23 244.14,-784.85 254.64,-783.48 251.49,-777.23"/>
<text text-anchor="middle" x="434.5" y="-682.8" font-family="Times,serif" font-size="14.00" fill="purple">Pass Data</text>
</g>
<!-- b8872025&#45;7098&#45;44cc&#45;bc7f&#45;3ab255122215&#45;&gt;62e3899a&#45;cd32&#45;4065&#45;b10e&#45;f3d7dfb06a15 -->
<g id="edge17" class="edge">
<title>b8872025&#45;7098&#45;44cc&#45;bc7f&#45;3ab255122215&#45;&gt;62e3899a&#45;cd32&#45;4065&#45;b10e&#45;f3d7dfb06a15</title>
<path fill="none" stroke="purple" d="M342.26,-625.14C347.43,-614.63 355.19,-601.37 365,-592 372.09,-585.23 380.74,-579.39 389.39,-574.52"/>
<polygon fill="purple" stroke="purple" points="391.12,-577.56 398.33,-569.79 387.85,-571.37 391.12,-577.56"/>
<text text-anchor="middle" x="400.5" y="-595.8" font-family="Times,serif" font-size="14.00" fill="purple">Pass Data</text>
</g>
</g>
</svg>
